G04 #@! TF.GenerationSoftware,KiCad,Pcbnew,5.1.10-88a1d61d58~88~ubuntu18.04.1*
G04 #@! TF.CreationDate,2021-08-07T15:14:50-07:00*
G04 #@! TF.ProjectId,apple2idiot_new,6170706c-6532-4696-9469-6f745f6e6577,1.1*
G04 #@! TF.SameCoordinates,Original*
G04 #@! TF.FileFunction,Copper,L2,Bot*
G04 #@! TF.FilePolarity,Positive*
%FSLAX46Y46*%
G04 Gerber Fmt 4.6, Leading zero omitted, Abs format (unit mm)*
G04 Created by KiCad (PCBNEW 5.1.10-88a1d61d58~88~ubuntu18.04.1) date 2021-08-07 15:14:50*
%MOMM*%
%LPD*%
G01*
G04 APERTURE LIST*
G04 #@! TA.AperFunction,ComponentPad*
%ADD10C,1.560000*%
G04 #@! TD*
G04 #@! TA.AperFunction,ComponentPad*
%ADD11R,1.560000X1.560000*%
G04 #@! TD*
G04 #@! TA.AperFunction,ComponentPad*
%ADD12O,1.600000X2.400000*%
G04 #@! TD*
G04 #@! TA.AperFunction,ComponentPad*
%ADD13R,1.600000X2.400000*%
G04 #@! TD*
G04 #@! TA.AperFunction,ComponentPad*
%ADD14O,1.700000X1.700000*%
G04 #@! TD*
G04 #@! TA.AperFunction,ComponentPad*
%ADD15R,1.700000X1.700000*%
G04 #@! TD*
G04 #@! TA.AperFunction,SMDPad,CuDef*
%ADD16R,1.524000X6.350000*%
G04 #@! TD*
G04 #@! TA.AperFunction,ComponentPad*
%ADD17C,2.000000*%
G04 #@! TD*
G04 #@! TA.AperFunction,ViaPad*
%ADD18C,0.800000*%
G04 #@! TD*
G04 #@! TA.AperFunction,Conductor*
%ADD19C,0.400000*%
G04 #@! TD*
G04 #@! TA.AperFunction,Conductor*
%ADD20C,0.250000*%
G04 #@! TD*
G04 #@! TA.AperFunction,Conductor*
%ADD21C,0.249936*%
G04 #@! TD*
G04 APERTURE END LIST*
D10*
X234160000Y-60400000D03*
X231620000Y-60400000D03*
X229080000Y-60400000D03*
X226540000Y-60400000D03*
X224000000Y-60400000D03*
X221460000Y-60400000D03*
X218920000Y-60400000D03*
X216380000Y-60400000D03*
X213840000Y-60400000D03*
X211300000Y-60400000D03*
X208760000Y-60400000D03*
X206220000Y-60400000D03*
X203680000Y-60400000D03*
X201140000Y-60400000D03*
X198600000Y-60400000D03*
X196060000Y-60400000D03*
X193520000Y-60400000D03*
X190980000Y-60400000D03*
X188440000Y-60400000D03*
X231620000Y-85800000D03*
X229080000Y-85800000D03*
X226540000Y-85800000D03*
X224000000Y-85800000D03*
X221460000Y-85800000D03*
X218920000Y-85800000D03*
X216380000Y-85800000D03*
X213840000Y-85800000D03*
X211300000Y-85800000D03*
X208760000Y-85800000D03*
X206220000Y-85800000D03*
X203680000Y-85800000D03*
X201140000Y-85800000D03*
X198600000Y-85800000D03*
X196060000Y-85800000D03*
X193520000Y-85800000D03*
X234160000Y-85800000D03*
X190980000Y-85800000D03*
D11*
X188440000Y-85800000D03*
D12*
X160600000Y-96160000D03*
X219020000Y-111400000D03*
X163140000Y-96160000D03*
X216480000Y-111400000D03*
X165680000Y-96160000D03*
X213940000Y-111400000D03*
X168220000Y-96160000D03*
X211400000Y-111400000D03*
X170760000Y-96160000D03*
X208860000Y-111400000D03*
X173300000Y-96160000D03*
X206320000Y-111400000D03*
X175840000Y-96160000D03*
X203780000Y-111400000D03*
X178380000Y-96160000D03*
X201240000Y-111400000D03*
X180920000Y-96160000D03*
X198700000Y-111400000D03*
X183460000Y-96160000D03*
X196160000Y-111400000D03*
X186000000Y-96160000D03*
X193620000Y-111400000D03*
X188540000Y-96160000D03*
X191080000Y-111400000D03*
X191080000Y-96160000D03*
X188540000Y-111400000D03*
X193620000Y-96160000D03*
X186000000Y-111400000D03*
X196160000Y-96160000D03*
X183460000Y-111400000D03*
X198700000Y-96160000D03*
X180920000Y-111400000D03*
X201240000Y-96160000D03*
X178380000Y-111400000D03*
X203780000Y-96160000D03*
X175840000Y-111400000D03*
X206320000Y-96160000D03*
X173300000Y-111400000D03*
X208860000Y-96160000D03*
X170760000Y-111400000D03*
X211400000Y-96160000D03*
X168220000Y-111400000D03*
X213940000Y-96160000D03*
X165680000Y-111400000D03*
X216480000Y-96160000D03*
X163140000Y-111400000D03*
X219020000Y-96160000D03*
D13*
X160600000Y-111400000D03*
D14*
X149360000Y-75140000D03*
X151900000Y-75140000D03*
X149360000Y-72600000D03*
X151900000Y-72600000D03*
X149360000Y-70060000D03*
X151900000Y-70060000D03*
X149360000Y-67520000D03*
X151900000Y-67520000D03*
X149360000Y-64980000D03*
X151900000Y-64980000D03*
X149360000Y-62440000D03*
X151900000Y-62440000D03*
X149360000Y-59900000D03*
D15*
X151900000Y-59900000D03*
D14*
X138020000Y-59960000D03*
X138020000Y-62500000D03*
X135480000Y-59960000D03*
X135480000Y-62500000D03*
X132940000Y-59960000D03*
X132940000Y-62500000D03*
X130400000Y-59960000D03*
D15*
X130400000Y-62500000D03*
D14*
X117540000Y-62440000D03*
X115000000Y-62440000D03*
X117540000Y-59900000D03*
D15*
X115000000Y-59900000D03*
D14*
X104020000Y-59700000D03*
X101480000Y-59700000D03*
X98940000Y-59700000D03*
D15*
X96400000Y-59700000D03*
D14*
X87840000Y-62440000D03*
X85300000Y-62440000D03*
X87840000Y-59900000D03*
D15*
X85300000Y-59900000D03*
D16*
X231230000Y-128500000D03*
X228690000Y-128500000D03*
X226150000Y-128500000D03*
X223610000Y-128500000D03*
X221070000Y-128500000D03*
X218530000Y-128500000D03*
X215990000Y-128500000D03*
X213450000Y-128500000D03*
X210910000Y-128500000D03*
X208370000Y-128500000D03*
X205830000Y-128500000D03*
X203290000Y-128500000D03*
X200750000Y-128500000D03*
X198210000Y-128500000D03*
X195670000Y-128500000D03*
X193130000Y-128500000D03*
X190590000Y-128500000D03*
X188050000Y-128500000D03*
X185510000Y-128500000D03*
X182970000Y-128500000D03*
X180430000Y-128500000D03*
X177890000Y-128500000D03*
X175350000Y-128500000D03*
X172810000Y-128500000D03*
X170270000Y-128500000D03*
D17*
X237000000Y-114500000D03*
X227000000Y-114500000D03*
D18*
X149600000Y-89800000D03*
X165700000Y-72700000D03*
X171500000Y-67000000D03*
X193200000Y-77000000D03*
X191200000Y-73500000D03*
X198600000Y-65300000D03*
X179200000Y-77300000D03*
X166900000Y-107600000D03*
X146000000Y-73900000D03*
X162700000Y-85300000D03*
X139215001Y-68884999D03*
X128884999Y-68884999D03*
X212200000Y-81300000D03*
X161700000Y-68300000D03*
X190000000Y-71300000D03*
X196800000Y-56900000D03*
X200000000Y-56900000D03*
D19*
X198700000Y-111400000D02*
X191300000Y-118800000D01*
X172810000Y-124925000D02*
X172810000Y-128500000D01*
X178935000Y-118800000D02*
X172810000Y-124925000D01*
X191300000Y-118800000D02*
X178935000Y-118800000D01*
X180874990Y-119400010D02*
X175350000Y-124925000D01*
X193239990Y-119400010D02*
X180874990Y-119400010D01*
X175350000Y-124925000D02*
X175350000Y-128500000D01*
X201240000Y-111400000D02*
X193239990Y-119400010D01*
X177890000Y-124925000D02*
X177890000Y-128500000D01*
X195179980Y-120000020D02*
X182814980Y-120000020D01*
X182814980Y-120000020D02*
X177890000Y-124925000D01*
X203780000Y-111400000D02*
X195179980Y-120000020D01*
X184754970Y-120600030D02*
X180430000Y-124925000D01*
X180430000Y-124925000D02*
X180430000Y-128500000D01*
X197119970Y-120600030D02*
X184754970Y-120600030D01*
X206320000Y-111400000D02*
X197119970Y-120600030D01*
X208860000Y-111400000D02*
X208600000Y-111400000D01*
X208600000Y-111400000D02*
X198799960Y-121200040D01*
X182970000Y-124925000D02*
X182970000Y-128500000D01*
X186694960Y-121200040D02*
X182970000Y-124925000D01*
X198799960Y-121200040D02*
X186694960Y-121200040D01*
X185510000Y-124925000D02*
X185510000Y-128500000D01*
X188634950Y-121800050D02*
X185510000Y-124925000D01*
X200999950Y-121800050D02*
X188634950Y-121800050D01*
X211400000Y-111400000D02*
X200999950Y-121800050D01*
X213940000Y-111400000D02*
X213800000Y-111400000D01*
X213800000Y-111400000D02*
X202799940Y-122400060D01*
X188050000Y-124925000D02*
X188050000Y-128500000D01*
X190574940Y-122400060D02*
X188050000Y-124925000D01*
X202799940Y-122400060D02*
X190574940Y-122400060D01*
X216480000Y-111400000D02*
X216400000Y-111400000D01*
X216400000Y-111400000D02*
X204799930Y-123000070D01*
X192514930Y-123000070D02*
X190590000Y-124925000D01*
X190590000Y-124925000D02*
X190590000Y-128500000D01*
X204799930Y-123000070D02*
X192514930Y-123000070D01*
X233900000Y-111400000D02*
X237000000Y-114500000D01*
X198700000Y-96160000D02*
X198700000Y-101400000D01*
X203700000Y-106400000D02*
X216800000Y-106400000D01*
X219020000Y-108620000D02*
X219020000Y-111400000D01*
X216800000Y-106400000D02*
X219020000Y-108620000D01*
X221460000Y-85800000D02*
X221460000Y-111360000D01*
X221460000Y-111360000D02*
X221500000Y-111400000D01*
X219020000Y-111400000D02*
X221500000Y-111400000D01*
X221500000Y-111400000D02*
X233900000Y-111400000D01*
X196160000Y-96160000D02*
X198700000Y-96160000D01*
X163140000Y-96160000D02*
X163140000Y-98840000D01*
X163140000Y-98840000D02*
X168600000Y-104300000D01*
X201600000Y-104300000D02*
X203700000Y-106400000D01*
X170760000Y-111400000D02*
X170760000Y-104460000D01*
X168600000Y-104300000D02*
X170600000Y-104300000D01*
X170760000Y-104460000D02*
X170600000Y-104300000D01*
X170760000Y-96160000D02*
X173300000Y-96160000D01*
X173300000Y-96160000D02*
X173300000Y-104200000D01*
X173300000Y-104200000D02*
X173400000Y-104300000D01*
X170600000Y-104300000D02*
X173400000Y-104300000D01*
X231230000Y-120270000D02*
X231230000Y-128500000D01*
X237000000Y-114500000D02*
X231230000Y-120270000D01*
D20*
X188440000Y-60400000D02*
X188440000Y-56960000D01*
X188440000Y-56960000D02*
X190200000Y-55200000D01*
X190200000Y-55200000D02*
X202500000Y-55200000D01*
X203680000Y-56380000D02*
X203680000Y-60400000D01*
X202500000Y-55200000D02*
X203680000Y-56380000D01*
X203680000Y-56380000D02*
X203680000Y-56320000D01*
X203680000Y-56320000D02*
X204300000Y-55700000D01*
X204300000Y-55700000D02*
X239300000Y-55700000D01*
X239300000Y-55700000D02*
X240300000Y-56700000D01*
X240300000Y-56700000D02*
X240300000Y-81500000D01*
X240300000Y-81500000D02*
X238900000Y-82900000D01*
X224360000Y-82900000D02*
X221460000Y-85800000D01*
X238900000Y-82900000D02*
X224360000Y-82900000D01*
D19*
X199000000Y-104300000D02*
X200300000Y-103000000D01*
X195400000Y-104300000D02*
X199000000Y-104300000D01*
X200300000Y-103000000D02*
X203700000Y-106400000D01*
X198700000Y-101400000D02*
X200300000Y-103000000D01*
X173400000Y-104300000D02*
X195400000Y-104300000D01*
D21*
X104020000Y-59700000D02*
X107020000Y-62700000D01*
D19*
X114740000Y-62700000D02*
X115000000Y-62440000D01*
D21*
X107020000Y-62700000D02*
X114740000Y-62700000D01*
D20*
X115000000Y-62440000D02*
X134060000Y-81500000D01*
X134060000Y-81500000D02*
X141100000Y-81500000D01*
X141100000Y-81500000D02*
X149400000Y-89800000D01*
X149400000Y-89800000D02*
X149600000Y-89800000D01*
X165680000Y-96160000D02*
X165680000Y-72720000D01*
X165680000Y-72720000D02*
X165700000Y-72700000D01*
X171500000Y-67000000D02*
X209200000Y-67000000D01*
X211300000Y-64900000D02*
X211300000Y-60400000D01*
X209200000Y-67000000D02*
X211300000Y-64900000D01*
X175840000Y-96160000D02*
X178680000Y-99000000D01*
X199705001Y-86330401D02*
X199705001Y-83505001D01*
X195034990Y-91000412D02*
X199705001Y-86330401D01*
X195034990Y-96736014D02*
X195034990Y-91000412D01*
X178680000Y-99000000D02*
X192771004Y-99000000D01*
X192771004Y-99000000D02*
X195034990Y-96736014D01*
X199705001Y-83505001D02*
X193200000Y-77000000D01*
X178380000Y-77046998D02*
X181926998Y-73500000D01*
X178380000Y-96160000D02*
X178380000Y-77046998D01*
X181926998Y-73500000D02*
X191200000Y-73500000D01*
X198600000Y-65300000D02*
X195900000Y-65300000D01*
X193520000Y-62920000D02*
X193520000Y-60400000D01*
X195900000Y-65300000D02*
X193520000Y-62920000D01*
X179200000Y-77300000D02*
X179200000Y-86900000D01*
X180920000Y-88620000D02*
X180920000Y-96160000D01*
X179200000Y-86900000D02*
X180920000Y-88620000D01*
X217894990Y-86825010D02*
X217894990Y-98105010D01*
X218920000Y-85800000D02*
X217894990Y-86825010D01*
X217894990Y-98105010D02*
X214700000Y-101300000D01*
X206380000Y-101300000D02*
X201240000Y-96160000D01*
X214700000Y-101300000D02*
X206380000Y-101300000D01*
X215065010Y-95671400D02*
X215065010Y-97025994D01*
X215065010Y-97025994D02*
X212391004Y-99700000D01*
X215395010Y-95341400D02*
X215065010Y-95671400D01*
X216380000Y-85800000D02*
X215395010Y-86784990D01*
X215395010Y-86784990D02*
X215395010Y-95341400D01*
X209860000Y-99700000D02*
X206320000Y-96160000D01*
X212391004Y-99700000D02*
X209860000Y-99700000D01*
X212405001Y-95154999D02*
X211400000Y-96160000D01*
X212405001Y-83694999D02*
X212405001Y-95154999D01*
X217159999Y-78940001D02*
X212405001Y-83694999D01*
X217159999Y-61179999D02*
X217159999Y-78940001D01*
X216380000Y-60400000D02*
X217159999Y-61179999D01*
X213840000Y-60400000D02*
X216340000Y-57900000D01*
X216340000Y-57900000D02*
X235600000Y-57900000D01*
X235600000Y-57900000D02*
X237700000Y-60000000D01*
X237700000Y-60000000D02*
X237700000Y-74600000D01*
X237700000Y-74600000D02*
X234600000Y-77700000D01*
X214945001Y-95154999D02*
X213940000Y-96160000D01*
X214945001Y-84963187D02*
X214945001Y-95154999D01*
X222208188Y-77700000D02*
X214945001Y-84963187D01*
X234600000Y-77700000D02*
X222208188Y-77700000D01*
X208760000Y-60400000D02*
X211960000Y-57200000D01*
X237500000Y-57200000D02*
X238600000Y-58300000D01*
X211960000Y-57200000D02*
X237500000Y-57200000D01*
X238600000Y-58300000D02*
X238600000Y-78600000D01*
X216480000Y-87335402D02*
X216480000Y-96160000D01*
X217485001Y-86330401D02*
X216480000Y-87335402D01*
X217485001Y-83059597D02*
X217485001Y-86330401D01*
X221944598Y-78600000D02*
X217485001Y-83059597D01*
X238600000Y-78600000D02*
X221944598Y-78600000D01*
X224000000Y-81300000D02*
X220025001Y-85274999D01*
X237800000Y-81300000D02*
X224000000Y-81300000D01*
X220025001Y-85274999D02*
X220025001Y-95154999D01*
X206220000Y-56980000D02*
X207000000Y-56200000D01*
X206220000Y-60400000D02*
X206220000Y-56980000D01*
X207000000Y-56200000D02*
X237800000Y-56200000D01*
X239500000Y-57900000D02*
X239500000Y-79600000D01*
X237800000Y-56200000D02*
X239500000Y-57900000D01*
X220025001Y-95154999D02*
X219020000Y-96160000D01*
X239500000Y-79600000D02*
X237800000Y-81300000D01*
D21*
X94910001Y-61189999D02*
X96400000Y-59700000D01*
X86550001Y-61189999D02*
X94910001Y-61189999D01*
X85300000Y-62440000D02*
X86550001Y-61189999D01*
D20*
X113559993Y-56174991D02*
X99925009Y-56174991D01*
X116175001Y-58789999D02*
X113559993Y-56174991D01*
X164647200Y-118000000D02*
X150724999Y-104077799D01*
X206345924Y-123525080D02*
X217605010Y-112265994D01*
X193130000Y-128500000D02*
X193130000Y-124070000D01*
X116175001Y-60464001D02*
X116175001Y-58789999D01*
X149924001Y-71235001D02*
X148795999Y-71235001D01*
X138825997Y-61264999D02*
X116975999Y-61264999D01*
X216900000Y-108100000D02*
X197400000Y-108100000D01*
X193674920Y-123525080D02*
X206345924Y-123525080D01*
X150724999Y-72035999D02*
X149924001Y-71235001D01*
X116975999Y-61264999D02*
X116175001Y-60464001D01*
X197400000Y-108100000D02*
X195034990Y-110465010D01*
X217605010Y-112265994D02*
X217605010Y-108805010D01*
X195034990Y-110465010D02*
X195034990Y-112265994D01*
X195034990Y-112265994D02*
X189300984Y-118000000D01*
X189300984Y-118000000D02*
X164647200Y-118000000D01*
X150724999Y-104077799D02*
X150724999Y-72035999D01*
X99925009Y-56174991D02*
X96400000Y-59700000D01*
X217605010Y-108805010D02*
X216900000Y-108100000D01*
X193130000Y-124070000D02*
X193674920Y-123525080D01*
X148795999Y-71235001D02*
X138825997Y-61264999D01*
X163140000Y-111400000D02*
X163140000Y-111360000D01*
X163140000Y-111360000D02*
X166900000Y-107600000D01*
D21*
X101480000Y-59700000D02*
X101480000Y-57520000D01*
X101480000Y-57520000D02*
X102300000Y-56700000D01*
X111800000Y-56700000D02*
X115000000Y-59900000D01*
X102300000Y-56700000D02*
X111800000Y-56700000D01*
D20*
X117540000Y-62440000D02*
X126200000Y-71100000D01*
X126200000Y-71100000D02*
X127200000Y-72100000D01*
X127200000Y-72100000D02*
X129000000Y-73900000D01*
X129000000Y-73900000D02*
X146000000Y-73900000D01*
X151900000Y-72600000D02*
X162700000Y-83400000D01*
X162700000Y-83400000D02*
X162700000Y-85300000D01*
X139215001Y-68884999D02*
X128884999Y-68884999D01*
X206220000Y-85800000D02*
X190920000Y-70500000D01*
X154880000Y-70500000D02*
X151900000Y-67520000D01*
X190920000Y-70500000D02*
X154880000Y-70500000D01*
X150724999Y-66344999D02*
X151900000Y-67520000D01*
X142600998Y-59960000D02*
X148985997Y-66344999D01*
X148985997Y-66344999D02*
X150724999Y-66344999D01*
X138020000Y-59960000D02*
X142600998Y-59960000D01*
X135480000Y-59960000D02*
X135480000Y-58720000D01*
X135480000Y-58720000D02*
X136700000Y-57500000D01*
X150724999Y-63804999D02*
X151900000Y-64980000D01*
X148985997Y-63804999D02*
X150724999Y-63804999D01*
X142680998Y-57500000D02*
X148985997Y-63804999D01*
X136700000Y-57500000D02*
X142680998Y-57500000D01*
X207436410Y-81300000D02*
X194236410Y-68100000D01*
X212200000Y-81300000D02*
X207436410Y-81300000D01*
X194236410Y-68100000D02*
X161900000Y-68100000D01*
X161900000Y-68100000D02*
X161700000Y-68300000D01*
X132940000Y-59960000D02*
X132940000Y-57760000D01*
X132940000Y-57760000D02*
X134200000Y-56500000D01*
X150724999Y-61264999D02*
X151900000Y-62440000D01*
X148985997Y-61264999D02*
X150724999Y-61264999D01*
X144220998Y-56500000D02*
X148985997Y-61264999D01*
X134200000Y-56500000D02*
X144220998Y-56500000D01*
X211300000Y-85800000D02*
X194800000Y-69300000D01*
X161300000Y-69300000D02*
X151900000Y-59900000D01*
X194800000Y-69300000D02*
X161300000Y-69300000D01*
X130400000Y-59960000D02*
X130400000Y-57200000D01*
X130400000Y-57200000D02*
X132100000Y-55500000D01*
X147500000Y-55500000D02*
X151900000Y-59900000D01*
X132100000Y-55500000D02*
X147500000Y-55500000D01*
X151400998Y-71300000D02*
X190000000Y-71300000D01*
X149360000Y-70060000D02*
X150160998Y-70060000D01*
X150160998Y-70060000D02*
X151400998Y-71300000D01*
X196800000Y-56900000D02*
X200000000Y-56900000D01*
M02*
