M48
; DRILL file {KiCad 5.1.10-88a1d61d58~88~ubuntu18.04.1} date Sat Aug  7 15:15:12 2021
; FORMAT={-:-/ absolute / inch / decimal}
; #@! TF.CreationDate,2021-08-07T15:15:12-07:00
; #@! TF.GenerationSoftware,Kicad,Pcbnew,5.1.10-88a1d61d58~88~ubuntu18.04.1
; #@! TF.FileFunction,Plated,1,2,PTH
FMAT,2
INCH
T1C0.0157
T2C0.0315
T3C0.0394
T4C0.0409
%
G90
G05
T1
X5.0742Y-2.712
X5.4809Y-2.712
X5.748Y-2.9094
X5.8898Y-3.5354
X6.3661Y-2.689
X6.4055Y-3.3583
X6.5236Y-2.8622
X6.5709Y-4.2362
X6.752Y-2.6378
X7.0551Y-3.0433
X7.4803Y-2.8071
X7.5276Y-2.8937
X7.6063Y-3.0315
X7.748Y-2.2402
X7.8189Y-2.5709
X7.874Y-2.2402
X8.3543Y-3.2008
T2
X6.3228Y-3.7858
X6.3228Y-4.3858
X6.4228Y-3.7858
X6.4228Y-4.3858
X6.5228Y-3.7858
X6.5228Y-4.3858
X6.6228Y-3.7858
X6.6228Y-4.3858
X6.7228Y-3.7858
X6.7228Y-4.3858
X6.8228Y-3.7858
X6.8228Y-4.3858
X6.9228Y-3.7858
X6.9228Y-4.3858
X7.0228Y-3.7858
X7.0228Y-4.3858
X7.1228Y-3.7858
X7.1228Y-4.3858
X7.2228Y-3.7858
X7.2228Y-4.3858
X7.3228Y-3.7858
X7.3228Y-4.3858
X7.4228Y-3.7858
X7.4228Y-4.3858
X7.5228Y-3.7858
X7.5228Y-4.3858
X7.6228Y-3.7858
X7.6228Y-4.3858
X7.7228Y-3.7858
X7.7228Y-4.3858
X7.8228Y-3.7858
X7.8228Y-4.3858
X7.9228Y-3.7858
X7.9228Y-4.3858
X8.0228Y-3.7858
X8.0228Y-4.3858
X8.1228Y-3.7858
X8.1228Y-4.3858
X8.2228Y-3.7858
X8.2228Y-4.3858
X8.3228Y-3.7858
X8.3228Y-4.3858
X8.4228Y-3.7858
X8.4228Y-4.3858
X8.5228Y-3.7858
X8.5228Y-4.3858
X8.6228Y-3.7858
X8.6228Y-4.3858
T3
X3.3583Y-2.3583
X3.3583Y-2.4583
X3.4583Y-2.3583
X3.4583Y-2.4583
X3.7953Y-2.3504
X3.8953Y-2.3504
X3.9953Y-2.3504
X4.0953Y-2.3504
X4.5276Y-2.3583
X4.5276Y-2.4583
X4.6276Y-2.3583
X4.6276Y-2.4583
X5.1339Y-2.3606
X5.1339Y-2.4606
X5.2339Y-2.3606
X5.2339Y-2.4606
X5.3339Y-2.3606
X5.3339Y-2.4606
X5.4339Y-2.3606
X5.4339Y-2.4606
X5.8803Y-2.3583
X5.8803Y-2.4583
X5.8803Y-2.5583
X5.8803Y-2.6583
X5.8803Y-2.7583
X5.8803Y-2.8583
X5.8803Y-2.9583
X5.9803Y-2.3583
X5.9803Y-2.4583
X5.9803Y-2.5583
X5.9803Y-2.6583
X5.9803Y-2.7583
X5.9803Y-2.8583
X5.9803Y-2.9583
X8.937Y-4.5079
X9.3307Y-4.5079
T4
X7.4189Y-2.378
X7.4189Y-3.378
X7.5189Y-2.378
X7.5189Y-3.378
X7.6189Y-2.378
X7.6189Y-3.378
X7.7189Y-2.378
X7.7189Y-3.378
X7.8189Y-2.378
X7.8189Y-3.378
X7.9189Y-2.378
X7.9189Y-3.378
X8.0189Y-2.378
X8.0189Y-3.378
X8.1189Y-2.378
X8.1189Y-3.378
X8.2189Y-2.378
X8.2189Y-3.378
X8.3189Y-2.378
X8.3189Y-3.378
X8.4189Y-2.378
X8.4189Y-3.378
X8.5189Y-2.378
X8.5189Y-3.378
X8.6189Y-2.378
X8.6189Y-3.378
X8.7189Y-2.378
X8.7189Y-3.378
X8.8189Y-2.378
X8.8189Y-3.378
X8.9189Y-2.378
X8.9189Y-3.378
X9.0189Y-2.378
X9.0189Y-3.378
X9.1189Y-2.378
X9.1189Y-3.378
X9.2189Y-2.378
X9.2189Y-3.378
T0
M30
