G04 #@! TF.GenerationSoftware,KiCad,Pcbnew,5.1.10-88a1d61d58~88~ubuntu18.04.1*
G04 #@! TF.CreationDate,2021-08-07T15:14:50-07:00*
G04 #@! TF.ProjectId,apple2idiot_new,6170706c-6532-4696-9469-6f745f6e6577,1.1*
G04 #@! TF.SameCoordinates,Original*
G04 #@! TF.FileFunction,Soldermask,Bot*
G04 #@! TF.FilePolarity,Negative*
%FSLAX46Y46*%
G04 Gerber Fmt 4.6, Leading zero omitted, Abs format (unit mm)*
G04 Created by KiCad (PCBNEW 5.1.10-88a1d61d58~88~ubuntu18.04.1) date 2021-08-07 15:14:50*
%MOMM*%
%LPD*%
G01*
G04 APERTURE LIST*
%ADD10C,0.100000*%
%ADD11C,1.662000*%
%ADD12O,1.702000X2.502000*%
%ADD13O,1.802000X1.802000*%
%ADD14C,2.102000*%
G04 APERTURE END LIST*
D10*
G36*
X167857000Y-124690000D02*
G01*
X167857000Y-132310000D01*
X168873000Y-132310000D01*
X168873000Y-124690000D01*
X167857000Y-124690000D01*
G37*
G36*
X233643000Y-124690000D02*
G01*
X232627000Y-124690000D01*
X232627000Y-132310000D01*
X233643000Y-132310000D01*
X233643000Y-124690000D01*
G37*
G36*
X167857000Y-124690000D02*
G01*
X167857000Y-132310000D01*
X168873000Y-132310000D01*
X168873000Y-124690000D01*
X167857000Y-124690000D01*
G37*
G36*
X233643000Y-124690000D02*
G01*
X232627000Y-124690000D01*
X232627000Y-132310000D01*
X233643000Y-132310000D01*
X233643000Y-124690000D01*
G37*
D11*
X234160000Y-60400000D03*
X231620000Y-60400000D03*
X229080000Y-60400000D03*
X226540000Y-60400000D03*
X224000000Y-60400000D03*
X221460000Y-60400000D03*
X218920000Y-60400000D03*
X216380000Y-60400000D03*
X213840000Y-60400000D03*
X211300000Y-60400000D03*
X208760000Y-60400000D03*
X206220000Y-60400000D03*
X203680000Y-60400000D03*
X201140000Y-60400000D03*
X198600000Y-60400000D03*
X196060000Y-60400000D03*
X193520000Y-60400000D03*
X190980000Y-60400000D03*
X188440000Y-60400000D03*
X231620000Y-85800000D03*
X229080000Y-85800000D03*
X226540000Y-85800000D03*
X224000000Y-85800000D03*
X221460000Y-85800000D03*
X218920000Y-85800000D03*
X216380000Y-85800000D03*
X213840000Y-85800000D03*
X211300000Y-85800000D03*
X208760000Y-85800000D03*
X206220000Y-85800000D03*
X203680000Y-85800000D03*
X201140000Y-85800000D03*
X198600000Y-85800000D03*
X196060000Y-85800000D03*
X193520000Y-85800000D03*
X234160000Y-85800000D03*
X190980000Y-85800000D03*
G36*
G01*
X189220000Y-86631000D02*
X187660000Y-86631000D01*
G75*
G02*
X187609000Y-86580000I0J51000D01*
G01*
X187609000Y-85020000D01*
G75*
G02*
X187660000Y-84969000I51000J0D01*
G01*
X189220000Y-84969000D01*
G75*
G02*
X189271000Y-85020000I0J-51000D01*
G01*
X189271000Y-86580000D01*
G75*
G02*
X189220000Y-86631000I-51000J0D01*
G01*
G37*
D12*
X160600000Y-96160000D03*
X219020000Y-111400000D03*
X163140000Y-96160000D03*
X216480000Y-111400000D03*
X165680000Y-96160000D03*
X213940000Y-111400000D03*
X168220000Y-96160000D03*
X211400000Y-111400000D03*
X170760000Y-96160000D03*
X208860000Y-111400000D03*
X173300000Y-96160000D03*
X206320000Y-111400000D03*
X175840000Y-96160000D03*
X203780000Y-111400000D03*
X178380000Y-96160000D03*
X201240000Y-111400000D03*
X180920000Y-96160000D03*
X198700000Y-111400000D03*
X183460000Y-96160000D03*
X196160000Y-111400000D03*
X186000000Y-96160000D03*
X193620000Y-111400000D03*
X188540000Y-96160000D03*
X191080000Y-111400000D03*
X191080000Y-96160000D03*
X188540000Y-111400000D03*
X193620000Y-96160000D03*
X186000000Y-111400000D03*
X196160000Y-96160000D03*
X183460000Y-111400000D03*
X198700000Y-96160000D03*
X180920000Y-111400000D03*
X201240000Y-96160000D03*
X178380000Y-111400000D03*
X203780000Y-96160000D03*
X175840000Y-111400000D03*
X206320000Y-96160000D03*
X173300000Y-111400000D03*
X208860000Y-96160000D03*
X170760000Y-111400000D03*
X211400000Y-96160000D03*
X168220000Y-111400000D03*
X213940000Y-96160000D03*
X165680000Y-111400000D03*
X216480000Y-96160000D03*
X163140000Y-111400000D03*
X219020000Y-96160000D03*
G36*
G01*
X161400000Y-112651000D02*
X159800000Y-112651000D01*
G75*
G02*
X159749000Y-112600000I0J51000D01*
G01*
X159749000Y-110200000D01*
G75*
G02*
X159800000Y-110149000I51000J0D01*
G01*
X161400000Y-110149000D01*
G75*
G02*
X161451000Y-110200000I0J-51000D01*
G01*
X161451000Y-112600000D01*
G75*
G02*
X161400000Y-112651000I-51000J0D01*
G01*
G37*
D13*
X149360000Y-75140000D03*
X151900000Y-75140000D03*
X149360000Y-72600000D03*
X151900000Y-72600000D03*
X149360000Y-70060000D03*
X151900000Y-70060000D03*
X149360000Y-67520000D03*
X151900000Y-67520000D03*
X149360000Y-64980000D03*
X151900000Y-64980000D03*
X149360000Y-62440000D03*
X151900000Y-62440000D03*
X149360000Y-59900000D03*
G36*
G01*
X150999000Y-60750000D02*
X150999000Y-59050000D01*
G75*
G02*
X151050000Y-58999000I51000J0D01*
G01*
X152750000Y-58999000D01*
G75*
G02*
X152801000Y-59050000I0J-51000D01*
G01*
X152801000Y-60750000D01*
G75*
G02*
X152750000Y-60801000I-51000J0D01*
G01*
X151050000Y-60801000D01*
G75*
G02*
X150999000Y-60750000I0J51000D01*
G01*
G37*
X138020000Y-59960000D03*
X138020000Y-62500000D03*
X135480000Y-59960000D03*
X135480000Y-62500000D03*
X132940000Y-59960000D03*
X132940000Y-62500000D03*
X130400000Y-59960000D03*
G36*
G01*
X131250000Y-63401000D02*
X129550000Y-63401000D01*
G75*
G02*
X129499000Y-63350000I0J51000D01*
G01*
X129499000Y-61650000D01*
G75*
G02*
X129550000Y-61599000I51000J0D01*
G01*
X131250000Y-61599000D01*
G75*
G02*
X131301000Y-61650000I0J-51000D01*
G01*
X131301000Y-63350000D01*
G75*
G02*
X131250000Y-63401000I-51000J0D01*
G01*
G37*
X117540000Y-62440000D03*
X115000000Y-62440000D03*
X117540000Y-59900000D03*
G36*
G01*
X114099000Y-60750000D02*
X114099000Y-59050000D01*
G75*
G02*
X114150000Y-58999000I51000J0D01*
G01*
X115850000Y-58999000D01*
G75*
G02*
X115901000Y-59050000I0J-51000D01*
G01*
X115901000Y-60750000D01*
G75*
G02*
X115850000Y-60801000I-51000J0D01*
G01*
X114150000Y-60801000D01*
G75*
G02*
X114099000Y-60750000I0J51000D01*
G01*
G37*
X104020000Y-59700000D03*
X101480000Y-59700000D03*
X98940000Y-59700000D03*
G36*
G01*
X97250000Y-60601000D02*
X95550000Y-60601000D01*
G75*
G02*
X95499000Y-60550000I0J51000D01*
G01*
X95499000Y-58850000D01*
G75*
G02*
X95550000Y-58799000I51000J0D01*
G01*
X97250000Y-58799000D01*
G75*
G02*
X97301000Y-58850000I0J-51000D01*
G01*
X97301000Y-60550000D01*
G75*
G02*
X97250000Y-60601000I-51000J0D01*
G01*
G37*
X87840000Y-62440000D03*
X85300000Y-62440000D03*
X87840000Y-59900000D03*
G36*
G01*
X84399000Y-60750000D02*
X84399000Y-59050000D01*
G75*
G02*
X84450000Y-58999000I51000J0D01*
G01*
X86150000Y-58999000D01*
G75*
G02*
X86201000Y-59050000I0J-51000D01*
G01*
X86201000Y-60750000D01*
G75*
G02*
X86150000Y-60801000I-51000J0D01*
G01*
X84450000Y-60801000D01*
G75*
G02*
X84399000Y-60750000I0J51000D01*
G01*
G37*
G36*
G01*
X229833000Y-131675000D02*
X229833000Y-125325000D01*
G75*
G02*
X230468000Y-124690000I635000J0D01*
G01*
X231992000Y-124690000D01*
G75*
G02*
X232627000Y-125325000I0J-635000D01*
G01*
X232627000Y-131675000D01*
G75*
G02*
X231992000Y-132310000I-635000J0D01*
G01*
X230468000Y-132310000D01*
G75*
G02*
X229833000Y-131675000I0J635000D01*
G01*
G37*
G36*
G01*
X227293000Y-131675000D02*
X227293000Y-125325000D01*
G75*
G02*
X227928000Y-124690000I635000J0D01*
G01*
X229452000Y-124690000D01*
G75*
G02*
X230087000Y-125325000I0J-635000D01*
G01*
X230087000Y-131675000D01*
G75*
G02*
X229452000Y-132310000I-635000J0D01*
G01*
X227928000Y-132310000D01*
G75*
G02*
X227293000Y-131675000I0J635000D01*
G01*
G37*
G36*
G01*
X224753000Y-131675000D02*
X224753000Y-125325000D01*
G75*
G02*
X225388000Y-124690000I635000J0D01*
G01*
X226912000Y-124690000D01*
G75*
G02*
X227547000Y-125325000I0J-635000D01*
G01*
X227547000Y-131675000D01*
G75*
G02*
X226912000Y-132310000I-635000J0D01*
G01*
X225388000Y-132310000D01*
G75*
G02*
X224753000Y-131675000I0J635000D01*
G01*
G37*
G36*
G01*
X222213000Y-131675000D02*
X222213000Y-125325000D01*
G75*
G02*
X222848000Y-124690000I635000J0D01*
G01*
X224372000Y-124690000D01*
G75*
G02*
X225007000Y-125325000I0J-635000D01*
G01*
X225007000Y-131675000D01*
G75*
G02*
X224372000Y-132310000I-635000J0D01*
G01*
X222848000Y-132310000D01*
G75*
G02*
X222213000Y-131675000I0J635000D01*
G01*
G37*
G36*
G01*
X219673000Y-131675000D02*
X219673000Y-125325000D01*
G75*
G02*
X220308000Y-124690000I635000J0D01*
G01*
X221832000Y-124690000D01*
G75*
G02*
X222467000Y-125325000I0J-635000D01*
G01*
X222467000Y-131675000D01*
G75*
G02*
X221832000Y-132310000I-635000J0D01*
G01*
X220308000Y-132310000D01*
G75*
G02*
X219673000Y-131675000I0J635000D01*
G01*
G37*
G36*
G01*
X217133000Y-131675000D02*
X217133000Y-125325000D01*
G75*
G02*
X217768000Y-124690000I635000J0D01*
G01*
X219292000Y-124690000D01*
G75*
G02*
X219927000Y-125325000I0J-635000D01*
G01*
X219927000Y-131675000D01*
G75*
G02*
X219292000Y-132310000I-635000J0D01*
G01*
X217768000Y-132310000D01*
G75*
G02*
X217133000Y-131675000I0J635000D01*
G01*
G37*
G36*
G01*
X214593000Y-131675000D02*
X214593000Y-125325000D01*
G75*
G02*
X215228000Y-124690000I635000J0D01*
G01*
X216752000Y-124690000D01*
G75*
G02*
X217387000Y-125325000I0J-635000D01*
G01*
X217387000Y-131675000D01*
G75*
G02*
X216752000Y-132310000I-635000J0D01*
G01*
X215228000Y-132310000D01*
G75*
G02*
X214593000Y-131675000I0J635000D01*
G01*
G37*
G36*
G01*
X212053000Y-131675000D02*
X212053000Y-125325000D01*
G75*
G02*
X212688000Y-124690000I635000J0D01*
G01*
X214212000Y-124690000D01*
G75*
G02*
X214847000Y-125325000I0J-635000D01*
G01*
X214847000Y-131675000D01*
G75*
G02*
X214212000Y-132310000I-635000J0D01*
G01*
X212688000Y-132310000D01*
G75*
G02*
X212053000Y-131675000I0J635000D01*
G01*
G37*
G36*
G01*
X209513000Y-131675000D02*
X209513000Y-125325000D01*
G75*
G02*
X210148000Y-124690000I635000J0D01*
G01*
X211672000Y-124690000D01*
G75*
G02*
X212307000Y-125325000I0J-635000D01*
G01*
X212307000Y-131675000D01*
G75*
G02*
X211672000Y-132310000I-635000J0D01*
G01*
X210148000Y-132310000D01*
G75*
G02*
X209513000Y-131675000I0J635000D01*
G01*
G37*
G36*
G01*
X206973000Y-131675000D02*
X206973000Y-125325000D01*
G75*
G02*
X207608000Y-124690000I635000J0D01*
G01*
X209132000Y-124690000D01*
G75*
G02*
X209767000Y-125325000I0J-635000D01*
G01*
X209767000Y-131675000D01*
G75*
G02*
X209132000Y-132310000I-635000J0D01*
G01*
X207608000Y-132310000D01*
G75*
G02*
X206973000Y-131675000I0J635000D01*
G01*
G37*
G36*
G01*
X204433000Y-131675000D02*
X204433000Y-125325000D01*
G75*
G02*
X205068000Y-124690000I635000J0D01*
G01*
X206592000Y-124690000D01*
G75*
G02*
X207227000Y-125325000I0J-635000D01*
G01*
X207227000Y-131675000D01*
G75*
G02*
X206592000Y-132310000I-635000J0D01*
G01*
X205068000Y-132310000D01*
G75*
G02*
X204433000Y-131675000I0J635000D01*
G01*
G37*
G36*
G01*
X201893000Y-131675000D02*
X201893000Y-125325000D01*
G75*
G02*
X202528000Y-124690000I635000J0D01*
G01*
X204052000Y-124690000D01*
G75*
G02*
X204687000Y-125325000I0J-635000D01*
G01*
X204687000Y-131675000D01*
G75*
G02*
X204052000Y-132310000I-635000J0D01*
G01*
X202528000Y-132310000D01*
G75*
G02*
X201893000Y-131675000I0J635000D01*
G01*
G37*
G36*
G01*
X199353000Y-131675000D02*
X199353000Y-125325000D01*
G75*
G02*
X199988000Y-124690000I635000J0D01*
G01*
X201512000Y-124690000D01*
G75*
G02*
X202147000Y-125325000I0J-635000D01*
G01*
X202147000Y-131675000D01*
G75*
G02*
X201512000Y-132310000I-635000J0D01*
G01*
X199988000Y-132310000D01*
G75*
G02*
X199353000Y-131675000I0J635000D01*
G01*
G37*
G36*
G01*
X196813000Y-131675000D02*
X196813000Y-125325000D01*
G75*
G02*
X197448000Y-124690000I635000J0D01*
G01*
X198972000Y-124690000D01*
G75*
G02*
X199607000Y-125325000I0J-635000D01*
G01*
X199607000Y-131675000D01*
G75*
G02*
X198972000Y-132310000I-635000J0D01*
G01*
X197448000Y-132310000D01*
G75*
G02*
X196813000Y-131675000I0J635000D01*
G01*
G37*
G36*
G01*
X194273000Y-131675000D02*
X194273000Y-125325000D01*
G75*
G02*
X194908000Y-124690000I635000J0D01*
G01*
X196432000Y-124690000D01*
G75*
G02*
X197067000Y-125325000I0J-635000D01*
G01*
X197067000Y-131675000D01*
G75*
G02*
X196432000Y-132310000I-635000J0D01*
G01*
X194908000Y-132310000D01*
G75*
G02*
X194273000Y-131675000I0J635000D01*
G01*
G37*
G36*
G01*
X191733000Y-131675000D02*
X191733000Y-125325000D01*
G75*
G02*
X192368000Y-124690000I635000J0D01*
G01*
X193892000Y-124690000D01*
G75*
G02*
X194527000Y-125325000I0J-635000D01*
G01*
X194527000Y-131675000D01*
G75*
G02*
X193892000Y-132310000I-635000J0D01*
G01*
X192368000Y-132310000D01*
G75*
G02*
X191733000Y-131675000I0J635000D01*
G01*
G37*
G36*
G01*
X189193000Y-131675000D02*
X189193000Y-125325000D01*
G75*
G02*
X189828000Y-124690000I635000J0D01*
G01*
X191352000Y-124690000D01*
G75*
G02*
X191987000Y-125325000I0J-635000D01*
G01*
X191987000Y-131675000D01*
G75*
G02*
X191352000Y-132310000I-635000J0D01*
G01*
X189828000Y-132310000D01*
G75*
G02*
X189193000Y-131675000I0J635000D01*
G01*
G37*
G36*
G01*
X186653000Y-131675000D02*
X186653000Y-125325000D01*
G75*
G02*
X187288000Y-124690000I635000J0D01*
G01*
X188812000Y-124690000D01*
G75*
G02*
X189447000Y-125325000I0J-635000D01*
G01*
X189447000Y-131675000D01*
G75*
G02*
X188812000Y-132310000I-635000J0D01*
G01*
X187288000Y-132310000D01*
G75*
G02*
X186653000Y-131675000I0J635000D01*
G01*
G37*
G36*
G01*
X184113000Y-131675000D02*
X184113000Y-125325000D01*
G75*
G02*
X184748000Y-124690000I635000J0D01*
G01*
X186272000Y-124690000D01*
G75*
G02*
X186907000Y-125325000I0J-635000D01*
G01*
X186907000Y-131675000D01*
G75*
G02*
X186272000Y-132310000I-635000J0D01*
G01*
X184748000Y-132310000D01*
G75*
G02*
X184113000Y-131675000I0J635000D01*
G01*
G37*
G36*
G01*
X181573000Y-131675000D02*
X181573000Y-125325000D01*
G75*
G02*
X182208000Y-124690000I635000J0D01*
G01*
X183732000Y-124690000D01*
G75*
G02*
X184367000Y-125325000I0J-635000D01*
G01*
X184367000Y-131675000D01*
G75*
G02*
X183732000Y-132310000I-635000J0D01*
G01*
X182208000Y-132310000D01*
G75*
G02*
X181573000Y-131675000I0J635000D01*
G01*
G37*
G36*
G01*
X179033000Y-131675000D02*
X179033000Y-125325000D01*
G75*
G02*
X179668000Y-124690000I635000J0D01*
G01*
X181192000Y-124690000D01*
G75*
G02*
X181827000Y-125325000I0J-635000D01*
G01*
X181827000Y-131675000D01*
G75*
G02*
X181192000Y-132310000I-635000J0D01*
G01*
X179668000Y-132310000D01*
G75*
G02*
X179033000Y-131675000I0J635000D01*
G01*
G37*
G36*
G01*
X176493000Y-131675000D02*
X176493000Y-125325000D01*
G75*
G02*
X177128000Y-124690000I635000J0D01*
G01*
X178652000Y-124690000D01*
G75*
G02*
X179287000Y-125325000I0J-635000D01*
G01*
X179287000Y-131675000D01*
G75*
G02*
X178652000Y-132310000I-635000J0D01*
G01*
X177128000Y-132310000D01*
G75*
G02*
X176493000Y-131675000I0J635000D01*
G01*
G37*
G36*
G01*
X173953000Y-131675000D02*
X173953000Y-125325000D01*
G75*
G02*
X174588000Y-124690000I635000J0D01*
G01*
X176112000Y-124690000D01*
G75*
G02*
X176747000Y-125325000I0J-635000D01*
G01*
X176747000Y-131675000D01*
G75*
G02*
X176112000Y-132310000I-635000J0D01*
G01*
X174588000Y-132310000D01*
G75*
G02*
X173953000Y-131675000I0J635000D01*
G01*
G37*
G36*
G01*
X171413000Y-131675000D02*
X171413000Y-125325000D01*
G75*
G02*
X172048000Y-124690000I635000J0D01*
G01*
X173572000Y-124690000D01*
G75*
G02*
X174207000Y-125325000I0J-635000D01*
G01*
X174207000Y-131675000D01*
G75*
G02*
X173572000Y-132310000I-635000J0D01*
G01*
X172048000Y-132310000D01*
G75*
G02*
X171413000Y-131675000I0J635000D01*
G01*
G37*
G36*
G01*
X168873000Y-131675000D02*
X168873000Y-125325000D01*
G75*
G02*
X169508000Y-124690000I635000J0D01*
G01*
X171032000Y-124690000D01*
G75*
G02*
X171667000Y-125325000I0J-635000D01*
G01*
X171667000Y-131675000D01*
G75*
G02*
X171032000Y-132310000I-635000J0D01*
G01*
X169508000Y-132310000D01*
G75*
G02*
X168873000Y-131675000I0J635000D01*
G01*
G37*
D14*
X237000000Y-114500000D03*
X227000000Y-114500000D03*
M02*
