G04 #@! TF.GenerationSoftware,KiCad,Pcbnew,5.1.10-88a1d61d58~88~ubuntu18.04.1*
G04 #@! TF.CreationDate,2021-08-07T15:14:50-07:00*
G04 #@! TF.ProjectId,apple2idiot_new,6170706c-6532-4696-9469-6f745f6e6577,1.1*
G04 #@! TF.SameCoordinates,Original*
G04 #@! TF.FileFunction,Other,Fab,Top*
%FSLAX46Y46*%
G04 Gerber Fmt 4.6, Leading zero omitted, Abs format (unit mm)*
G04 Created by KiCad (PCBNEW 5.1.10-88a1d61d58~88~ubuntu18.04.1) date 2021-08-07 15:14:50*
%MOMM*%
%LPD*%
G01*
G04 APERTURE LIST*
%ADD10C,0.127000*%
%ADD11C,0.280000*%
%ADD12C,0.100000*%
%ADD13C,0.150000*%
G04 APERTURE END LIST*
D10*
X181050000Y-87050000D02*
X181050000Y-59150000D01*
X181050000Y-59150000D02*
X235450000Y-59150000D01*
X235450000Y-59150000D02*
X235450000Y-87050000D01*
X235450000Y-87050000D02*
X181050000Y-87050000D01*
D11*
X188440000Y-87700000D02*
G75*
G03*
X188440000Y-87700000I-140000J0D01*
G01*
X188440000Y-87700000D02*
G75*
G03*
X188440000Y-87700000I-140000J0D01*
G01*
D12*
X159330000Y-110145000D02*
X159330000Y-96415000D01*
X159330000Y-96415000D02*
X220290000Y-96415000D01*
X220290000Y-96415000D02*
X220290000Y-111145000D01*
X220290000Y-111145000D02*
X160330000Y-111145000D01*
X160330000Y-111145000D02*
X159330000Y-110145000D01*
X148090000Y-58630000D02*
X152170000Y-58630000D01*
X152170000Y-58630000D02*
X153170000Y-59630000D01*
X153170000Y-59630000D02*
X153170000Y-76410000D01*
X153170000Y-76410000D02*
X148090000Y-76410000D01*
X148090000Y-76410000D02*
X148090000Y-58630000D01*
X129130000Y-62500000D02*
X129130000Y-58690000D01*
X129130000Y-58690000D02*
X139290000Y-58690000D01*
X139290000Y-58690000D02*
X139290000Y-63770000D01*
X139290000Y-63770000D02*
X130400000Y-63770000D01*
X130400000Y-63770000D02*
X129130000Y-62500000D01*
X115000000Y-58630000D02*
X118810000Y-58630000D01*
X118810000Y-58630000D02*
X118810000Y-63710000D01*
X118810000Y-63710000D02*
X113730000Y-63710000D01*
X113730000Y-63710000D02*
X113730000Y-59900000D01*
X113730000Y-59900000D02*
X115000000Y-58630000D01*
X95130000Y-60970000D02*
X95130000Y-59065000D01*
X95130000Y-59065000D02*
X95765000Y-58430000D01*
X95765000Y-58430000D02*
X105290000Y-58430000D01*
X105290000Y-58430000D02*
X105290000Y-60970000D01*
X105290000Y-60970000D02*
X95130000Y-60970000D01*
X85300000Y-58630000D02*
X89110000Y-58630000D01*
X89110000Y-58630000D02*
X89110000Y-63710000D01*
X89110000Y-63710000D02*
X84030000Y-63710000D01*
X84030000Y-63710000D02*
X84030000Y-59900000D01*
X84030000Y-59900000D02*
X85300000Y-58630000D01*
X226750000Y-112000000D02*
X226750000Y-117000000D01*
X226750000Y-117000000D02*
X237250000Y-117000000D01*
X237250000Y-117000000D02*
X237250000Y-112000000D01*
X237250000Y-112000000D02*
X226750000Y-112000000D01*
D13*
X236423031Y-79700174D02*
X236423031Y-79366492D01*
X236947389Y-79223485D02*
X236947389Y-79700174D01*
X235946342Y-79700174D01*
X235946342Y-79223485D01*
X236899720Y-78842134D02*
X236947389Y-78699127D01*
X236947389Y-78460783D01*
X236899720Y-78365445D01*
X236852051Y-78317776D01*
X236756713Y-78270107D01*
X236661376Y-78270107D01*
X236566038Y-78317776D01*
X236518369Y-78365445D01*
X236470700Y-78460783D01*
X236423031Y-78651458D01*
X236375362Y-78746796D01*
X236327693Y-78794465D01*
X236232356Y-78842134D01*
X236137018Y-78842134D01*
X236041680Y-78794465D01*
X235994011Y-78746796D01*
X235946342Y-78651458D01*
X235946342Y-78413114D01*
X235994011Y-78270107D01*
X236947389Y-77841087D02*
X235946342Y-77841087D01*
X235946342Y-77459736D01*
X235994011Y-77364398D01*
X236041680Y-77316729D01*
X236137018Y-77269060D01*
X236280024Y-77269060D01*
X236375362Y-77316729D01*
X236423031Y-77364398D01*
X236470700Y-77459736D01*
X236470700Y-77841087D01*
X235946342Y-76935378D02*
X235946342Y-76315682D01*
X236327693Y-76649364D01*
X236327693Y-76506358D01*
X236375362Y-76411020D01*
X236423031Y-76363351D01*
X236518369Y-76315682D01*
X236756713Y-76315682D01*
X236852051Y-76363351D01*
X236899720Y-76411020D01*
X236947389Y-76506358D01*
X236947389Y-76792371D01*
X236899720Y-76887709D01*
X236852051Y-76935378D01*
X236041680Y-75934331D02*
X235994011Y-75886662D01*
X235946342Y-75791324D01*
X235946342Y-75552980D01*
X235994011Y-75457642D01*
X236041680Y-75409973D01*
X236137018Y-75362304D01*
X236232356Y-75362304D01*
X236375362Y-75409973D01*
X236947389Y-75982000D01*
X236947389Y-75362304D01*
X236566038Y-74933284D02*
X236566038Y-74170581D01*
X236947389Y-73693892D02*
X235946342Y-73693892D01*
X235946342Y-73455548D01*
X235994011Y-73312541D01*
X236089349Y-73217203D01*
X236184687Y-73169534D01*
X236375362Y-73121865D01*
X236518369Y-73121865D01*
X236709045Y-73169534D01*
X236804382Y-73217203D01*
X236899720Y-73312541D01*
X236947389Y-73455548D01*
X236947389Y-73693892D01*
X236423031Y-72692845D02*
X236423031Y-72359163D01*
X236947389Y-72216156D02*
X236947389Y-72692845D01*
X235946342Y-72692845D01*
X235946342Y-72216156D01*
X235946342Y-71930143D02*
X236947389Y-71596461D01*
X235946342Y-71262778D01*
X236947389Y-70929096D02*
X235946342Y-70929096D01*
X236947389Y-70357069D02*
X236375362Y-70786089D01*
X235946342Y-70357069D02*
X236518369Y-70929096D01*
X236947389Y-69928049D02*
X235946342Y-69928049D01*
X235946342Y-69594367D02*
X235946342Y-69022340D01*
X236947389Y-69308353D02*
X235946342Y-69308353D01*
X236852051Y-68116630D02*
X236899720Y-68164299D01*
X236947389Y-68307306D01*
X236947389Y-68402644D01*
X236899720Y-68545651D01*
X236804382Y-68640988D01*
X236709045Y-68688657D01*
X236518369Y-68736326D01*
X236375362Y-68736326D01*
X236184687Y-68688657D01*
X236089349Y-68640988D01*
X235994011Y-68545651D01*
X235946342Y-68402644D01*
X235946342Y-68307306D01*
X235994011Y-68164299D01*
X236041680Y-68116630D01*
X236566038Y-67687610D02*
X236566038Y-66924908D01*
X235946342Y-66543557D02*
X235946342Y-65923861D01*
X236327693Y-66257543D01*
X236327693Y-66114536D01*
X236375362Y-66019199D01*
X236423031Y-65971530D01*
X236518369Y-65923861D01*
X236756713Y-65923861D01*
X236852051Y-65971530D01*
X236899720Y-66019199D01*
X236947389Y-66114536D01*
X236947389Y-66400550D01*
X236899720Y-66495888D01*
X236852051Y-66543557D01*
X236041680Y-65542510D02*
X235994011Y-65494841D01*
X235946342Y-65399503D01*
X235946342Y-65161158D01*
X235994011Y-65065821D01*
X236041680Y-65018152D01*
X236137018Y-64970483D01*
X236232356Y-64970483D01*
X236375362Y-65018152D01*
X236947389Y-65590179D01*
X236947389Y-64970483D01*
X236947389Y-64541463D02*
X235946342Y-64541463D01*
X235946342Y-64303118D01*
X235994011Y-64160111D01*
X236089349Y-64064774D01*
X236184687Y-64017105D01*
X236375362Y-63969436D01*
X236518369Y-63969436D01*
X236709045Y-64017105D01*
X236804382Y-64064774D01*
X236899720Y-64160111D01*
X236947389Y-64303118D01*
X236947389Y-64541463D01*
X221802380Y-106565714D02*
X220802380Y-106565714D01*
X221802380Y-106089523D02*
X220802380Y-106089523D01*
X220802380Y-105851428D01*
X220850000Y-105708571D01*
X220945238Y-105613333D01*
X221040476Y-105565714D01*
X221230952Y-105518095D01*
X221373809Y-105518095D01*
X221564285Y-105565714D01*
X221659523Y-105613333D01*
X221754761Y-105708571D01*
X221802380Y-105851428D01*
X221802380Y-106089523D01*
X220802380Y-105232380D02*
X220802380Y-104660952D01*
X221802380Y-104946666D02*
X220802380Y-104946666D01*
X220802380Y-104422857D02*
X220802380Y-103756190D01*
X221802380Y-104184761D01*
X221802380Y-102851428D02*
X221802380Y-103422857D01*
X221802380Y-103137142D02*
X220802380Y-103137142D01*
X220945238Y-103232380D01*
X221040476Y-103327619D01*
X221088095Y-103422857D01*
X220802380Y-102518095D02*
X220802380Y-101899047D01*
X221183333Y-102232380D01*
X221183333Y-102089523D01*
X221230952Y-101994285D01*
X221278571Y-101946666D01*
X221373809Y-101899047D01*
X221611904Y-101899047D01*
X221707142Y-101946666D01*
X221754761Y-101994285D01*
X221802380Y-102089523D01*
X221802380Y-102375238D01*
X221754761Y-102470476D01*
X221707142Y-102518095D01*
X220897619Y-101518095D02*
X220850000Y-101470476D01*
X220802380Y-101375238D01*
X220802380Y-101137142D01*
X220850000Y-101041904D01*
X220897619Y-100994285D01*
X220992857Y-100946666D01*
X221088095Y-100946666D01*
X221230952Y-100994285D01*
X221802380Y-101565714D01*
X221802380Y-100946666D01*
X189262380Y-104541904D02*
X190071904Y-104541904D01*
X190167142Y-104494285D01*
X190214761Y-104446666D01*
X190262380Y-104351428D01*
X190262380Y-104160952D01*
X190214761Y-104065714D01*
X190167142Y-104018095D01*
X190071904Y-103970476D01*
X189262380Y-103970476D01*
X190262380Y-102970476D02*
X190262380Y-103541904D01*
X190262380Y-103256190D02*
X189262380Y-103256190D01*
X189405238Y-103351428D01*
X189500476Y-103446666D01*
X189548095Y-103541904D01*
X142987142Y-78267142D02*
X142939523Y-78314761D01*
X142796666Y-78362380D01*
X142701428Y-78362380D01*
X142558571Y-78314761D01*
X142463333Y-78219523D01*
X142415714Y-78124285D01*
X142368095Y-77933809D01*
X142368095Y-77790952D01*
X142415714Y-77600476D01*
X142463333Y-77505238D01*
X142558571Y-77410000D01*
X142701428Y-77362380D01*
X142796666Y-77362380D01*
X142939523Y-77410000D01*
X142987142Y-77457619D01*
X143558571Y-78362380D02*
X143463333Y-78314761D01*
X143415714Y-78267142D01*
X143368095Y-78171904D01*
X143368095Y-77886190D01*
X143415714Y-77790952D01*
X143463333Y-77743333D01*
X143558571Y-77695714D01*
X143701428Y-77695714D01*
X143796666Y-77743333D01*
X143844285Y-77790952D01*
X143891904Y-77886190D01*
X143891904Y-78171904D01*
X143844285Y-78267142D01*
X143796666Y-78314761D01*
X143701428Y-78362380D01*
X143558571Y-78362380D01*
X144320476Y-77695714D02*
X144320476Y-78362380D01*
X144320476Y-77790952D02*
X144368095Y-77743333D01*
X144463333Y-77695714D01*
X144606190Y-77695714D01*
X144701428Y-77743333D01*
X144749047Y-77838571D01*
X144749047Y-78362380D01*
X145225238Y-77695714D02*
X145225238Y-78362380D01*
X145225238Y-77790952D02*
X145272857Y-77743333D01*
X145368095Y-77695714D01*
X145510952Y-77695714D01*
X145606190Y-77743333D01*
X145653809Y-77838571D01*
X145653809Y-78362380D01*
X145891904Y-78457619D02*
X146653809Y-78457619D01*
X147082380Y-77362380D02*
X147177619Y-77362380D01*
X147272857Y-77410000D01*
X147320476Y-77457619D01*
X147368095Y-77552857D01*
X147415714Y-77743333D01*
X147415714Y-77981428D01*
X147368095Y-78171904D01*
X147320476Y-78267142D01*
X147272857Y-78314761D01*
X147177619Y-78362380D01*
X147082380Y-78362380D01*
X146987142Y-78314761D01*
X146939523Y-78267142D01*
X146891904Y-78171904D01*
X146844285Y-77981428D01*
X146844285Y-77743333D01*
X146891904Y-77552857D01*
X146939523Y-77457619D01*
X146987142Y-77410000D01*
X147082380Y-77362380D01*
X147796666Y-77457619D02*
X147844285Y-77410000D01*
X147939523Y-77362380D01*
X148177619Y-77362380D01*
X148272857Y-77410000D01*
X148320476Y-77457619D01*
X148368095Y-77552857D01*
X148368095Y-77648095D01*
X148320476Y-77790952D01*
X147749047Y-78362380D01*
X148368095Y-78362380D01*
X148701428Y-78362380D02*
X149225238Y-77695714D01*
X148701428Y-77695714D02*
X149225238Y-78362380D01*
X149796666Y-77362380D02*
X149891904Y-77362380D01*
X149987142Y-77410000D01*
X150034761Y-77457619D01*
X150082380Y-77552857D01*
X150130000Y-77743333D01*
X150130000Y-77981428D01*
X150082380Y-78171904D01*
X150034761Y-78267142D01*
X149987142Y-78314761D01*
X149891904Y-78362380D01*
X149796666Y-78362380D01*
X149701428Y-78314761D01*
X149653809Y-78267142D01*
X149606190Y-78171904D01*
X149558571Y-77981428D01*
X149558571Y-77743333D01*
X149606190Y-77552857D01*
X149653809Y-77457619D01*
X149701428Y-77410000D01*
X149796666Y-77362380D01*
X150463333Y-77362380D02*
X151130000Y-77362380D01*
X150701428Y-78362380D01*
X151272857Y-78457619D02*
X152034761Y-78457619D01*
X152463333Y-77362380D02*
X152653809Y-77362380D01*
X152749047Y-77410000D01*
X152844285Y-77505238D01*
X152891904Y-77695714D01*
X152891904Y-78029047D01*
X152844285Y-78219523D01*
X152749047Y-78314761D01*
X152653809Y-78362380D01*
X152463333Y-78362380D01*
X152368095Y-78314761D01*
X152272857Y-78219523D01*
X152225238Y-78029047D01*
X152225238Y-77695714D01*
X152272857Y-77505238D01*
X152368095Y-77410000D01*
X152463333Y-77362380D01*
X153749047Y-78362380D02*
X153749047Y-77362380D01*
X153749047Y-78314761D02*
X153653809Y-78362380D01*
X153463333Y-78362380D01*
X153368095Y-78314761D01*
X153320476Y-78267142D01*
X153272857Y-78171904D01*
X153272857Y-77886190D01*
X153320476Y-77790952D01*
X153368095Y-77743333D01*
X153463333Y-77695714D01*
X153653809Y-77695714D01*
X153749047Y-77743333D01*
X154653809Y-78362380D02*
X154653809Y-77362380D01*
X154653809Y-78314761D02*
X154558571Y-78362380D01*
X154368095Y-78362380D01*
X154272857Y-78314761D01*
X154225238Y-78267142D01*
X154177619Y-78171904D01*
X154177619Y-77886190D01*
X154225238Y-77790952D01*
X154272857Y-77743333D01*
X154368095Y-77695714D01*
X154558571Y-77695714D01*
X154653809Y-77743333D01*
X154891904Y-78457619D02*
X155653809Y-78457619D01*
X155891904Y-77838571D02*
X156225238Y-77838571D01*
X156368095Y-78362380D02*
X155891904Y-78362380D01*
X155891904Y-77362380D01*
X156368095Y-77362380D01*
X156701428Y-77695714D02*
X156939523Y-78362380D01*
X157177619Y-77695714D01*
X157939523Y-78314761D02*
X157844285Y-78362380D01*
X157653809Y-78362380D01*
X157558571Y-78314761D01*
X157510952Y-78219523D01*
X157510952Y-77838571D01*
X157558571Y-77743333D01*
X157653809Y-77695714D01*
X157844285Y-77695714D01*
X157939523Y-77743333D01*
X157987142Y-77838571D01*
X157987142Y-77933809D01*
X157510952Y-78029047D01*
X158415714Y-77695714D02*
X158415714Y-78362380D01*
X158415714Y-77790952D02*
X158463333Y-77743333D01*
X158558571Y-77695714D01*
X158701428Y-77695714D01*
X158796666Y-77743333D01*
X158844285Y-77838571D01*
X158844285Y-78362380D01*
X150082380Y-67853333D02*
X150796666Y-67853333D01*
X150939523Y-67900952D01*
X151034761Y-67996190D01*
X151082380Y-68139047D01*
X151082380Y-68234285D01*
X150082380Y-66948571D02*
X150082380Y-67139047D01*
X150130000Y-67234285D01*
X150177619Y-67281904D01*
X150320476Y-67377142D01*
X150510952Y-67424761D01*
X150891904Y-67424761D01*
X150987142Y-67377142D01*
X151034761Y-67329523D01*
X151082380Y-67234285D01*
X151082380Y-67043809D01*
X151034761Y-66948571D01*
X150987142Y-66900952D01*
X150891904Y-66853333D01*
X150653809Y-66853333D01*
X150558571Y-66900952D01*
X150510952Y-66948571D01*
X150463333Y-67043809D01*
X150463333Y-67234285D01*
X150510952Y-67329523D01*
X150558571Y-67377142D01*
X150653809Y-67424761D01*
X140707142Y-68872857D02*
X140754761Y-68920476D01*
X140802380Y-69063333D01*
X140802380Y-69158571D01*
X140754761Y-69301428D01*
X140659523Y-69396666D01*
X140564285Y-69444285D01*
X140373809Y-69491904D01*
X140230952Y-69491904D01*
X140040476Y-69444285D01*
X139945238Y-69396666D01*
X139850000Y-69301428D01*
X139802380Y-69158571D01*
X139802380Y-69063333D01*
X139850000Y-68920476D01*
X139897619Y-68872857D01*
X140802380Y-68301428D02*
X140754761Y-68396666D01*
X140707142Y-68444285D01*
X140611904Y-68491904D01*
X140326190Y-68491904D01*
X140230952Y-68444285D01*
X140183333Y-68396666D01*
X140135714Y-68301428D01*
X140135714Y-68158571D01*
X140183333Y-68063333D01*
X140230952Y-68015714D01*
X140326190Y-67968095D01*
X140611904Y-67968095D01*
X140707142Y-68015714D01*
X140754761Y-68063333D01*
X140802380Y-68158571D01*
X140802380Y-68301428D01*
X140135714Y-67539523D02*
X140802380Y-67539523D01*
X140230952Y-67539523D02*
X140183333Y-67491904D01*
X140135714Y-67396666D01*
X140135714Y-67253809D01*
X140183333Y-67158571D01*
X140278571Y-67110952D01*
X140802380Y-67110952D01*
X140135714Y-66634761D02*
X140802380Y-66634761D01*
X140230952Y-66634761D02*
X140183333Y-66587142D01*
X140135714Y-66491904D01*
X140135714Y-66349047D01*
X140183333Y-66253809D01*
X140278571Y-66206190D01*
X140802380Y-66206190D01*
X140897619Y-65968095D02*
X140897619Y-65206190D01*
X139802380Y-64777619D02*
X139802380Y-64682380D01*
X139850000Y-64587142D01*
X139897619Y-64539523D01*
X139992857Y-64491904D01*
X140183333Y-64444285D01*
X140421428Y-64444285D01*
X140611904Y-64491904D01*
X140707142Y-64539523D01*
X140754761Y-64587142D01*
X140802380Y-64682380D01*
X140802380Y-64777619D01*
X140754761Y-64872857D01*
X140707142Y-64920476D01*
X140611904Y-64968095D01*
X140421428Y-65015714D01*
X140183333Y-65015714D01*
X139992857Y-64968095D01*
X139897619Y-64920476D01*
X139850000Y-64872857D01*
X139802380Y-64777619D01*
X139897619Y-64063333D02*
X139850000Y-64015714D01*
X139802380Y-63920476D01*
X139802380Y-63682380D01*
X139850000Y-63587142D01*
X139897619Y-63539523D01*
X139992857Y-63491904D01*
X140088095Y-63491904D01*
X140230952Y-63539523D01*
X140802380Y-64110952D01*
X140802380Y-63491904D01*
X140802380Y-63158571D02*
X140135714Y-62634761D01*
X140135714Y-63158571D02*
X140802380Y-62634761D01*
X139802380Y-62063333D02*
X139802380Y-61968095D01*
X139850000Y-61872857D01*
X139897619Y-61825238D01*
X139992857Y-61777619D01*
X140183333Y-61730000D01*
X140421428Y-61730000D01*
X140611904Y-61777619D01*
X140707142Y-61825238D01*
X140754761Y-61872857D01*
X140802380Y-61968095D01*
X140802380Y-62063333D01*
X140754761Y-62158571D01*
X140707142Y-62206190D01*
X140611904Y-62253809D01*
X140421428Y-62301428D01*
X140183333Y-62301428D01*
X139992857Y-62253809D01*
X139897619Y-62206190D01*
X139850000Y-62158571D01*
X139802380Y-62063333D01*
X139897619Y-61349047D02*
X139850000Y-61301428D01*
X139802380Y-61206190D01*
X139802380Y-60968095D01*
X139850000Y-60872857D01*
X139897619Y-60825238D01*
X139992857Y-60777619D01*
X140088095Y-60777619D01*
X140230952Y-60825238D01*
X140802380Y-61396666D01*
X140802380Y-60777619D01*
X140897619Y-60587142D02*
X140897619Y-59825238D01*
X139802380Y-59396666D02*
X139802380Y-59206190D01*
X139850000Y-59110952D01*
X139945238Y-59015714D01*
X140135714Y-58968095D01*
X140469047Y-58968095D01*
X140659523Y-59015714D01*
X140754761Y-59110952D01*
X140802380Y-59206190D01*
X140802380Y-59396666D01*
X140754761Y-59491904D01*
X140659523Y-59587142D01*
X140469047Y-59634761D01*
X140135714Y-59634761D01*
X139945238Y-59587142D01*
X139850000Y-59491904D01*
X139802380Y-59396666D01*
X140802380Y-58110952D02*
X139802380Y-58110952D01*
X140754761Y-58110952D02*
X140802380Y-58206190D01*
X140802380Y-58396666D01*
X140754761Y-58491904D01*
X140707142Y-58539523D01*
X140611904Y-58587142D01*
X140326190Y-58587142D01*
X140230952Y-58539523D01*
X140183333Y-58491904D01*
X140135714Y-58396666D01*
X140135714Y-58206190D01*
X140183333Y-58110952D01*
X140802380Y-57206190D02*
X139802380Y-57206190D01*
X140754761Y-57206190D02*
X140802380Y-57301428D01*
X140802380Y-57491904D01*
X140754761Y-57587142D01*
X140707142Y-57634761D01*
X140611904Y-57682380D01*
X140326190Y-57682380D01*
X140230952Y-57634761D01*
X140183333Y-57587142D01*
X140135714Y-57491904D01*
X140135714Y-57301428D01*
X140183333Y-57206190D01*
X140897619Y-56968095D02*
X140897619Y-56206190D01*
X140278571Y-55968095D02*
X140278571Y-55634761D01*
X140802380Y-55491904D02*
X140802380Y-55968095D01*
X139802380Y-55968095D01*
X139802380Y-55491904D01*
X140135714Y-55158571D02*
X140802380Y-54920476D01*
X140135714Y-54682380D01*
X140754761Y-53920476D02*
X140802380Y-54015714D01*
X140802380Y-54206190D01*
X140754761Y-54301428D01*
X140659523Y-54349047D01*
X140278571Y-54349047D01*
X140183333Y-54301428D01*
X140135714Y-54206190D01*
X140135714Y-54015714D01*
X140183333Y-53920476D01*
X140278571Y-53872857D01*
X140373809Y-53872857D01*
X140469047Y-54349047D01*
X140135714Y-53444285D02*
X140802380Y-53444285D01*
X140230952Y-53444285D02*
X140183333Y-53396666D01*
X140135714Y-53301428D01*
X140135714Y-53158571D01*
X140183333Y-53063333D01*
X140278571Y-53015714D01*
X140802380Y-53015714D01*
X133876666Y-60682380D02*
X133876666Y-61396666D01*
X133829047Y-61539523D01*
X133733809Y-61634761D01*
X133590952Y-61682380D01*
X133495714Y-61682380D01*
X134829047Y-60682380D02*
X134352857Y-60682380D01*
X134305238Y-61158571D01*
X134352857Y-61110952D01*
X134448095Y-61063333D01*
X134686190Y-61063333D01*
X134781428Y-61110952D01*
X134829047Y-61158571D01*
X134876666Y-61253809D01*
X134876666Y-61491904D01*
X134829047Y-61587142D01*
X134781428Y-61634761D01*
X134686190Y-61682380D01*
X134448095Y-61682380D01*
X134352857Y-61634761D01*
X134305238Y-61587142D01*
X108627142Y-65127142D02*
X108579523Y-65174761D01*
X108436666Y-65222380D01*
X108341428Y-65222380D01*
X108198571Y-65174761D01*
X108103333Y-65079523D01*
X108055714Y-64984285D01*
X108008095Y-64793809D01*
X108008095Y-64650952D01*
X108055714Y-64460476D01*
X108103333Y-64365238D01*
X108198571Y-64270000D01*
X108341428Y-64222380D01*
X108436666Y-64222380D01*
X108579523Y-64270000D01*
X108627142Y-64317619D01*
X109198571Y-65222380D02*
X109103333Y-65174761D01*
X109055714Y-65127142D01*
X109008095Y-65031904D01*
X109008095Y-64746190D01*
X109055714Y-64650952D01*
X109103333Y-64603333D01*
X109198571Y-64555714D01*
X109341428Y-64555714D01*
X109436666Y-64603333D01*
X109484285Y-64650952D01*
X109531904Y-64746190D01*
X109531904Y-65031904D01*
X109484285Y-65127142D01*
X109436666Y-65174761D01*
X109341428Y-65222380D01*
X109198571Y-65222380D01*
X109960476Y-64555714D02*
X109960476Y-65222380D01*
X109960476Y-64650952D02*
X110008095Y-64603333D01*
X110103333Y-64555714D01*
X110246190Y-64555714D01*
X110341428Y-64603333D01*
X110389047Y-64698571D01*
X110389047Y-65222380D01*
X110865238Y-64555714D02*
X110865238Y-65222380D01*
X110865238Y-64650952D02*
X110912857Y-64603333D01*
X111008095Y-64555714D01*
X111150952Y-64555714D01*
X111246190Y-64603333D01*
X111293809Y-64698571D01*
X111293809Y-65222380D01*
X111531904Y-65317619D02*
X112293809Y-65317619D01*
X112722380Y-64222380D02*
X112817619Y-64222380D01*
X112912857Y-64270000D01*
X112960476Y-64317619D01*
X113008095Y-64412857D01*
X113055714Y-64603333D01*
X113055714Y-64841428D01*
X113008095Y-65031904D01*
X112960476Y-65127142D01*
X112912857Y-65174761D01*
X112817619Y-65222380D01*
X112722380Y-65222380D01*
X112627142Y-65174761D01*
X112579523Y-65127142D01*
X112531904Y-65031904D01*
X112484285Y-64841428D01*
X112484285Y-64603333D01*
X112531904Y-64412857D01*
X112579523Y-64317619D01*
X112627142Y-64270000D01*
X112722380Y-64222380D01*
X113436666Y-64317619D02*
X113484285Y-64270000D01*
X113579523Y-64222380D01*
X113817619Y-64222380D01*
X113912857Y-64270000D01*
X113960476Y-64317619D01*
X114008095Y-64412857D01*
X114008095Y-64508095D01*
X113960476Y-64650952D01*
X113389047Y-65222380D01*
X114008095Y-65222380D01*
X114341428Y-65222380D02*
X114865238Y-64555714D01*
X114341428Y-64555714D02*
X114865238Y-65222380D01*
X115436666Y-64222380D02*
X115531904Y-64222380D01*
X115627142Y-64270000D01*
X115674761Y-64317619D01*
X115722380Y-64412857D01*
X115770000Y-64603333D01*
X115770000Y-64841428D01*
X115722380Y-65031904D01*
X115674761Y-65127142D01*
X115627142Y-65174761D01*
X115531904Y-65222380D01*
X115436666Y-65222380D01*
X115341428Y-65174761D01*
X115293809Y-65127142D01*
X115246190Y-65031904D01*
X115198571Y-64841428D01*
X115198571Y-64603333D01*
X115246190Y-64412857D01*
X115293809Y-64317619D01*
X115341428Y-64270000D01*
X115436666Y-64222380D01*
X116150952Y-64317619D02*
X116198571Y-64270000D01*
X116293809Y-64222380D01*
X116531904Y-64222380D01*
X116627142Y-64270000D01*
X116674761Y-64317619D01*
X116722380Y-64412857D01*
X116722380Y-64508095D01*
X116674761Y-64650952D01*
X116103333Y-65222380D01*
X116722380Y-65222380D01*
X116912857Y-65317619D02*
X117674761Y-65317619D01*
X118103333Y-64222380D02*
X118293809Y-64222380D01*
X118389047Y-64270000D01*
X118484285Y-64365238D01*
X118531904Y-64555714D01*
X118531904Y-64889047D01*
X118484285Y-65079523D01*
X118389047Y-65174761D01*
X118293809Y-65222380D01*
X118103333Y-65222380D01*
X118008095Y-65174761D01*
X117912857Y-65079523D01*
X117865238Y-64889047D01*
X117865238Y-64555714D01*
X117912857Y-64365238D01*
X118008095Y-64270000D01*
X118103333Y-64222380D01*
X119389047Y-65222380D02*
X119389047Y-64222380D01*
X119389047Y-65174761D02*
X119293809Y-65222380D01*
X119103333Y-65222380D01*
X119008095Y-65174761D01*
X118960476Y-65127142D01*
X118912857Y-65031904D01*
X118912857Y-64746190D01*
X118960476Y-64650952D01*
X119008095Y-64603333D01*
X119103333Y-64555714D01*
X119293809Y-64555714D01*
X119389047Y-64603333D01*
X120293809Y-65222380D02*
X120293809Y-64222380D01*
X120293809Y-65174761D02*
X120198571Y-65222380D01*
X120008095Y-65222380D01*
X119912857Y-65174761D01*
X119865238Y-65127142D01*
X119817619Y-65031904D01*
X119817619Y-64746190D01*
X119865238Y-64650952D01*
X119912857Y-64603333D01*
X120008095Y-64555714D01*
X120198571Y-64555714D01*
X120293809Y-64603333D01*
X120531904Y-65317619D02*
X121293809Y-65317619D01*
X121531904Y-64698571D02*
X121865238Y-64698571D01*
X122008095Y-65222380D02*
X121531904Y-65222380D01*
X121531904Y-64222380D01*
X122008095Y-64222380D01*
X122341428Y-64555714D02*
X122579523Y-65222380D01*
X122817619Y-64555714D01*
X123579523Y-65174761D02*
X123484285Y-65222380D01*
X123293809Y-65222380D01*
X123198571Y-65174761D01*
X123150952Y-65079523D01*
X123150952Y-64698571D01*
X123198571Y-64603333D01*
X123293809Y-64555714D01*
X123484285Y-64555714D01*
X123579523Y-64603333D01*
X123627142Y-64698571D01*
X123627142Y-64793809D01*
X123150952Y-64889047D01*
X124055714Y-64555714D02*
X124055714Y-65222380D01*
X124055714Y-64650952D02*
X124103333Y-64603333D01*
X124198571Y-64555714D01*
X124341428Y-64555714D01*
X124436666Y-64603333D01*
X124484285Y-64698571D01*
X124484285Y-65222380D01*
X115722380Y-61503333D02*
X116436666Y-61503333D01*
X116579523Y-61550952D01*
X116674761Y-61646190D01*
X116722380Y-61789047D01*
X116722380Y-61884285D01*
X116055714Y-60598571D02*
X116722380Y-60598571D01*
X115674761Y-60836666D02*
X116389047Y-61074761D01*
X116389047Y-60455714D01*
X107147142Y-63438095D02*
X107194761Y-63485714D01*
X107242380Y-63628571D01*
X107242380Y-63723809D01*
X107194761Y-63866666D01*
X107099523Y-63961904D01*
X107004285Y-64009523D01*
X106813809Y-64057142D01*
X106670952Y-64057142D01*
X106480476Y-64009523D01*
X106385238Y-63961904D01*
X106290000Y-63866666D01*
X106242380Y-63723809D01*
X106242380Y-63628571D01*
X106290000Y-63485714D01*
X106337619Y-63438095D01*
X107242380Y-62866666D02*
X107194761Y-62961904D01*
X107147142Y-63009523D01*
X107051904Y-63057142D01*
X106766190Y-63057142D01*
X106670952Y-63009523D01*
X106623333Y-62961904D01*
X106575714Y-62866666D01*
X106575714Y-62723809D01*
X106623333Y-62628571D01*
X106670952Y-62580952D01*
X106766190Y-62533333D01*
X107051904Y-62533333D01*
X107147142Y-62580952D01*
X107194761Y-62628571D01*
X107242380Y-62723809D01*
X107242380Y-62866666D01*
X106575714Y-62104761D02*
X107242380Y-62104761D01*
X106670952Y-62104761D02*
X106623333Y-62057142D01*
X106575714Y-61961904D01*
X106575714Y-61819047D01*
X106623333Y-61723809D01*
X106718571Y-61676190D01*
X107242380Y-61676190D01*
X106575714Y-61200000D02*
X107242380Y-61200000D01*
X106670952Y-61200000D02*
X106623333Y-61152380D01*
X106575714Y-61057142D01*
X106575714Y-60914285D01*
X106623333Y-60819047D01*
X106718571Y-60771428D01*
X107242380Y-60771428D01*
X107337619Y-60533333D02*
X107337619Y-59771428D01*
X106242380Y-59342857D02*
X106242380Y-59247619D01*
X106290000Y-59152380D01*
X106337619Y-59104761D01*
X106432857Y-59057142D01*
X106623333Y-59009523D01*
X106861428Y-59009523D01*
X107051904Y-59057142D01*
X107147142Y-59104761D01*
X107194761Y-59152380D01*
X107242380Y-59247619D01*
X107242380Y-59342857D01*
X107194761Y-59438095D01*
X107147142Y-59485714D01*
X107051904Y-59533333D01*
X106861428Y-59580952D01*
X106623333Y-59580952D01*
X106432857Y-59533333D01*
X106337619Y-59485714D01*
X106290000Y-59438095D01*
X106242380Y-59342857D01*
X107242380Y-58057142D02*
X107242380Y-58628571D01*
X107242380Y-58342857D02*
X106242380Y-58342857D01*
X106385238Y-58438095D01*
X106480476Y-58533333D01*
X106528095Y-58628571D01*
X107242380Y-57723809D02*
X106575714Y-57200000D01*
X106575714Y-57723809D02*
X107242380Y-57200000D01*
X106242380Y-56628571D02*
X106242380Y-56533333D01*
X106290000Y-56438095D01*
X106337619Y-56390476D01*
X106432857Y-56342857D01*
X106623333Y-56295238D01*
X106861428Y-56295238D01*
X107051904Y-56342857D01*
X107147142Y-56390476D01*
X107194761Y-56438095D01*
X107242380Y-56533333D01*
X107242380Y-56628571D01*
X107194761Y-56723809D01*
X107147142Y-56771428D01*
X107051904Y-56819047D01*
X106861428Y-56866666D01*
X106623333Y-56866666D01*
X106432857Y-56819047D01*
X106337619Y-56771428D01*
X106290000Y-56723809D01*
X106242380Y-56628571D01*
X106575714Y-55438095D02*
X107242380Y-55438095D01*
X106194761Y-55676190D02*
X106909047Y-55914285D01*
X106909047Y-55295238D01*
X99876666Y-59152380D02*
X99876666Y-59866666D01*
X99829047Y-60009523D01*
X99733809Y-60104761D01*
X99590952Y-60152380D01*
X99495714Y-60152380D01*
X100257619Y-59152380D02*
X100876666Y-59152380D01*
X100543333Y-59533333D01*
X100686190Y-59533333D01*
X100781428Y-59580952D01*
X100829047Y-59628571D01*
X100876666Y-59723809D01*
X100876666Y-59961904D01*
X100829047Y-60057142D01*
X100781428Y-60104761D01*
X100686190Y-60152380D01*
X100400476Y-60152380D01*
X100305238Y-60104761D01*
X100257619Y-60057142D01*
X78927142Y-65127142D02*
X78879523Y-65174761D01*
X78736666Y-65222380D01*
X78641428Y-65222380D01*
X78498571Y-65174761D01*
X78403333Y-65079523D01*
X78355714Y-64984285D01*
X78308095Y-64793809D01*
X78308095Y-64650952D01*
X78355714Y-64460476D01*
X78403333Y-64365238D01*
X78498571Y-64270000D01*
X78641428Y-64222380D01*
X78736666Y-64222380D01*
X78879523Y-64270000D01*
X78927142Y-64317619D01*
X79498571Y-65222380D02*
X79403333Y-65174761D01*
X79355714Y-65127142D01*
X79308095Y-65031904D01*
X79308095Y-64746190D01*
X79355714Y-64650952D01*
X79403333Y-64603333D01*
X79498571Y-64555714D01*
X79641428Y-64555714D01*
X79736666Y-64603333D01*
X79784285Y-64650952D01*
X79831904Y-64746190D01*
X79831904Y-65031904D01*
X79784285Y-65127142D01*
X79736666Y-65174761D01*
X79641428Y-65222380D01*
X79498571Y-65222380D01*
X80260476Y-64555714D02*
X80260476Y-65222380D01*
X80260476Y-64650952D02*
X80308095Y-64603333D01*
X80403333Y-64555714D01*
X80546190Y-64555714D01*
X80641428Y-64603333D01*
X80689047Y-64698571D01*
X80689047Y-65222380D01*
X81165238Y-64555714D02*
X81165238Y-65222380D01*
X81165238Y-64650952D02*
X81212857Y-64603333D01*
X81308095Y-64555714D01*
X81450952Y-64555714D01*
X81546190Y-64603333D01*
X81593809Y-64698571D01*
X81593809Y-65222380D01*
X81831904Y-65317619D02*
X82593809Y-65317619D01*
X83022380Y-64222380D02*
X83117619Y-64222380D01*
X83212857Y-64270000D01*
X83260476Y-64317619D01*
X83308095Y-64412857D01*
X83355714Y-64603333D01*
X83355714Y-64841428D01*
X83308095Y-65031904D01*
X83260476Y-65127142D01*
X83212857Y-65174761D01*
X83117619Y-65222380D01*
X83022380Y-65222380D01*
X82927142Y-65174761D01*
X82879523Y-65127142D01*
X82831904Y-65031904D01*
X82784285Y-64841428D01*
X82784285Y-64603333D01*
X82831904Y-64412857D01*
X82879523Y-64317619D01*
X82927142Y-64270000D01*
X83022380Y-64222380D01*
X83736666Y-64317619D02*
X83784285Y-64270000D01*
X83879523Y-64222380D01*
X84117619Y-64222380D01*
X84212857Y-64270000D01*
X84260476Y-64317619D01*
X84308095Y-64412857D01*
X84308095Y-64508095D01*
X84260476Y-64650952D01*
X83689047Y-65222380D01*
X84308095Y-65222380D01*
X84641428Y-65222380D02*
X85165238Y-64555714D01*
X84641428Y-64555714D02*
X85165238Y-65222380D01*
X85736666Y-64222380D02*
X85831904Y-64222380D01*
X85927142Y-64270000D01*
X85974761Y-64317619D01*
X86022380Y-64412857D01*
X86070000Y-64603333D01*
X86070000Y-64841428D01*
X86022380Y-65031904D01*
X85974761Y-65127142D01*
X85927142Y-65174761D01*
X85831904Y-65222380D01*
X85736666Y-65222380D01*
X85641428Y-65174761D01*
X85593809Y-65127142D01*
X85546190Y-65031904D01*
X85498571Y-64841428D01*
X85498571Y-64603333D01*
X85546190Y-64412857D01*
X85593809Y-64317619D01*
X85641428Y-64270000D01*
X85736666Y-64222380D01*
X86450952Y-64317619D02*
X86498571Y-64270000D01*
X86593809Y-64222380D01*
X86831904Y-64222380D01*
X86927142Y-64270000D01*
X86974761Y-64317619D01*
X87022380Y-64412857D01*
X87022380Y-64508095D01*
X86974761Y-64650952D01*
X86403333Y-65222380D01*
X87022380Y-65222380D01*
X87212857Y-65317619D02*
X87974761Y-65317619D01*
X88403333Y-64222380D02*
X88593809Y-64222380D01*
X88689047Y-64270000D01*
X88784285Y-64365238D01*
X88831904Y-64555714D01*
X88831904Y-64889047D01*
X88784285Y-65079523D01*
X88689047Y-65174761D01*
X88593809Y-65222380D01*
X88403333Y-65222380D01*
X88308095Y-65174761D01*
X88212857Y-65079523D01*
X88165238Y-64889047D01*
X88165238Y-64555714D01*
X88212857Y-64365238D01*
X88308095Y-64270000D01*
X88403333Y-64222380D01*
X89689047Y-65222380D02*
X89689047Y-64222380D01*
X89689047Y-65174761D02*
X89593809Y-65222380D01*
X89403333Y-65222380D01*
X89308095Y-65174761D01*
X89260476Y-65127142D01*
X89212857Y-65031904D01*
X89212857Y-64746190D01*
X89260476Y-64650952D01*
X89308095Y-64603333D01*
X89403333Y-64555714D01*
X89593809Y-64555714D01*
X89689047Y-64603333D01*
X90593809Y-65222380D02*
X90593809Y-64222380D01*
X90593809Y-65174761D02*
X90498571Y-65222380D01*
X90308095Y-65222380D01*
X90212857Y-65174761D01*
X90165238Y-65127142D01*
X90117619Y-65031904D01*
X90117619Y-64746190D01*
X90165238Y-64650952D01*
X90212857Y-64603333D01*
X90308095Y-64555714D01*
X90498571Y-64555714D01*
X90593809Y-64603333D01*
X90831904Y-65317619D02*
X91593809Y-65317619D01*
X91831904Y-64698571D02*
X92165238Y-64698571D01*
X92308095Y-65222380D02*
X91831904Y-65222380D01*
X91831904Y-64222380D01*
X92308095Y-64222380D01*
X92641428Y-64555714D02*
X92879523Y-65222380D01*
X93117619Y-64555714D01*
X93879523Y-65174761D02*
X93784285Y-65222380D01*
X93593809Y-65222380D01*
X93498571Y-65174761D01*
X93450952Y-65079523D01*
X93450952Y-64698571D01*
X93498571Y-64603333D01*
X93593809Y-64555714D01*
X93784285Y-64555714D01*
X93879523Y-64603333D01*
X93927142Y-64698571D01*
X93927142Y-64793809D01*
X93450952Y-64889047D01*
X94355714Y-64555714D02*
X94355714Y-65222380D01*
X94355714Y-64650952D02*
X94403333Y-64603333D01*
X94498571Y-64555714D01*
X94641428Y-64555714D01*
X94736666Y-64603333D01*
X94784285Y-64698571D01*
X94784285Y-65222380D01*
X86022380Y-61503333D02*
X86736666Y-61503333D01*
X86879523Y-61550952D01*
X86974761Y-61646190D01*
X87022380Y-61789047D01*
X87022380Y-61884285D01*
X86117619Y-61074761D02*
X86070000Y-61027142D01*
X86022380Y-60931904D01*
X86022380Y-60693809D01*
X86070000Y-60598571D01*
X86117619Y-60550952D01*
X86212857Y-60503333D01*
X86308095Y-60503333D01*
X86450952Y-60550952D01*
X87022380Y-61122380D01*
X87022380Y-60503333D01*
X215242857Y-123757142D02*
X215195238Y-123804761D01*
X215052380Y-123852380D01*
X214957142Y-123852380D01*
X214814285Y-123804761D01*
X214719047Y-123709523D01*
X214671428Y-123614285D01*
X214623809Y-123423809D01*
X214623809Y-123280952D01*
X214671428Y-123090476D01*
X214719047Y-122995238D01*
X214814285Y-122900000D01*
X214957142Y-122852380D01*
X215052380Y-122852380D01*
X215195238Y-122900000D01*
X215242857Y-122947619D01*
X215814285Y-123852380D02*
X215719047Y-123804761D01*
X215671428Y-123757142D01*
X215623809Y-123661904D01*
X215623809Y-123376190D01*
X215671428Y-123280952D01*
X215719047Y-123233333D01*
X215814285Y-123185714D01*
X215957142Y-123185714D01*
X216052380Y-123233333D01*
X216100000Y-123280952D01*
X216147619Y-123376190D01*
X216147619Y-123661904D01*
X216100000Y-123757142D01*
X216052380Y-123804761D01*
X215957142Y-123852380D01*
X215814285Y-123852380D01*
X216576190Y-123852380D02*
X216576190Y-123185714D01*
X216576190Y-123280952D02*
X216623809Y-123233333D01*
X216719047Y-123185714D01*
X216861904Y-123185714D01*
X216957142Y-123233333D01*
X217004761Y-123328571D01*
X217004761Y-123852380D01*
X217004761Y-123328571D02*
X217052380Y-123233333D01*
X217147619Y-123185714D01*
X217290476Y-123185714D01*
X217385714Y-123233333D01*
X217433333Y-123328571D01*
X217433333Y-123852380D01*
X217909523Y-123185714D02*
X217909523Y-124185714D01*
X217909523Y-123233333D02*
X218004761Y-123185714D01*
X218195238Y-123185714D01*
X218290476Y-123233333D01*
X218338095Y-123280952D01*
X218385714Y-123376190D01*
X218385714Y-123661904D01*
X218338095Y-123757142D01*
X218290476Y-123804761D01*
X218195238Y-123852380D01*
X218004761Y-123852380D01*
X217909523Y-123804761D01*
X219242857Y-123185714D02*
X219242857Y-123852380D01*
X218814285Y-123185714D02*
X218814285Y-123709523D01*
X218861904Y-123804761D01*
X218957142Y-123852380D01*
X219100000Y-123852380D01*
X219195238Y-123804761D01*
X219242857Y-123757142D01*
X219576190Y-123185714D02*
X219957142Y-123185714D01*
X219719047Y-122852380D02*
X219719047Y-123709523D01*
X219766666Y-123804761D01*
X219861904Y-123852380D01*
X219957142Y-123852380D01*
X220671428Y-123804761D02*
X220576190Y-123852380D01*
X220385714Y-123852380D01*
X220290476Y-123804761D01*
X220242857Y-123709523D01*
X220242857Y-123328571D01*
X220290476Y-123233333D01*
X220385714Y-123185714D01*
X220576190Y-123185714D01*
X220671428Y-123233333D01*
X220719047Y-123328571D01*
X220719047Y-123423809D01*
X220242857Y-123519047D01*
X221147619Y-123852380D02*
X221147619Y-123185714D01*
X221147619Y-123376190D02*
X221195238Y-123280952D01*
X221242857Y-123233333D01*
X221338095Y-123185714D01*
X221433333Y-123185714D01*
X222957142Y-123185714D02*
X222957142Y-123995238D01*
X222909523Y-124090476D01*
X222861904Y-124138095D01*
X222766666Y-124185714D01*
X222623809Y-124185714D01*
X222528571Y-124138095D01*
X222957142Y-123804761D02*
X222861904Y-123852380D01*
X222671428Y-123852380D01*
X222576190Y-123804761D01*
X222528571Y-123757142D01*
X222480952Y-123661904D01*
X222480952Y-123376190D01*
X222528571Y-123280952D01*
X222576190Y-123233333D01*
X222671428Y-123185714D01*
X222861904Y-123185714D01*
X222957142Y-123233333D01*
X223576190Y-123852380D02*
X223480952Y-123804761D01*
X223433333Y-123757142D01*
X223385714Y-123661904D01*
X223385714Y-123376190D01*
X223433333Y-123280952D01*
X223480952Y-123233333D01*
X223576190Y-123185714D01*
X223719047Y-123185714D01*
X223814285Y-123233333D01*
X223861904Y-123280952D01*
X223909523Y-123376190D01*
X223909523Y-123661904D01*
X223861904Y-123757142D01*
X223814285Y-123804761D01*
X223719047Y-123852380D01*
X223576190Y-123852380D01*
X224719047Y-123804761D02*
X224623809Y-123852380D01*
X224433333Y-123852380D01*
X224338095Y-123804761D01*
X224290476Y-123709523D01*
X224290476Y-123328571D01*
X224338095Y-123233333D01*
X224433333Y-123185714D01*
X224623809Y-123185714D01*
X224719047Y-123233333D01*
X224766666Y-123328571D01*
X224766666Y-123423809D01*
X224290476Y-123519047D01*
X225147619Y-123804761D02*
X225242857Y-123852380D01*
X225433333Y-123852380D01*
X225528571Y-123804761D01*
X225576190Y-123709523D01*
X225576190Y-123661904D01*
X225528571Y-123566666D01*
X225433333Y-123519047D01*
X225290476Y-123519047D01*
X225195238Y-123471428D01*
X225147619Y-123376190D01*
X225147619Y-123328571D01*
X225195238Y-123233333D01*
X225290476Y-123185714D01*
X225433333Y-123185714D01*
X225528571Y-123233333D01*
X226766666Y-123852380D02*
X226766666Y-122852380D01*
X227195238Y-123852380D02*
X227195238Y-123328571D01*
X227147619Y-123233333D01*
X227052380Y-123185714D01*
X226909523Y-123185714D01*
X226814285Y-123233333D01*
X226766666Y-123280952D01*
X228052380Y-123804761D02*
X227957142Y-123852380D01*
X227766666Y-123852380D01*
X227671428Y-123804761D01*
X227623809Y-123709523D01*
X227623809Y-123328571D01*
X227671428Y-123233333D01*
X227766666Y-123185714D01*
X227957142Y-123185714D01*
X228052380Y-123233333D01*
X228100000Y-123328571D01*
X228100000Y-123423809D01*
X227623809Y-123519047D01*
X228528571Y-123852380D02*
X228528571Y-123185714D01*
X228528571Y-123376190D02*
X228576190Y-123280952D01*
X228623809Y-123233333D01*
X228719047Y-123185714D01*
X228814285Y-123185714D01*
X229528571Y-123804761D02*
X229433333Y-123852380D01*
X229242857Y-123852380D01*
X229147619Y-123804761D01*
X229100000Y-123709523D01*
X229100000Y-123328571D01*
X229147619Y-123233333D01*
X229242857Y-123185714D01*
X229433333Y-123185714D01*
X229528571Y-123233333D01*
X229576190Y-123328571D01*
X229576190Y-123423809D01*
X229100000Y-123519047D01*
X232309523Y-118607142D02*
X232261904Y-118654761D01*
X232119047Y-118702380D01*
X232023809Y-118702380D01*
X231880952Y-118654761D01*
X231785714Y-118559523D01*
X231738095Y-118464285D01*
X231690476Y-118273809D01*
X231690476Y-118130952D01*
X231738095Y-117940476D01*
X231785714Y-117845238D01*
X231880952Y-117750000D01*
X232023809Y-117702380D01*
X232119047Y-117702380D01*
X232261904Y-117750000D01*
X232309523Y-117797619D01*
X231833333Y-114857142D02*
X231785714Y-114904761D01*
X231642857Y-114952380D01*
X231547619Y-114952380D01*
X231404761Y-114904761D01*
X231309523Y-114809523D01*
X231261904Y-114714285D01*
X231214285Y-114523809D01*
X231214285Y-114380952D01*
X231261904Y-114190476D01*
X231309523Y-114095238D01*
X231404761Y-114000000D01*
X231547619Y-113952380D01*
X231642857Y-113952380D01*
X231785714Y-114000000D01*
X231833333Y-114047619D01*
X232785714Y-114952380D02*
X232214285Y-114952380D01*
X232500000Y-114952380D02*
X232500000Y-113952380D01*
X232404761Y-114095238D01*
X232309523Y-114190476D01*
X232214285Y-114238095D01*
M02*
