M48
; DRILL file {KiCad 5.1.10-88a1d61d58~88~ubuntu18.04.1} date Tue Sep  7 17:34:15 2021
; FORMAT={-:-/ absolute / inch / decimal}
; #@! TF.CreationDate,2021-09-07T17:34:15-07:00
; #@! TF.GenerationSoftware,Kicad,Pcbnew,5.1.10-88a1d61d58~88~ubuntu18.04.1
; #@! TF.FileFunction,Plated,1,2,PTH
FMAT,2
INCH
T1C0.0157
T2C0.0276
T3C0.0315
T4C0.0394
T5C0.0409
T6C0.0433
%
G90
G05
T1
X8.1614Y-3.1929
T2
X6.0787Y-3.7717
X6.0787Y-3.8701
X9.0551Y-4.7205
X9.1299Y-3.5984
X9.1535Y-4.7205
X9.2283Y-3.5984
T3
X6.3228Y-3.7858
X6.3228Y-4.3858
X6.4228Y-3.7858
X6.4228Y-4.3858
X6.5228Y-3.7858
X6.5228Y-4.3858
X6.6228Y-3.7858
X6.6228Y-4.3858
X6.7228Y-3.7858
X6.7228Y-4.3858
X6.8228Y-3.7858
X6.8228Y-4.3858
X6.9228Y-3.7858
X6.9228Y-4.3858
X7.0228Y-3.7858
X7.0228Y-4.3858
X7.1228Y-3.7858
X7.1228Y-4.3858
X7.2228Y-3.7858
X7.2228Y-4.3858
X7.3228Y-3.7858
X7.3228Y-4.3858
X7.4228Y-3.7858
X7.4228Y-4.3858
X7.5228Y-3.7858
X7.5228Y-4.3858
X7.6228Y-3.7858
X7.6228Y-4.3858
X7.7228Y-3.7858
X7.7228Y-4.3858
X7.8228Y-3.7858
X7.8228Y-4.3858
X7.9228Y-3.7858
X7.9228Y-4.3858
X8.0228Y-3.7858
X8.0228Y-4.3858
X8.1228Y-3.7858
X8.1228Y-4.3858
X8.2228Y-3.7858
X8.2228Y-4.3858
X8.3228Y-3.7858
X8.3228Y-4.3858
X8.4228Y-3.7858
X8.4228Y-4.3858
X8.5228Y-3.7858
X8.5228Y-4.3858
X8.6228Y-3.7858
X8.6228Y-4.3858
T4
X3.3543Y-2.3622
X3.4543Y-2.3622
X3.7874Y-2.3583
X3.8874Y-2.3583
X3.9874Y-2.3583
X4.0874Y-2.3583
X4.1874Y-2.3583
X4.6063Y-2.3583
X4.6063Y-2.4583
X4.7063Y-2.3583
X4.7063Y-2.4583
X5.4906Y-2.3465
X5.4906Y-2.4465
X5.4906Y-2.5465
X5.4906Y-2.6465
X5.4906Y-2.7465
X5.4906Y-2.8465
X5.4906Y-2.9465
X5.4906Y-3.0465
X5.5906Y-2.3465
X5.5906Y-2.4465
X5.5906Y-2.5465
X5.5906Y-2.6465
X5.5906Y-2.7465
X5.5906Y-2.8465
X5.5906Y-2.9465
X5.5906Y-3.0465
T5
X6.8087Y-2.378
X6.8087Y-3.378
X6.9087Y-2.378
X6.9087Y-3.378
X7.0087Y-2.378
X7.0087Y-3.378
X7.1087Y-2.378
X7.1087Y-3.378
X7.2087Y-2.378
X7.2087Y-3.378
X7.3087Y-2.378
X7.3087Y-3.378
X7.4087Y-2.378
X7.4087Y-3.378
X7.5087Y-2.378
X7.5087Y-3.378
X7.6087Y-2.378
X7.6087Y-3.378
X7.7087Y-2.378
X7.7087Y-3.378
X7.8087Y-2.378
X7.8087Y-3.378
X7.9087Y-2.378
X7.9087Y-3.378
X8.0087Y-2.378
X8.0087Y-3.378
X8.1087Y-2.378
X8.1087Y-3.378
X8.2087Y-2.378
X8.2087Y-3.378
X8.3087Y-2.378
X8.3087Y-3.378
X8.4087Y-2.378
X8.4087Y-3.378
X8.5087Y-2.378
X8.5087Y-3.378
X8.6087Y-2.378
X8.6087Y-3.378
T6
X9.2362Y-4.1142
X9.2362Y-4.5142
T0
M30
