G04 #@! TF.GenerationSoftware,KiCad,Pcbnew,5.1.10-88a1d61d58~88~ubuntu18.04.1*
G04 #@! TF.CreationDate,2021-09-07T17:34:24-07:00*
G04 #@! TF.ProjectId,apple2idiot_new,6170706c-6532-4696-9469-6f745f6e6577,1.1*
G04 #@! TF.SameCoordinates,Original*
G04 #@! TF.FileFunction,Copper,L2,Bot*
G04 #@! TF.FilePolarity,Positive*
%FSLAX46Y46*%
G04 Gerber Fmt 4.6, Leading zero omitted, Abs format (unit mm)*
G04 Created by KiCad (PCBNEW 5.1.10-88a1d61d58~88~ubuntu18.04.1) date 2021-09-07 17:34:24*
%MOMM*%
%LPD*%
G01*
G04 APERTURE LIST*
G04 #@! TA.AperFunction,ComponentPad*
%ADD10C,1.560000*%
G04 #@! TD*
G04 #@! TA.AperFunction,ComponentPad*
%ADD11R,1.560000X1.560000*%
G04 #@! TD*
G04 #@! TA.AperFunction,ComponentPad*
%ADD12C,1.400000*%
G04 #@! TD*
G04 #@! TA.AperFunction,ComponentPad*
%ADD13O,1.700000X1.700000*%
G04 #@! TD*
G04 #@! TA.AperFunction,ComponentPad*
%ADD14R,1.700000X1.700000*%
G04 #@! TD*
G04 #@! TA.AperFunction,ComponentPad*
%ADD15O,2.200000X2.200000*%
G04 #@! TD*
G04 #@! TA.AperFunction,ComponentPad*
%ADD16R,2.200000X2.200000*%
G04 #@! TD*
G04 #@! TA.AperFunction,ComponentPad*
%ADD17O,1.600000X2.400000*%
G04 #@! TD*
G04 #@! TA.AperFunction,ComponentPad*
%ADD18R,1.600000X2.400000*%
G04 #@! TD*
G04 #@! TA.AperFunction,SMDPad,CuDef*
%ADD19R,1.524000X6.350000*%
G04 #@! TD*
G04 #@! TA.AperFunction,ViaPad*
%ADD20C,0.800000*%
G04 #@! TD*
G04 #@! TA.AperFunction,Conductor*
%ADD21C,0.400000*%
G04 #@! TD*
G04 #@! TA.AperFunction,Conductor*
%ADD22C,1.000000*%
G04 #@! TD*
G04 #@! TA.AperFunction,Conductor*
%ADD23C,0.254000*%
G04 #@! TD*
G04 #@! TA.AperFunction,Conductor*
%ADD24C,0.100000*%
G04 #@! TD*
G04 APERTURE END LIST*
D10*
X218660000Y-60400000D03*
X216120000Y-60400000D03*
X213580000Y-60400000D03*
X211040000Y-60400000D03*
X208500000Y-60400000D03*
X205960000Y-60400000D03*
X203420000Y-60400000D03*
X200880000Y-60400000D03*
X198340000Y-60400000D03*
X195800000Y-60400000D03*
X193260000Y-60400000D03*
X190720000Y-60400000D03*
X188180000Y-60400000D03*
X185640000Y-60400000D03*
X183100000Y-60400000D03*
X180560000Y-60400000D03*
X178020000Y-60400000D03*
X175480000Y-60400000D03*
X172940000Y-60400000D03*
X216120000Y-85800000D03*
X213580000Y-85800000D03*
X211040000Y-85800000D03*
X208500000Y-85800000D03*
X205960000Y-85800000D03*
X203420000Y-85800000D03*
X200880000Y-85800000D03*
X198340000Y-85800000D03*
X195800000Y-85800000D03*
X193260000Y-85800000D03*
X190720000Y-85800000D03*
X188180000Y-85800000D03*
X185640000Y-85800000D03*
X183100000Y-85800000D03*
X180560000Y-85800000D03*
X178020000Y-85800000D03*
X218660000Y-85800000D03*
X175480000Y-85800000D03*
D11*
X172940000Y-85800000D03*
D12*
X231900000Y-91400000D03*
X234400000Y-91400000D03*
D13*
X139460000Y-77380000D03*
X142000000Y-77380000D03*
X139460000Y-74840000D03*
X142000000Y-74840000D03*
X139460000Y-72300000D03*
X142000000Y-72300000D03*
X139460000Y-69760000D03*
X142000000Y-69760000D03*
X139460000Y-67220000D03*
X142000000Y-67220000D03*
X139460000Y-64680000D03*
X142000000Y-64680000D03*
X139460000Y-62140000D03*
X142000000Y-62140000D03*
X139460000Y-59600000D03*
D14*
X142000000Y-59600000D03*
D15*
X234600000Y-114660000D03*
D16*
X234600000Y-104500000D03*
D12*
X154400000Y-98300000D03*
X154400000Y-95800000D03*
X230000000Y-119900000D03*
X232500000Y-119900000D03*
D13*
X106360000Y-59900000D03*
X103820000Y-59900000D03*
X101280000Y-59900000D03*
X98740000Y-59900000D03*
D14*
X96200000Y-59900000D03*
D13*
X87740000Y-60000000D03*
D14*
X85200000Y-60000000D03*
D17*
X160600000Y-96160000D03*
X219020000Y-111400000D03*
X163140000Y-96160000D03*
X216480000Y-111400000D03*
X165680000Y-96160000D03*
X213940000Y-111400000D03*
X168220000Y-96160000D03*
X211400000Y-111400000D03*
X170760000Y-96160000D03*
X208860000Y-111400000D03*
X173300000Y-96160000D03*
X206320000Y-111400000D03*
X175840000Y-96160000D03*
X203780000Y-111400000D03*
X178380000Y-96160000D03*
X201240000Y-111400000D03*
X180920000Y-96160000D03*
X198700000Y-111400000D03*
X183460000Y-96160000D03*
X196160000Y-111400000D03*
X186000000Y-96160000D03*
X193620000Y-111400000D03*
X188540000Y-96160000D03*
X191080000Y-111400000D03*
X191080000Y-96160000D03*
X188540000Y-111400000D03*
X193620000Y-96160000D03*
X186000000Y-111400000D03*
X196160000Y-96160000D03*
X183460000Y-111400000D03*
X198700000Y-96160000D03*
X180920000Y-111400000D03*
X201240000Y-96160000D03*
X178380000Y-111400000D03*
X203780000Y-96160000D03*
X175840000Y-111400000D03*
X206320000Y-96160000D03*
X173300000Y-111400000D03*
X208860000Y-96160000D03*
X170760000Y-111400000D03*
X211400000Y-96160000D03*
X168220000Y-111400000D03*
X213940000Y-96160000D03*
X165680000Y-111400000D03*
X216480000Y-96160000D03*
X163140000Y-111400000D03*
X219020000Y-96160000D03*
D18*
X160600000Y-111400000D03*
D13*
X119540000Y-62440000D03*
X117000000Y-62440000D03*
X119540000Y-59900000D03*
D14*
X117000000Y-59900000D03*
D19*
X231230000Y-128500000D03*
X228690000Y-128500000D03*
X226150000Y-128500000D03*
X223610000Y-128500000D03*
X221070000Y-128500000D03*
X218530000Y-128500000D03*
X215990000Y-128500000D03*
X213450000Y-128500000D03*
X210910000Y-128500000D03*
X208370000Y-128500000D03*
X205830000Y-128500000D03*
X203290000Y-128500000D03*
X200750000Y-128500000D03*
X198210000Y-128500000D03*
X195670000Y-128500000D03*
X193130000Y-128500000D03*
X190590000Y-128500000D03*
X188050000Y-128500000D03*
X185510000Y-128500000D03*
X182970000Y-128500000D03*
X180430000Y-128500000D03*
X177890000Y-128500000D03*
X175350000Y-128500000D03*
X172810000Y-128500000D03*
X170270000Y-128500000D03*
D20*
X207300000Y-81100000D03*
D21*
X172810000Y-123990000D02*
X172810000Y-128500000D01*
X180900000Y-115900000D02*
X172810000Y-123990000D01*
X194200000Y-115900000D02*
X180900000Y-115900000D01*
X198700000Y-111400000D02*
X194200000Y-115900000D01*
X175350000Y-123950000D02*
X175350000Y-128500000D01*
X182600000Y-116700000D02*
X175350000Y-123950000D01*
X195940000Y-116700000D02*
X182600000Y-116700000D01*
X201240000Y-111400000D02*
X195940000Y-116700000D01*
X177890000Y-123710000D02*
X177890000Y-128500000D01*
X184100000Y-117500000D02*
X177890000Y-123710000D01*
X197680000Y-117500000D02*
X184100000Y-117500000D01*
X203780000Y-111400000D02*
X197680000Y-117500000D01*
X200400000Y-118300000D02*
X185000000Y-118300000D01*
X180430000Y-122870000D02*
X180430000Y-128500000D01*
X185000000Y-118300000D02*
X180430000Y-122870000D01*
X206320000Y-112380000D02*
X200400000Y-118300000D01*
X206320000Y-111400000D02*
X206320000Y-112380000D01*
X182970000Y-123030000D02*
X182970000Y-128500000D01*
X186800000Y-119200000D02*
X182970000Y-123030000D01*
X201060000Y-119200000D02*
X186800000Y-119200000D01*
X208860000Y-111400000D02*
X201060000Y-119200000D01*
X185510000Y-124925000D02*
X185510000Y-128500000D01*
X190235000Y-120200000D02*
X185510000Y-124925000D01*
X202600000Y-120200000D02*
X190235000Y-120200000D01*
X211400000Y-111400000D02*
X202600000Y-120200000D01*
X188050000Y-124250000D02*
X188050000Y-128500000D01*
X191200000Y-121100000D02*
X188050000Y-124250000D01*
X204700000Y-121100000D02*
X191200000Y-121100000D01*
X213940000Y-111860000D02*
X204700000Y-121100000D01*
X213940000Y-111400000D02*
X213940000Y-111860000D01*
X190590000Y-124925000D02*
X190590000Y-128500000D01*
X193515000Y-122000000D02*
X190590000Y-124925000D01*
X205900000Y-122000000D02*
X193515000Y-122000000D01*
X214879990Y-113020010D02*
X205900000Y-122000000D01*
X214879990Y-113000010D02*
X214879990Y-113020010D01*
X216480000Y-111400000D02*
X214879990Y-113000010D01*
D22*
X231099999Y-128369999D02*
X231099999Y-124200001D01*
X231230000Y-128500000D02*
X231099999Y-128369999D01*
X230000000Y-123100002D02*
X230000000Y-119900000D01*
X231099999Y-124200001D02*
X230000000Y-123100002D01*
D21*
X207300000Y-81100000D02*
X207900000Y-81700000D01*
X207900000Y-81700000D02*
X207900000Y-80200000D01*
X115340000Y-62440000D02*
X117000000Y-62440000D01*
X111000000Y-58100000D02*
X115340000Y-62440000D01*
X105620000Y-58100000D02*
X111000000Y-58100000D01*
X103820000Y-59900000D02*
X105620000Y-58100000D01*
X117000000Y-62440000D02*
X117000000Y-65200000D01*
X117000000Y-65200000D02*
X142400000Y-90600000D01*
X142400000Y-90600000D02*
X166100000Y-90600000D01*
X168220000Y-92720000D02*
X168220000Y-96160000D01*
X166100000Y-90600000D02*
X168220000Y-92720000D01*
X179200001Y-95339999D02*
X179200001Y-64700001D01*
X178380000Y-96160000D02*
X179200001Y-95339999D01*
X178020000Y-63520000D02*
X178020000Y-60400000D01*
X179200001Y-64700001D02*
X178020000Y-63520000D01*
X175480000Y-64980000D02*
X175480000Y-60400000D01*
X176800000Y-66300000D02*
X175480000Y-64980000D01*
X176800000Y-88800000D02*
X176800000Y-66300000D01*
X174600000Y-91000000D02*
X176800000Y-88800000D01*
X174600000Y-98200000D02*
X174600000Y-91000000D01*
X175800000Y-99400000D02*
X174600000Y-98200000D01*
X179300000Y-99400000D02*
X175800000Y-99400000D01*
X180920000Y-97780000D02*
X179300000Y-99400000D01*
X180920000Y-96160000D02*
X180920000Y-97780000D01*
X206320000Y-96160000D02*
X206320000Y-95480000D01*
X101700000Y-56800000D02*
X115600000Y-56800000D01*
X101280000Y-57220000D02*
X101700000Y-56800000D01*
X117000000Y-58200000D02*
X117000000Y-59900000D01*
X115600000Y-56800000D02*
X117000000Y-58200000D01*
X101280000Y-59900000D02*
X101280000Y-57220000D01*
X201240000Y-96160000D02*
X201240000Y-93760000D01*
X203420000Y-91580000D02*
X203420000Y-85800000D01*
X201240000Y-93760000D02*
X203420000Y-91580000D01*
X203280000Y-83400000D02*
X200880000Y-85800000D01*
X205700000Y-83400000D02*
X203280000Y-83400000D01*
X207200000Y-84900000D02*
X205700000Y-83400000D01*
X207200000Y-95280000D02*
X207200000Y-84900000D01*
X206320000Y-96160000D02*
X207200000Y-95280000D01*
X200880000Y-62180000D02*
X200880000Y-60400000D01*
X202000000Y-63300000D02*
X200880000Y-62180000D01*
X223700000Y-63300000D02*
X202000000Y-63300000D01*
X223499990Y-99500010D02*
X228600000Y-94400000D01*
X213140010Y-99500010D02*
X223499990Y-99500010D01*
X211400000Y-97760000D02*
X213140010Y-99500010D01*
X228600000Y-68200000D02*
X223700000Y-63300000D01*
X228600000Y-94400000D02*
X228600000Y-68200000D01*
X211400000Y-96160000D02*
X211400000Y-97760000D01*
X199500000Y-64500000D02*
X198340000Y-63340000D01*
X223000000Y-64500000D02*
X199500000Y-64500000D01*
X227500000Y-69000000D02*
X223000000Y-64500000D01*
X227500000Y-93900000D02*
X227500000Y-69000000D01*
X222500000Y-98900000D02*
X227500000Y-93900000D01*
X198340000Y-63340000D02*
X198340000Y-60400000D01*
X216680000Y-98900000D02*
X222500000Y-98900000D01*
X213940000Y-96160000D02*
X216680000Y-98900000D01*
X194400000Y-65500000D02*
X193260000Y-64360000D01*
X222500000Y-65500000D02*
X194400000Y-65500000D01*
X226400000Y-69400000D02*
X222500000Y-65500000D01*
X226400000Y-93400000D02*
X226400000Y-69400000D01*
X221800000Y-98000000D02*
X226400000Y-93400000D01*
X218320000Y-98000000D02*
X221800000Y-98000000D01*
X193260000Y-64360000D02*
X193260000Y-60400000D01*
X216480000Y-96160000D02*
X218320000Y-98000000D01*
X222100000Y-66700000D02*
X193600000Y-66700000D01*
X190720000Y-63820000D02*
X190720000Y-60400000D01*
X225300000Y-69900000D02*
X222100000Y-66700000D01*
X225300000Y-93100000D02*
X225300000Y-69900000D01*
X193600000Y-66700000D02*
X190720000Y-63820000D01*
X222240000Y-96160000D02*
X225300000Y-93100000D01*
X219020000Y-96160000D02*
X222240000Y-96160000D01*
X193130000Y-124925000D02*
X193130000Y-128500000D01*
X207500000Y-122900000D02*
X195155000Y-122900000D01*
X217800000Y-106700000D02*
X217800000Y-112600000D01*
X216900000Y-105800000D02*
X217800000Y-106700000D01*
X217800000Y-112600000D02*
X207500000Y-122900000D01*
X129600000Y-105800000D02*
X216900000Y-105800000D01*
X96200000Y-72400000D02*
X129600000Y-105800000D01*
X195155000Y-122900000D02*
X193130000Y-124925000D01*
X96200000Y-59900000D02*
X96200000Y-72400000D01*
X165680000Y-113920000D02*
X165680000Y-111400000D01*
X164100000Y-115500000D02*
X165680000Y-113920000D01*
X135600000Y-115500000D02*
X164100000Y-115500000D01*
X92900000Y-57500000D02*
X92900000Y-72800000D01*
X92900000Y-72800000D02*
X135600000Y-115500000D01*
X93900000Y-56500000D02*
X92900000Y-57500000D01*
X97880000Y-56500000D02*
X93900000Y-56500000D01*
X101280000Y-59900000D02*
X97880000Y-56500000D01*
X119540000Y-62440000D02*
X122340000Y-62440000D01*
X140749999Y-71049999D02*
X142000000Y-72300000D01*
X130949999Y-71049999D02*
X140749999Y-71049999D01*
X122340000Y-62440000D02*
X130949999Y-71049999D01*
X119540000Y-59900000D02*
X123100000Y-59900000D01*
X140749999Y-68509999D02*
X142000000Y-69760000D01*
X131709999Y-68509999D02*
X140749999Y-68509999D01*
X123100000Y-59900000D02*
X131709999Y-68509999D01*
D23*
X240640000Y-123927000D02*
X233585419Y-123927000D01*
X233553000Y-123923807D01*
X233520581Y-123927000D01*
X233423617Y-123936550D01*
X233299207Y-123974290D01*
X233184550Y-124035575D01*
X233084052Y-124118052D01*
X233038957Y-124173000D01*
X195062868Y-124173000D01*
X195500868Y-123735000D01*
X207458982Y-123735000D01*
X207500000Y-123739040D01*
X207541018Y-123735000D01*
X207541019Y-123735000D01*
X207663689Y-123722918D01*
X207821087Y-123675172D01*
X207966146Y-123597636D01*
X208093291Y-123493291D01*
X208119446Y-123461421D01*
X210759598Y-120821269D01*
X229258336Y-120821269D01*
X229317797Y-121055037D01*
X229556242Y-121165934D01*
X229811740Y-121228183D01*
X230074473Y-121239390D01*
X230334344Y-121199125D01*
X230581366Y-121108935D01*
X230682203Y-121055037D01*
X230741664Y-120821269D01*
X230000000Y-120079605D01*
X229258336Y-120821269D01*
X210759598Y-120821269D01*
X211606394Y-119974473D01*
X228660610Y-119974473D01*
X228700875Y-120234344D01*
X228791065Y-120481366D01*
X228844963Y-120582203D01*
X229078731Y-120641664D01*
X229820395Y-119900000D01*
X230179605Y-119900000D01*
X230921269Y-120641664D01*
X231155037Y-120582203D01*
X231251592Y-120374596D01*
X231316939Y-120532359D01*
X231463038Y-120751013D01*
X231648987Y-120936962D01*
X231867641Y-121083061D01*
X232110595Y-121183696D01*
X232368514Y-121235000D01*
X232631486Y-121235000D01*
X232889405Y-121183696D01*
X233132359Y-121083061D01*
X233351013Y-120936962D01*
X233536962Y-120751013D01*
X233683061Y-120532359D01*
X233783696Y-120289405D01*
X233835000Y-120031486D01*
X233835000Y-119768514D01*
X233783696Y-119510595D01*
X233683061Y-119267641D01*
X233536962Y-119048987D01*
X233351013Y-118863038D01*
X233132359Y-118716939D01*
X232889405Y-118616304D01*
X232631486Y-118565000D01*
X232368514Y-118565000D01*
X232110595Y-118616304D01*
X231867641Y-118716939D01*
X231648987Y-118863038D01*
X231463038Y-119048987D01*
X231316939Y-119267641D01*
X231249639Y-119430118D01*
X231208935Y-119318634D01*
X231155037Y-119217797D01*
X230921269Y-119158336D01*
X230179605Y-119900000D01*
X229820395Y-119900000D01*
X229078731Y-119158336D01*
X228844963Y-119217797D01*
X228734066Y-119456242D01*
X228671817Y-119711740D01*
X228660610Y-119974473D01*
X211606394Y-119974473D01*
X212602136Y-118978731D01*
X229258336Y-118978731D01*
X230000000Y-119720395D01*
X230741664Y-118978731D01*
X230682203Y-118744963D01*
X230443758Y-118634066D01*
X230188260Y-118571817D01*
X229925527Y-118560610D01*
X229665656Y-118600875D01*
X229418634Y-118691065D01*
X229317797Y-118744963D01*
X229258336Y-118978731D01*
X212602136Y-118978731D01*
X217091751Y-114489117D01*
X232865000Y-114489117D01*
X232865000Y-114830883D01*
X232931675Y-115166081D01*
X233062463Y-115481831D01*
X233252337Y-115765998D01*
X233494002Y-116007663D01*
X233778169Y-116197537D01*
X234093919Y-116328325D01*
X234429117Y-116395000D01*
X234770883Y-116395000D01*
X235106081Y-116328325D01*
X235421831Y-116197537D01*
X235705998Y-116007663D01*
X235947663Y-115765998D01*
X236137537Y-115481831D01*
X236268325Y-115166081D01*
X236335000Y-114830883D01*
X236335000Y-114489117D01*
X236268325Y-114153919D01*
X236137537Y-113838169D01*
X235947663Y-113554002D01*
X235705998Y-113312337D01*
X235421831Y-113122463D01*
X235106081Y-112991675D01*
X234770883Y-112925000D01*
X234429117Y-112925000D01*
X234093919Y-112991675D01*
X233778169Y-113122463D01*
X233494002Y-113312337D01*
X233252337Y-113554002D01*
X233062463Y-113838169D01*
X232931675Y-114153919D01*
X232865000Y-114489117D01*
X217091751Y-114489117D01*
X218361432Y-113219437D01*
X218393291Y-113193291D01*
X218424575Y-113155172D01*
X218455273Y-113117766D01*
X218588182Y-113174367D01*
X218670961Y-113191904D01*
X218893000Y-113069915D01*
X218893000Y-111527000D01*
X219147000Y-111527000D01*
X219147000Y-113069915D01*
X219369039Y-113191904D01*
X219451818Y-113174367D01*
X219711646Y-113063715D01*
X219944895Y-112904500D01*
X220142601Y-112702839D01*
X220297166Y-112466483D01*
X220402650Y-112204514D01*
X220455000Y-111927000D01*
X220455000Y-111527000D01*
X219147000Y-111527000D01*
X218893000Y-111527000D01*
X218873000Y-111527000D01*
X218873000Y-111273000D01*
X218893000Y-111273000D01*
X218893000Y-109730085D01*
X219147000Y-109730085D01*
X219147000Y-111273000D01*
X220455000Y-111273000D01*
X220455000Y-110873000D01*
X220402650Y-110595486D01*
X220297166Y-110333517D01*
X220142601Y-110097161D01*
X219944895Y-109895500D01*
X219711646Y-109736285D01*
X219451818Y-109625633D01*
X219369039Y-109608096D01*
X219147000Y-109730085D01*
X218893000Y-109730085D01*
X218670961Y-109608096D01*
X218635000Y-109615714D01*
X218635000Y-106741015D01*
X218639040Y-106699999D01*
X218626745Y-106575172D01*
X218622918Y-106536311D01*
X218575172Y-106378913D01*
X218497636Y-106233854D01*
X218393291Y-106106709D01*
X218361427Y-106080560D01*
X217519446Y-105238579D01*
X217493291Y-105206709D01*
X217366146Y-105102364D01*
X217221087Y-105024828D01*
X217063689Y-104977082D01*
X216941019Y-104965000D01*
X216941018Y-104965000D01*
X216900000Y-104960960D01*
X216858982Y-104965000D01*
X129945868Y-104965000D01*
X128380868Y-103400000D01*
X232861928Y-103400000D01*
X232861928Y-105600000D01*
X232874188Y-105724482D01*
X232910498Y-105844180D01*
X232969463Y-105954494D01*
X233048815Y-106051185D01*
X233145506Y-106130537D01*
X233255820Y-106189502D01*
X233375518Y-106225812D01*
X233500000Y-106238072D01*
X235700000Y-106238072D01*
X235824482Y-106225812D01*
X235944180Y-106189502D01*
X236054494Y-106130537D01*
X236151185Y-106051185D01*
X236230537Y-105954494D01*
X236289502Y-105844180D01*
X236325812Y-105724482D01*
X236338072Y-105600000D01*
X236338072Y-103400000D01*
X236325812Y-103275518D01*
X236289502Y-103155820D01*
X236230537Y-103045506D01*
X236151185Y-102948815D01*
X236054494Y-102869463D01*
X235944180Y-102810498D01*
X235824482Y-102774188D01*
X235700000Y-102761928D01*
X233500000Y-102761928D01*
X233375518Y-102774188D01*
X233255820Y-102810498D01*
X233145506Y-102869463D01*
X233048815Y-102948815D01*
X232969463Y-103045506D01*
X232910498Y-103155820D01*
X232874188Y-103275518D01*
X232861928Y-103400000D01*
X128380868Y-103400000D01*
X124202137Y-99221269D01*
X153658336Y-99221269D01*
X153717797Y-99455037D01*
X153956242Y-99565934D01*
X154211740Y-99628183D01*
X154474473Y-99639390D01*
X154734344Y-99599125D01*
X154981366Y-99508935D01*
X155082203Y-99455037D01*
X155141664Y-99221269D01*
X154400000Y-98479605D01*
X153658336Y-99221269D01*
X124202137Y-99221269D01*
X123355341Y-98374473D01*
X153060610Y-98374473D01*
X153100875Y-98634344D01*
X153191065Y-98881366D01*
X153244963Y-98982203D01*
X153478731Y-99041664D01*
X154220395Y-98300000D01*
X154579605Y-98300000D01*
X155321269Y-99041664D01*
X155555037Y-98982203D01*
X155665934Y-98743758D01*
X155728183Y-98488260D01*
X155739390Y-98225527D01*
X155699125Y-97965656D01*
X155608935Y-97718634D01*
X155555037Y-97617797D01*
X155321269Y-97558336D01*
X154579605Y-98300000D01*
X154220395Y-98300000D01*
X153478731Y-97558336D01*
X153244963Y-97617797D01*
X153134066Y-97856242D01*
X153071817Y-98111740D01*
X153060610Y-98374473D01*
X123355341Y-98374473D01*
X120649382Y-95668514D01*
X153065000Y-95668514D01*
X153065000Y-95931486D01*
X153116304Y-96189405D01*
X153216939Y-96432359D01*
X153363038Y-96651013D01*
X153548987Y-96836962D01*
X153767641Y-96983061D01*
X153930118Y-97050361D01*
X153818634Y-97091065D01*
X153717797Y-97144963D01*
X153658336Y-97378731D01*
X154400000Y-98120395D01*
X155141664Y-97378731D01*
X155082203Y-97144963D01*
X154874596Y-97048408D01*
X155032359Y-96983061D01*
X155251013Y-96836962D01*
X155436962Y-96651013D01*
X155583061Y-96432359D01*
X155683696Y-96189405D01*
X155735000Y-95931486D01*
X155735000Y-95689509D01*
X159165000Y-95689509D01*
X159165000Y-96630492D01*
X159185764Y-96841309D01*
X159267818Y-97111808D01*
X159401068Y-97361101D01*
X159580393Y-97579608D01*
X159798900Y-97758932D01*
X160048193Y-97892182D01*
X160318692Y-97974236D01*
X160600000Y-98001943D01*
X160881309Y-97974236D01*
X161151808Y-97892182D01*
X161401101Y-97758932D01*
X161619608Y-97579608D01*
X161798932Y-97361101D01*
X161867265Y-97233259D01*
X162017399Y-97462839D01*
X162215105Y-97664500D01*
X162448354Y-97823715D01*
X162708182Y-97934367D01*
X162790961Y-97951904D01*
X163013000Y-97829915D01*
X163013000Y-96287000D01*
X162993000Y-96287000D01*
X162993000Y-96033000D01*
X163013000Y-96033000D01*
X163013000Y-94490085D01*
X162790961Y-94368096D01*
X162708182Y-94385633D01*
X162448354Y-94496285D01*
X162215105Y-94655500D01*
X162017399Y-94857161D01*
X161867265Y-95086741D01*
X161798932Y-94958899D01*
X161619607Y-94740392D01*
X161401100Y-94561068D01*
X161151807Y-94427818D01*
X160881308Y-94345764D01*
X160600000Y-94318057D01*
X160318691Y-94345764D01*
X160048192Y-94427818D01*
X159798899Y-94561068D01*
X159580392Y-94740393D01*
X159401068Y-94958900D01*
X159267818Y-95208193D01*
X159185764Y-95478692D01*
X159165000Y-95689509D01*
X155735000Y-95689509D01*
X155735000Y-95668514D01*
X155683696Y-95410595D01*
X155583061Y-95167641D01*
X155436962Y-94948987D01*
X155251013Y-94763038D01*
X155032359Y-94616939D01*
X154789405Y-94516304D01*
X154531486Y-94465000D01*
X154268514Y-94465000D01*
X154010595Y-94516304D01*
X153767641Y-94616939D01*
X153548987Y-94763038D01*
X153363038Y-94948987D01*
X153216939Y-95167641D01*
X153116304Y-95410595D01*
X153065000Y-95668514D01*
X120649382Y-95668514D01*
X97035000Y-72054133D01*
X97035000Y-61388072D01*
X97050000Y-61388072D01*
X97174482Y-61375812D01*
X97294180Y-61339502D01*
X97404494Y-61280537D01*
X97501185Y-61201185D01*
X97580537Y-61104494D01*
X97639502Y-60994180D01*
X97661513Y-60921620D01*
X97793368Y-61053475D01*
X98036589Y-61215990D01*
X98306842Y-61327932D01*
X98593740Y-61385000D01*
X98886260Y-61385000D01*
X99173158Y-61327932D01*
X99443411Y-61215990D01*
X99686632Y-61053475D01*
X99893475Y-60846632D01*
X100010000Y-60672240D01*
X100126525Y-60846632D01*
X100333368Y-61053475D01*
X100576589Y-61215990D01*
X100846842Y-61327932D01*
X101133740Y-61385000D01*
X101426260Y-61385000D01*
X101713158Y-61327932D01*
X101983411Y-61215990D01*
X102226632Y-61053475D01*
X102433475Y-60846632D01*
X102550000Y-60672240D01*
X102666525Y-60846632D01*
X102873368Y-61053475D01*
X103116589Y-61215990D01*
X103386842Y-61327932D01*
X103673740Y-61385000D01*
X103966260Y-61385000D01*
X104253158Y-61327932D01*
X104523411Y-61215990D01*
X104766632Y-61053475D01*
X104973475Y-60846632D01*
X105090000Y-60672240D01*
X105206525Y-60846632D01*
X105413368Y-61053475D01*
X105656589Y-61215990D01*
X105926842Y-61327932D01*
X106213740Y-61385000D01*
X106506260Y-61385000D01*
X106793158Y-61327932D01*
X107063411Y-61215990D01*
X107306632Y-61053475D01*
X107513475Y-60846632D01*
X107675990Y-60603411D01*
X107787932Y-60333158D01*
X107845000Y-60046260D01*
X107845000Y-59753740D01*
X107787932Y-59466842D01*
X107675990Y-59196589D01*
X107513475Y-58953368D01*
X107495107Y-58935000D01*
X110654133Y-58935000D01*
X114720563Y-63001432D01*
X114746709Y-63033291D01*
X114778568Y-63059437D01*
X114778570Y-63059439D01*
X114873854Y-63137636D01*
X115018913Y-63215172D01*
X115176311Y-63262918D01*
X115340000Y-63279040D01*
X115381018Y-63275000D01*
X115771935Y-63275000D01*
X115846525Y-63386632D01*
X116053368Y-63593475D01*
X116165000Y-63668065D01*
X116165001Y-65158972D01*
X116160960Y-65200000D01*
X116177082Y-65363688D01*
X116224828Y-65521086D01*
X116302364Y-65666145D01*
X116313955Y-65680269D01*
X116406710Y-65793291D01*
X116438574Y-65819441D01*
X141780559Y-91161427D01*
X141806709Y-91193291D01*
X141933854Y-91297636D01*
X142078913Y-91375172D01*
X142236311Y-91422918D01*
X142358981Y-91435000D01*
X142358991Y-91435000D01*
X142399999Y-91439039D01*
X142441007Y-91435000D01*
X165754133Y-91435000D01*
X167385000Y-93065869D01*
X167385001Y-94588888D01*
X167200392Y-94740393D01*
X167021068Y-94958900D01*
X166950000Y-95091858D01*
X166878932Y-94958899D01*
X166699607Y-94740392D01*
X166481100Y-94561068D01*
X166231807Y-94427818D01*
X165961308Y-94345764D01*
X165680000Y-94318057D01*
X165398691Y-94345764D01*
X165128192Y-94427818D01*
X164878899Y-94561068D01*
X164660392Y-94740393D01*
X164481068Y-94958900D01*
X164412735Y-95086742D01*
X164262601Y-94857161D01*
X164064895Y-94655500D01*
X163831646Y-94496285D01*
X163571818Y-94385633D01*
X163489039Y-94368096D01*
X163267000Y-94490085D01*
X163267000Y-96033000D01*
X163287000Y-96033000D01*
X163287000Y-96287000D01*
X163267000Y-96287000D01*
X163267000Y-97829915D01*
X163489039Y-97951904D01*
X163571818Y-97934367D01*
X163831646Y-97823715D01*
X164064895Y-97664500D01*
X164262601Y-97462839D01*
X164412735Y-97233259D01*
X164481068Y-97361101D01*
X164660393Y-97579608D01*
X164878900Y-97758932D01*
X165128193Y-97892182D01*
X165398692Y-97974236D01*
X165680000Y-98001943D01*
X165961309Y-97974236D01*
X166231808Y-97892182D01*
X166481101Y-97758932D01*
X166699608Y-97579608D01*
X166878932Y-97361101D01*
X166950000Y-97228142D01*
X167021068Y-97361101D01*
X167200393Y-97579608D01*
X167418900Y-97758932D01*
X167668193Y-97892182D01*
X167938692Y-97974236D01*
X168220000Y-98001943D01*
X168501309Y-97974236D01*
X168771808Y-97892182D01*
X169021101Y-97758932D01*
X169239608Y-97579608D01*
X169418932Y-97361101D01*
X169487265Y-97233259D01*
X169637399Y-97462839D01*
X169835105Y-97664500D01*
X170068354Y-97823715D01*
X170328182Y-97934367D01*
X170410961Y-97951904D01*
X170633000Y-97829915D01*
X170633000Y-96287000D01*
X170887000Y-96287000D01*
X170887000Y-97829915D01*
X171109039Y-97951904D01*
X171191818Y-97934367D01*
X171451646Y-97823715D01*
X171684895Y-97664500D01*
X171882601Y-97462839D01*
X172030000Y-97237441D01*
X172177399Y-97462839D01*
X172375105Y-97664500D01*
X172608354Y-97823715D01*
X172868182Y-97934367D01*
X172950961Y-97951904D01*
X173173000Y-97829915D01*
X173173000Y-96287000D01*
X170887000Y-96287000D01*
X170633000Y-96287000D01*
X170613000Y-96287000D01*
X170613000Y-96033000D01*
X170633000Y-96033000D01*
X170633000Y-94490085D01*
X170887000Y-94490085D01*
X170887000Y-96033000D01*
X173173000Y-96033000D01*
X173173000Y-94490085D01*
X172950961Y-94368096D01*
X172868182Y-94385633D01*
X172608354Y-94496285D01*
X172375105Y-94655500D01*
X172177399Y-94857161D01*
X172030000Y-95082559D01*
X171882601Y-94857161D01*
X171684895Y-94655500D01*
X171451646Y-94496285D01*
X171191818Y-94385633D01*
X171109039Y-94368096D01*
X170887000Y-94490085D01*
X170633000Y-94490085D01*
X170410961Y-94368096D01*
X170328182Y-94385633D01*
X170068354Y-94496285D01*
X169835105Y-94655500D01*
X169637399Y-94857161D01*
X169487265Y-95086741D01*
X169418932Y-94958899D01*
X169239607Y-94740392D01*
X169055000Y-94588889D01*
X169055000Y-92761018D01*
X169059040Y-92720000D01*
X169042918Y-92556312D01*
X169042532Y-92555037D01*
X168995172Y-92398913D01*
X168917636Y-92253854D01*
X168813291Y-92126709D01*
X168781433Y-92100564D01*
X166719446Y-90038579D01*
X166693291Y-90006709D01*
X166566146Y-89902364D01*
X166421087Y-89824828D01*
X166263689Y-89777082D01*
X166141019Y-89765000D01*
X166141018Y-89765000D01*
X166100000Y-89760960D01*
X166058982Y-89765000D01*
X142745868Y-89765000D01*
X138000868Y-85020000D01*
X171521928Y-85020000D01*
X171521928Y-86580000D01*
X171534188Y-86704482D01*
X171570498Y-86824180D01*
X171629463Y-86934494D01*
X171708815Y-87031185D01*
X171805506Y-87110537D01*
X171915820Y-87169502D01*
X172035518Y-87205812D01*
X172160000Y-87218072D01*
X173720000Y-87218072D01*
X173844482Y-87205812D01*
X173964180Y-87169502D01*
X174074494Y-87110537D01*
X174171185Y-87031185D01*
X174250537Y-86934494D01*
X174309502Y-86824180D01*
X174345812Y-86704482D01*
X174350531Y-86656564D01*
X174380897Y-86702010D01*
X174577990Y-86899103D01*
X174809746Y-87053957D01*
X175067260Y-87160623D01*
X175340635Y-87215000D01*
X175619365Y-87215000D01*
X175892740Y-87160623D01*
X175965000Y-87130692D01*
X175965000Y-88454131D01*
X174038574Y-90380559D01*
X174006710Y-90406709D01*
X173980562Y-90438571D01*
X173902364Y-90533855D01*
X173824828Y-90678914D01*
X173777082Y-90836312D01*
X173760960Y-91000000D01*
X173765001Y-91041028D01*
X173765001Y-94399764D01*
X173731818Y-94385633D01*
X173649039Y-94368096D01*
X173427000Y-94490085D01*
X173427000Y-96033000D01*
X173447000Y-96033000D01*
X173447000Y-96287000D01*
X173427000Y-96287000D01*
X173427000Y-97829915D01*
X173649039Y-97951904D01*
X173731818Y-97934367D01*
X173765000Y-97920236D01*
X173765000Y-98158981D01*
X173760960Y-98200000D01*
X173765000Y-98241018D01*
X173777082Y-98363688D01*
X173824828Y-98521086D01*
X173902364Y-98666145D01*
X174006709Y-98793291D01*
X174038579Y-98819446D01*
X175180558Y-99961426D01*
X175206709Y-99993291D01*
X175333854Y-100097636D01*
X175478913Y-100175172D01*
X175636311Y-100222918D01*
X175758981Y-100235000D01*
X175758991Y-100235000D01*
X175799999Y-100239039D01*
X175841007Y-100235000D01*
X179258982Y-100235000D01*
X179300000Y-100239040D01*
X179341018Y-100235000D01*
X179341019Y-100235000D01*
X179463689Y-100222918D01*
X179621087Y-100175172D01*
X179766146Y-100097636D01*
X179893291Y-99993291D01*
X179919446Y-99961421D01*
X181481426Y-98399441D01*
X181513291Y-98373291D01*
X181617636Y-98246146D01*
X181695172Y-98101087D01*
X181742918Y-97943689D01*
X181755000Y-97821019D01*
X181759040Y-97780000D01*
X181755000Y-97738982D01*
X181755000Y-97731112D01*
X181939608Y-97579608D01*
X182118932Y-97361101D01*
X182190000Y-97228142D01*
X182261068Y-97361101D01*
X182440393Y-97579608D01*
X182658900Y-97758932D01*
X182908193Y-97892182D01*
X183178692Y-97974236D01*
X183460000Y-98001943D01*
X183741309Y-97974236D01*
X184011808Y-97892182D01*
X184261101Y-97758932D01*
X184479608Y-97579608D01*
X184658932Y-97361101D01*
X184730000Y-97228142D01*
X184801068Y-97361101D01*
X184980393Y-97579608D01*
X185198900Y-97758932D01*
X185448193Y-97892182D01*
X185718692Y-97974236D01*
X186000000Y-98001943D01*
X186281309Y-97974236D01*
X186551808Y-97892182D01*
X186801101Y-97758932D01*
X187019608Y-97579608D01*
X187198932Y-97361101D01*
X187270000Y-97228142D01*
X187341068Y-97361101D01*
X187520393Y-97579608D01*
X187738900Y-97758932D01*
X187988193Y-97892182D01*
X188258692Y-97974236D01*
X188540000Y-98001943D01*
X188821309Y-97974236D01*
X189091808Y-97892182D01*
X189341101Y-97758932D01*
X189559608Y-97579608D01*
X189738932Y-97361101D01*
X189810000Y-97228142D01*
X189881068Y-97361101D01*
X190060393Y-97579608D01*
X190278900Y-97758932D01*
X190528193Y-97892182D01*
X190798692Y-97974236D01*
X191080000Y-98001943D01*
X191361309Y-97974236D01*
X191631808Y-97892182D01*
X191881101Y-97758932D01*
X192099608Y-97579608D01*
X192278932Y-97361101D01*
X192350000Y-97228142D01*
X192421068Y-97361101D01*
X192600393Y-97579608D01*
X192818900Y-97758932D01*
X193068193Y-97892182D01*
X193338692Y-97974236D01*
X193620000Y-98001943D01*
X193901309Y-97974236D01*
X194171808Y-97892182D01*
X194421101Y-97758932D01*
X194639608Y-97579608D01*
X194818932Y-97361101D01*
X194887265Y-97233259D01*
X195037399Y-97462839D01*
X195235105Y-97664500D01*
X195468354Y-97823715D01*
X195728182Y-97934367D01*
X195810961Y-97951904D01*
X196033000Y-97829915D01*
X196033000Y-96287000D01*
X196287000Y-96287000D01*
X196287000Y-97829915D01*
X196509039Y-97951904D01*
X196591818Y-97934367D01*
X196851646Y-97823715D01*
X197084895Y-97664500D01*
X197282601Y-97462839D01*
X197430000Y-97237441D01*
X197577399Y-97462839D01*
X197775105Y-97664500D01*
X198008354Y-97823715D01*
X198268182Y-97934367D01*
X198350961Y-97951904D01*
X198573000Y-97829915D01*
X198573000Y-96287000D01*
X196287000Y-96287000D01*
X196033000Y-96287000D01*
X196013000Y-96287000D01*
X196013000Y-96033000D01*
X196033000Y-96033000D01*
X196033000Y-94490085D01*
X196287000Y-94490085D01*
X196287000Y-96033000D01*
X198573000Y-96033000D01*
X198573000Y-94490085D01*
X198350961Y-94368096D01*
X198268182Y-94385633D01*
X198008354Y-94496285D01*
X197775105Y-94655500D01*
X197577399Y-94857161D01*
X197430000Y-95082559D01*
X197282601Y-94857161D01*
X197084895Y-94655500D01*
X196851646Y-94496285D01*
X196591818Y-94385633D01*
X196509039Y-94368096D01*
X196287000Y-94490085D01*
X196033000Y-94490085D01*
X195810961Y-94368096D01*
X195728182Y-94385633D01*
X195468354Y-94496285D01*
X195235105Y-94655500D01*
X195037399Y-94857161D01*
X194887265Y-95086741D01*
X194818932Y-94958899D01*
X194639607Y-94740392D01*
X194421100Y-94561068D01*
X194171807Y-94427818D01*
X193901308Y-94345764D01*
X193620000Y-94318057D01*
X193338691Y-94345764D01*
X193068192Y-94427818D01*
X192818899Y-94561068D01*
X192600392Y-94740393D01*
X192421068Y-94958900D01*
X192350000Y-95091858D01*
X192278932Y-94958899D01*
X192099607Y-94740392D01*
X191881100Y-94561068D01*
X191631807Y-94427818D01*
X191361308Y-94345764D01*
X191080000Y-94318057D01*
X190798691Y-94345764D01*
X190528192Y-94427818D01*
X190278899Y-94561068D01*
X190060392Y-94740393D01*
X189881068Y-94958900D01*
X189810000Y-95091858D01*
X189738932Y-94958899D01*
X189559607Y-94740392D01*
X189341100Y-94561068D01*
X189091807Y-94427818D01*
X188821308Y-94345764D01*
X188540000Y-94318057D01*
X188258691Y-94345764D01*
X187988192Y-94427818D01*
X187738899Y-94561068D01*
X187520392Y-94740393D01*
X187341068Y-94958900D01*
X187270000Y-95091858D01*
X187198932Y-94958899D01*
X187019607Y-94740392D01*
X186801100Y-94561068D01*
X186551807Y-94427818D01*
X186281308Y-94345764D01*
X186000000Y-94318057D01*
X185718691Y-94345764D01*
X185448192Y-94427818D01*
X185198899Y-94561068D01*
X184980392Y-94740393D01*
X184801068Y-94958900D01*
X184730000Y-95091858D01*
X184658932Y-94958899D01*
X184479607Y-94740392D01*
X184261100Y-94561068D01*
X184011807Y-94427818D01*
X183741308Y-94345764D01*
X183460000Y-94318057D01*
X183178691Y-94345764D01*
X182908192Y-94427818D01*
X182658899Y-94561068D01*
X182440392Y-94740393D01*
X182261068Y-94958900D01*
X182190000Y-95091858D01*
X182118932Y-94958899D01*
X181939607Y-94740392D01*
X181721100Y-94561068D01*
X181471807Y-94427818D01*
X181201308Y-94345764D01*
X180920000Y-94318057D01*
X180638691Y-94345764D01*
X180368192Y-94427818D01*
X180118899Y-94561068D01*
X180035001Y-94629922D01*
X180035001Y-87114124D01*
X180147260Y-87160623D01*
X180420635Y-87215000D01*
X180699365Y-87215000D01*
X180972740Y-87160623D01*
X181230254Y-87053957D01*
X181462010Y-86899103D01*
X181659103Y-86702010D01*
X181813957Y-86470254D01*
X181830000Y-86431523D01*
X181846043Y-86470254D01*
X182000897Y-86702010D01*
X182197990Y-86899103D01*
X182429746Y-87053957D01*
X182687260Y-87160623D01*
X182960635Y-87215000D01*
X183239365Y-87215000D01*
X183512740Y-87160623D01*
X183770254Y-87053957D01*
X184002010Y-86899103D01*
X184199103Y-86702010D01*
X184353957Y-86470254D01*
X184370000Y-86431523D01*
X184386043Y-86470254D01*
X184540897Y-86702010D01*
X184737990Y-86899103D01*
X184969746Y-87053957D01*
X185227260Y-87160623D01*
X185500635Y-87215000D01*
X185779365Y-87215000D01*
X186052740Y-87160623D01*
X186310254Y-87053957D01*
X186542010Y-86899103D01*
X186739103Y-86702010D01*
X186893957Y-86470254D01*
X186910000Y-86431523D01*
X186926043Y-86470254D01*
X187080897Y-86702010D01*
X187277990Y-86899103D01*
X187509746Y-87053957D01*
X187767260Y-87160623D01*
X188040635Y-87215000D01*
X188319365Y-87215000D01*
X188592740Y-87160623D01*
X188850254Y-87053957D01*
X189082010Y-86899103D01*
X189279103Y-86702010D01*
X189433957Y-86470254D01*
X189450000Y-86431523D01*
X189466043Y-86470254D01*
X189620897Y-86702010D01*
X189817990Y-86899103D01*
X190049746Y-87053957D01*
X190307260Y-87160623D01*
X190580635Y-87215000D01*
X190859365Y-87215000D01*
X191132740Y-87160623D01*
X191390254Y-87053957D01*
X191622010Y-86899103D01*
X191819103Y-86702010D01*
X191973957Y-86470254D01*
X191990000Y-86431523D01*
X192006043Y-86470254D01*
X192160897Y-86702010D01*
X192357990Y-86899103D01*
X192589746Y-87053957D01*
X192847260Y-87160623D01*
X193120635Y-87215000D01*
X193399365Y-87215000D01*
X193672740Y-87160623D01*
X193930254Y-87053957D01*
X194162010Y-86899103D01*
X194359103Y-86702010D01*
X194513957Y-86470254D01*
X194530000Y-86431523D01*
X194546043Y-86470254D01*
X194700897Y-86702010D01*
X194897990Y-86899103D01*
X195129746Y-87053957D01*
X195387260Y-87160623D01*
X195660635Y-87215000D01*
X195939365Y-87215000D01*
X196212740Y-87160623D01*
X196470254Y-87053957D01*
X196702010Y-86899103D01*
X196899103Y-86702010D01*
X197053957Y-86470254D01*
X197070000Y-86431523D01*
X197086043Y-86470254D01*
X197240897Y-86702010D01*
X197437990Y-86899103D01*
X197669746Y-87053957D01*
X197927260Y-87160623D01*
X198200635Y-87215000D01*
X198479365Y-87215000D01*
X198752740Y-87160623D01*
X199010254Y-87053957D01*
X199242010Y-86899103D01*
X199439103Y-86702010D01*
X199593957Y-86470254D01*
X199610000Y-86431523D01*
X199626043Y-86470254D01*
X199780897Y-86702010D01*
X199977990Y-86899103D01*
X200209746Y-87053957D01*
X200467260Y-87160623D01*
X200740635Y-87215000D01*
X201019365Y-87215000D01*
X201292740Y-87160623D01*
X201550254Y-87053957D01*
X201782010Y-86899103D01*
X201979103Y-86702010D01*
X202133957Y-86470254D01*
X202150000Y-86431523D01*
X202166043Y-86470254D01*
X202320897Y-86702010D01*
X202517990Y-86899103D01*
X202585001Y-86943878D01*
X202585000Y-91234131D01*
X200678574Y-93140559D01*
X200646710Y-93166709D01*
X200620562Y-93198571D01*
X200542364Y-93293855D01*
X200464828Y-93438914D01*
X200417082Y-93596312D01*
X200400960Y-93760000D01*
X200405001Y-93801028D01*
X200405001Y-94588888D01*
X200220392Y-94740393D01*
X200041068Y-94958900D01*
X199972735Y-95086742D01*
X199822601Y-94857161D01*
X199624895Y-94655500D01*
X199391646Y-94496285D01*
X199131818Y-94385633D01*
X199049039Y-94368096D01*
X198827000Y-94490085D01*
X198827000Y-96033000D01*
X198847000Y-96033000D01*
X198847000Y-96287000D01*
X198827000Y-96287000D01*
X198827000Y-97829915D01*
X199049039Y-97951904D01*
X199131818Y-97934367D01*
X199391646Y-97823715D01*
X199624895Y-97664500D01*
X199822601Y-97462839D01*
X199972735Y-97233259D01*
X200041068Y-97361101D01*
X200220393Y-97579608D01*
X200438900Y-97758932D01*
X200688193Y-97892182D01*
X200958692Y-97974236D01*
X201240000Y-98001943D01*
X201521309Y-97974236D01*
X201791808Y-97892182D01*
X202041101Y-97758932D01*
X202259608Y-97579608D01*
X202438932Y-97361101D01*
X202510000Y-97228142D01*
X202581068Y-97361101D01*
X202760393Y-97579608D01*
X202978900Y-97758932D01*
X203228193Y-97892182D01*
X203498692Y-97974236D01*
X203780000Y-98001943D01*
X204061309Y-97974236D01*
X204331808Y-97892182D01*
X204581101Y-97758932D01*
X204799608Y-97579608D01*
X204978932Y-97361101D01*
X205050000Y-97228142D01*
X205121068Y-97361101D01*
X205300393Y-97579608D01*
X205518900Y-97758932D01*
X205768193Y-97892182D01*
X206038692Y-97974236D01*
X206320000Y-98001943D01*
X206601309Y-97974236D01*
X206871808Y-97892182D01*
X207121101Y-97758932D01*
X207339608Y-97579608D01*
X207518932Y-97361101D01*
X207590000Y-97228142D01*
X207661068Y-97361101D01*
X207840393Y-97579608D01*
X208058900Y-97758932D01*
X208308193Y-97892182D01*
X208578692Y-97974236D01*
X208860000Y-98001943D01*
X209141309Y-97974236D01*
X209411808Y-97892182D01*
X209661101Y-97758932D01*
X209879608Y-97579608D01*
X210058932Y-97361101D01*
X210130000Y-97228142D01*
X210201068Y-97361101D01*
X210380393Y-97579608D01*
X210563895Y-97730204D01*
X210560960Y-97760000D01*
X210577082Y-97923688D01*
X210624828Y-98081086D01*
X210702364Y-98226145D01*
X210725907Y-98254832D01*
X210806710Y-98353291D01*
X210838574Y-98379441D01*
X212520573Y-100061442D01*
X212546719Y-100093301D01*
X212673864Y-100197646D01*
X212818923Y-100275182D01*
X212976321Y-100322928D01*
X213098991Y-100335010D01*
X213098992Y-100335010D01*
X213140010Y-100339050D01*
X213181028Y-100335010D01*
X223458972Y-100335010D01*
X223499990Y-100339050D01*
X223541008Y-100335010D01*
X223541009Y-100335010D01*
X223663679Y-100322928D01*
X223821077Y-100275182D01*
X223966136Y-100197646D01*
X224093281Y-100093301D01*
X224119436Y-100061431D01*
X229161428Y-95019440D01*
X229193291Y-94993291D01*
X229297636Y-94866146D01*
X229375172Y-94721087D01*
X229422918Y-94563689D01*
X229435000Y-94441019D01*
X229435000Y-94441009D01*
X229439039Y-94400001D01*
X229435000Y-94358993D01*
X229435000Y-92321269D01*
X231158336Y-92321269D01*
X231217797Y-92555037D01*
X231456242Y-92665934D01*
X231711740Y-92728183D01*
X231974473Y-92739390D01*
X232234344Y-92699125D01*
X232481366Y-92608935D01*
X232582203Y-92555037D01*
X232641664Y-92321269D01*
X231900000Y-91579605D01*
X231158336Y-92321269D01*
X229435000Y-92321269D01*
X229435000Y-91474473D01*
X230560610Y-91474473D01*
X230600875Y-91734344D01*
X230691065Y-91981366D01*
X230744963Y-92082203D01*
X230978731Y-92141664D01*
X231720395Y-91400000D01*
X232079605Y-91400000D01*
X232821269Y-92141664D01*
X233055037Y-92082203D01*
X233151592Y-91874596D01*
X233216939Y-92032359D01*
X233363038Y-92251013D01*
X233548987Y-92436962D01*
X233767641Y-92583061D01*
X234010595Y-92683696D01*
X234268514Y-92735000D01*
X234531486Y-92735000D01*
X234789405Y-92683696D01*
X235032359Y-92583061D01*
X235251013Y-92436962D01*
X235436962Y-92251013D01*
X235583061Y-92032359D01*
X235683696Y-91789405D01*
X235735000Y-91531486D01*
X235735000Y-91268514D01*
X235683696Y-91010595D01*
X235583061Y-90767641D01*
X235436962Y-90548987D01*
X235251013Y-90363038D01*
X235032359Y-90216939D01*
X234789405Y-90116304D01*
X234531486Y-90065000D01*
X234268514Y-90065000D01*
X234010595Y-90116304D01*
X233767641Y-90216939D01*
X233548987Y-90363038D01*
X233363038Y-90548987D01*
X233216939Y-90767641D01*
X233149639Y-90930118D01*
X233108935Y-90818634D01*
X233055037Y-90717797D01*
X232821269Y-90658336D01*
X232079605Y-91400000D01*
X231720395Y-91400000D01*
X230978731Y-90658336D01*
X230744963Y-90717797D01*
X230634066Y-90956242D01*
X230571817Y-91211740D01*
X230560610Y-91474473D01*
X229435000Y-91474473D01*
X229435000Y-90478731D01*
X231158336Y-90478731D01*
X231900000Y-91220395D01*
X232641664Y-90478731D01*
X232582203Y-90244963D01*
X232343758Y-90134066D01*
X232088260Y-90071817D01*
X231825527Y-90060610D01*
X231565656Y-90100875D01*
X231318634Y-90191065D01*
X231217797Y-90244963D01*
X231158336Y-90478731D01*
X229435000Y-90478731D01*
X229435000Y-68241007D01*
X229439039Y-68199999D01*
X229435000Y-68158991D01*
X229435000Y-68158981D01*
X229422918Y-68036311D01*
X229375172Y-67878913D01*
X229297636Y-67733854D01*
X229193291Y-67606709D01*
X229161427Y-67580559D01*
X224319446Y-62738579D01*
X224293291Y-62706709D01*
X224166146Y-62602364D01*
X224021087Y-62524828D01*
X223863689Y-62477082D01*
X223741019Y-62465000D01*
X223741018Y-62465000D01*
X223700000Y-62460960D01*
X223658982Y-62465000D01*
X202345868Y-62465000D01*
X201715000Y-61834133D01*
X201715000Y-61543878D01*
X201782010Y-61499103D01*
X201979103Y-61302010D01*
X202133957Y-61070254D01*
X202150000Y-61031523D01*
X202166043Y-61070254D01*
X202320897Y-61302010D01*
X202517990Y-61499103D01*
X202749746Y-61653957D01*
X203007260Y-61760623D01*
X203280635Y-61815000D01*
X203559365Y-61815000D01*
X203832740Y-61760623D01*
X204090254Y-61653957D01*
X204322010Y-61499103D01*
X204519103Y-61302010D01*
X204673957Y-61070254D01*
X204690000Y-61031523D01*
X204706043Y-61070254D01*
X204860897Y-61302010D01*
X205057990Y-61499103D01*
X205289746Y-61653957D01*
X205547260Y-61760623D01*
X205820635Y-61815000D01*
X206099365Y-61815000D01*
X206372740Y-61760623D01*
X206630254Y-61653957D01*
X206862010Y-61499103D01*
X207059103Y-61302010D01*
X207213957Y-61070254D01*
X207230000Y-61031523D01*
X207246043Y-61070254D01*
X207400897Y-61302010D01*
X207597990Y-61499103D01*
X207829746Y-61653957D01*
X208087260Y-61760623D01*
X208360635Y-61815000D01*
X208639365Y-61815000D01*
X208912740Y-61760623D01*
X209170254Y-61653957D01*
X209402010Y-61499103D01*
X209599103Y-61302010D01*
X209753957Y-61070254D01*
X209770000Y-61031523D01*
X209786043Y-61070254D01*
X209940897Y-61302010D01*
X210137990Y-61499103D01*
X210369746Y-61653957D01*
X210627260Y-61760623D01*
X210900635Y-61815000D01*
X211179365Y-61815000D01*
X211452740Y-61760623D01*
X211710254Y-61653957D01*
X211942010Y-61499103D01*
X212139103Y-61302010D01*
X212293957Y-61070254D01*
X212310000Y-61031523D01*
X212326043Y-61070254D01*
X212480897Y-61302010D01*
X212677990Y-61499103D01*
X212909746Y-61653957D01*
X213167260Y-61760623D01*
X213440635Y-61815000D01*
X213719365Y-61815000D01*
X213992740Y-61760623D01*
X214250254Y-61653957D01*
X214482010Y-61499103D01*
X214679103Y-61302010D01*
X214833957Y-61070254D01*
X214850000Y-61031523D01*
X214866043Y-61070254D01*
X215020897Y-61302010D01*
X215217990Y-61499103D01*
X215449746Y-61653957D01*
X215707260Y-61760623D01*
X215980635Y-61815000D01*
X216259365Y-61815000D01*
X216532740Y-61760623D01*
X216790254Y-61653957D01*
X217022010Y-61499103D01*
X217219103Y-61302010D01*
X217373957Y-61070254D01*
X217390000Y-61031523D01*
X217406043Y-61070254D01*
X217560897Y-61302010D01*
X217757990Y-61499103D01*
X217989746Y-61653957D01*
X218247260Y-61760623D01*
X218520635Y-61815000D01*
X218799365Y-61815000D01*
X219072740Y-61760623D01*
X219330254Y-61653957D01*
X219562010Y-61499103D01*
X219759103Y-61302010D01*
X219913957Y-61070254D01*
X220020623Y-60812740D01*
X220075000Y-60539365D01*
X220075000Y-60260635D01*
X220020623Y-59987260D01*
X219913957Y-59729746D01*
X219759103Y-59497990D01*
X219562010Y-59300897D01*
X219330254Y-59146043D01*
X219072740Y-59039377D01*
X218799365Y-58985000D01*
X218520635Y-58985000D01*
X218247260Y-59039377D01*
X217989746Y-59146043D01*
X217757990Y-59300897D01*
X217560897Y-59497990D01*
X217406043Y-59729746D01*
X217390000Y-59768477D01*
X217373957Y-59729746D01*
X217219103Y-59497990D01*
X217022010Y-59300897D01*
X216790254Y-59146043D01*
X216532740Y-59039377D01*
X216259365Y-58985000D01*
X215980635Y-58985000D01*
X215707260Y-59039377D01*
X215449746Y-59146043D01*
X215217990Y-59300897D01*
X215020897Y-59497990D01*
X214866043Y-59729746D01*
X214850000Y-59768477D01*
X214833957Y-59729746D01*
X214679103Y-59497990D01*
X214482010Y-59300897D01*
X214250254Y-59146043D01*
X213992740Y-59039377D01*
X213719365Y-58985000D01*
X213440635Y-58985000D01*
X213167260Y-59039377D01*
X212909746Y-59146043D01*
X212677990Y-59300897D01*
X212480897Y-59497990D01*
X212326043Y-59729746D01*
X212310000Y-59768477D01*
X212293957Y-59729746D01*
X212139103Y-59497990D01*
X211942010Y-59300897D01*
X211710254Y-59146043D01*
X211452740Y-59039377D01*
X211179365Y-58985000D01*
X210900635Y-58985000D01*
X210627260Y-59039377D01*
X210369746Y-59146043D01*
X210137990Y-59300897D01*
X209940897Y-59497990D01*
X209786043Y-59729746D01*
X209770000Y-59768477D01*
X209753957Y-59729746D01*
X209599103Y-59497990D01*
X209402010Y-59300897D01*
X209170254Y-59146043D01*
X208912740Y-59039377D01*
X208639365Y-58985000D01*
X208360635Y-58985000D01*
X208087260Y-59039377D01*
X207829746Y-59146043D01*
X207597990Y-59300897D01*
X207400897Y-59497990D01*
X207246043Y-59729746D01*
X207230000Y-59768477D01*
X207213957Y-59729746D01*
X207059103Y-59497990D01*
X206862010Y-59300897D01*
X206630254Y-59146043D01*
X206372740Y-59039377D01*
X206099365Y-58985000D01*
X205820635Y-58985000D01*
X205547260Y-59039377D01*
X205289746Y-59146043D01*
X205057990Y-59300897D01*
X204860897Y-59497990D01*
X204706043Y-59729746D01*
X204690000Y-59768477D01*
X204673957Y-59729746D01*
X204519103Y-59497990D01*
X204322010Y-59300897D01*
X204090254Y-59146043D01*
X203832740Y-59039377D01*
X203559365Y-58985000D01*
X203280635Y-58985000D01*
X203007260Y-59039377D01*
X202749746Y-59146043D01*
X202517990Y-59300897D01*
X202320897Y-59497990D01*
X202166043Y-59729746D01*
X202150000Y-59768477D01*
X202133957Y-59729746D01*
X201979103Y-59497990D01*
X201782010Y-59300897D01*
X201550254Y-59146043D01*
X201292740Y-59039377D01*
X201019365Y-58985000D01*
X200740635Y-58985000D01*
X200467260Y-59039377D01*
X200209746Y-59146043D01*
X199977990Y-59300897D01*
X199780897Y-59497990D01*
X199626043Y-59729746D01*
X199610000Y-59768477D01*
X199593957Y-59729746D01*
X199439103Y-59497990D01*
X199242010Y-59300897D01*
X199010254Y-59146043D01*
X198752740Y-59039377D01*
X198479365Y-58985000D01*
X198200635Y-58985000D01*
X197927260Y-59039377D01*
X197669746Y-59146043D01*
X197437990Y-59300897D01*
X197240897Y-59497990D01*
X197086043Y-59729746D01*
X197070000Y-59768477D01*
X197053957Y-59729746D01*
X196899103Y-59497990D01*
X196702010Y-59300897D01*
X196470254Y-59146043D01*
X196212740Y-59039377D01*
X195939365Y-58985000D01*
X195660635Y-58985000D01*
X195387260Y-59039377D01*
X195129746Y-59146043D01*
X194897990Y-59300897D01*
X194700897Y-59497990D01*
X194546043Y-59729746D01*
X194530000Y-59768477D01*
X194513957Y-59729746D01*
X194359103Y-59497990D01*
X194162010Y-59300897D01*
X193930254Y-59146043D01*
X193672740Y-59039377D01*
X193399365Y-58985000D01*
X193120635Y-58985000D01*
X192847260Y-59039377D01*
X192589746Y-59146043D01*
X192357990Y-59300897D01*
X192160897Y-59497990D01*
X192006043Y-59729746D01*
X191990000Y-59768477D01*
X191973957Y-59729746D01*
X191819103Y-59497990D01*
X191622010Y-59300897D01*
X191390254Y-59146043D01*
X191132740Y-59039377D01*
X190859365Y-58985000D01*
X190580635Y-58985000D01*
X190307260Y-59039377D01*
X190049746Y-59146043D01*
X189817990Y-59300897D01*
X189620897Y-59497990D01*
X189466043Y-59729746D01*
X189451223Y-59765525D01*
X189400349Y-59670345D01*
X189158421Y-59601184D01*
X188359605Y-60400000D01*
X189158421Y-61198816D01*
X189400349Y-61129655D01*
X189448425Y-61027721D01*
X189466043Y-61070254D01*
X189620897Y-61302010D01*
X189817990Y-61499103D01*
X189885001Y-61543878D01*
X189885000Y-63778981D01*
X189880960Y-63820000D01*
X189888179Y-63893291D01*
X189897082Y-63983688D01*
X189944828Y-64141086D01*
X190022364Y-64286145D01*
X190126709Y-64413291D01*
X190158579Y-64439446D01*
X192980559Y-67261427D01*
X193006709Y-67293291D01*
X193072154Y-67347000D01*
X193133854Y-67397636D01*
X193278913Y-67475172D01*
X193436311Y-67522918D01*
X193599999Y-67539040D01*
X193641018Y-67535000D01*
X221754133Y-67535000D01*
X224465001Y-70245869D01*
X224465000Y-92754132D01*
X221894133Y-95325000D01*
X220387615Y-95325000D01*
X220352182Y-95208192D01*
X220218932Y-94958899D01*
X220039607Y-94740392D01*
X219821100Y-94561068D01*
X219571807Y-94427818D01*
X219301308Y-94345764D01*
X219020000Y-94318057D01*
X218738691Y-94345764D01*
X218468192Y-94427818D01*
X218218899Y-94561068D01*
X218000392Y-94740393D01*
X217821068Y-94958900D01*
X217750000Y-95091858D01*
X217678932Y-94958899D01*
X217499607Y-94740392D01*
X217281100Y-94561068D01*
X217031807Y-94427818D01*
X216761308Y-94345764D01*
X216480000Y-94318057D01*
X216198691Y-94345764D01*
X215928192Y-94427818D01*
X215678899Y-94561068D01*
X215460392Y-94740393D01*
X215281068Y-94958900D01*
X215210000Y-95091858D01*
X215138932Y-94958899D01*
X214959607Y-94740392D01*
X214741100Y-94561068D01*
X214491807Y-94427818D01*
X214221308Y-94345764D01*
X213940000Y-94318057D01*
X213658691Y-94345764D01*
X213388192Y-94427818D01*
X213138899Y-94561068D01*
X212920392Y-94740393D01*
X212741068Y-94958900D01*
X212670000Y-95091858D01*
X212598932Y-94958899D01*
X212419607Y-94740392D01*
X212201100Y-94561068D01*
X211951807Y-94427818D01*
X211681308Y-94345764D01*
X211400000Y-94318057D01*
X211118691Y-94345764D01*
X210848192Y-94427818D01*
X210598899Y-94561068D01*
X210380392Y-94740393D01*
X210201068Y-94958900D01*
X210130000Y-95091858D01*
X210058932Y-94958899D01*
X209879607Y-94740392D01*
X209661100Y-94561068D01*
X209411807Y-94427818D01*
X209141308Y-94345764D01*
X208860000Y-94318057D01*
X208578691Y-94345764D01*
X208308192Y-94427818D01*
X208058899Y-94561068D01*
X208035000Y-94580682D01*
X208035000Y-87138976D01*
X208087260Y-87160623D01*
X208360635Y-87215000D01*
X208639365Y-87215000D01*
X208912740Y-87160623D01*
X209170254Y-87053957D01*
X209402010Y-86899103D01*
X209599103Y-86702010D01*
X209753957Y-86470254D01*
X209770000Y-86431523D01*
X209786043Y-86470254D01*
X209940897Y-86702010D01*
X210137990Y-86899103D01*
X210369746Y-87053957D01*
X210627260Y-87160623D01*
X210900635Y-87215000D01*
X211179365Y-87215000D01*
X211452740Y-87160623D01*
X211710254Y-87053957D01*
X211942010Y-86899103D01*
X212139103Y-86702010D01*
X212293957Y-86470254D01*
X212310000Y-86431523D01*
X212326043Y-86470254D01*
X212480897Y-86702010D01*
X212677990Y-86899103D01*
X212909746Y-87053957D01*
X213167260Y-87160623D01*
X213440635Y-87215000D01*
X213719365Y-87215000D01*
X213992740Y-87160623D01*
X214250254Y-87053957D01*
X214482010Y-86899103D01*
X214679103Y-86702010D01*
X214833957Y-86470254D01*
X214850000Y-86431523D01*
X214866043Y-86470254D01*
X215020897Y-86702010D01*
X215217990Y-86899103D01*
X215449746Y-87053957D01*
X215707260Y-87160623D01*
X215980635Y-87215000D01*
X216259365Y-87215000D01*
X216532740Y-87160623D01*
X216790254Y-87053957D01*
X217022010Y-86899103D01*
X217219103Y-86702010D01*
X217373957Y-86470254D01*
X217390000Y-86431523D01*
X217406043Y-86470254D01*
X217560897Y-86702010D01*
X217757990Y-86899103D01*
X217989746Y-87053957D01*
X218247260Y-87160623D01*
X218520635Y-87215000D01*
X218799365Y-87215000D01*
X219072740Y-87160623D01*
X219330254Y-87053957D01*
X219562010Y-86899103D01*
X219759103Y-86702010D01*
X219913957Y-86470254D01*
X220020623Y-86212740D01*
X220075000Y-85939365D01*
X220075000Y-85660635D01*
X220020623Y-85387260D01*
X219913957Y-85129746D01*
X219759103Y-84897990D01*
X219562010Y-84700897D01*
X219330254Y-84546043D01*
X219072740Y-84439377D01*
X218799365Y-84385000D01*
X218520635Y-84385000D01*
X218247260Y-84439377D01*
X217989746Y-84546043D01*
X217757990Y-84700897D01*
X217560897Y-84897990D01*
X217406043Y-85129746D01*
X217390000Y-85168477D01*
X217373957Y-85129746D01*
X217219103Y-84897990D01*
X217022010Y-84700897D01*
X216790254Y-84546043D01*
X216532740Y-84439377D01*
X216259365Y-84385000D01*
X215980635Y-84385000D01*
X215707260Y-84439377D01*
X215449746Y-84546043D01*
X215217990Y-84700897D01*
X215020897Y-84897990D01*
X214866043Y-85129746D01*
X214850000Y-85168477D01*
X214833957Y-85129746D01*
X214679103Y-84897990D01*
X214482010Y-84700897D01*
X214250254Y-84546043D01*
X213992740Y-84439377D01*
X213719365Y-84385000D01*
X213440635Y-84385000D01*
X213167260Y-84439377D01*
X212909746Y-84546043D01*
X212677990Y-84700897D01*
X212480897Y-84897990D01*
X212326043Y-85129746D01*
X212310000Y-85168477D01*
X212293957Y-85129746D01*
X212139103Y-84897990D01*
X211942010Y-84700897D01*
X211710254Y-84546043D01*
X211452740Y-84439377D01*
X211179365Y-84385000D01*
X210900635Y-84385000D01*
X210627260Y-84439377D01*
X210369746Y-84546043D01*
X210137990Y-84700897D01*
X209940897Y-84897990D01*
X209786043Y-85129746D01*
X209770000Y-85168477D01*
X209753957Y-85129746D01*
X209599103Y-84897990D01*
X209402010Y-84700897D01*
X209170254Y-84546043D01*
X208912740Y-84439377D01*
X208639365Y-84385000D01*
X208360635Y-84385000D01*
X208087260Y-84439377D01*
X207934426Y-84502683D01*
X207897636Y-84433854D01*
X207793291Y-84306709D01*
X207761426Y-84280559D01*
X206319446Y-82838579D01*
X206293291Y-82806709D01*
X206166146Y-82702364D01*
X206021087Y-82624828D01*
X205863689Y-82577082D01*
X205741019Y-82565000D01*
X205741018Y-82565000D01*
X205700000Y-82560960D01*
X205658982Y-82565000D01*
X203321018Y-82565000D01*
X203280000Y-82560960D01*
X203238982Y-82565000D01*
X203238981Y-82565000D01*
X203116311Y-82577082D01*
X202958913Y-82624828D01*
X202813854Y-82702364D01*
X202686709Y-82806709D01*
X202660563Y-82838568D01*
X201098410Y-84400723D01*
X201019365Y-84385000D01*
X200740635Y-84385000D01*
X200467260Y-84439377D01*
X200209746Y-84546043D01*
X199977990Y-84700897D01*
X199780897Y-84897990D01*
X199626043Y-85129746D01*
X199610000Y-85168477D01*
X199593957Y-85129746D01*
X199439103Y-84897990D01*
X199242010Y-84700897D01*
X199010254Y-84546043D01*
X198752740Y-84439377D01*
X198479365Y-84385000D01*
X198200635Y-84385000D01*
X197927260Y-84439377D01*
X197669746Y-84546043D01*
X197437990Y-84700897D01*
X197240897Y-84897990D01*
X197086043Y-85129746D01*
X197070000Y-85168477D01*
X197053957Y-85129746D01*
X196899103Y-84897990D01*
X196702010Y-84700897D01*
X196470254Y-84546043D01*
X196212740Y-84439377D01*
X195939365Y-84385000D01*
X195660635Y-84385000D01*
X195387260Y-84439377D01*
X195129746Y-84546043D01*
X194897990Y-84700897D01*
X194700897Y-84897990D01*
X194546043Y-85129746D01*
X194530000Y-85168477D01*
X194513957Y-85129746D01*
X194359103Y-84897990D01*
X194162010Y-84700897D01*
X193930254Y-84546043D01*
X193672740Y-84439377D01*
X193399365Y-84385000D01*
X193120635Y-84385000D01*
X192847260Y-84439377D01*
X192589746Y-84546043D01*
X192357990Y-84700897D01*
X192160897Y-84897990D01*
X192006043Y-85129746D01*
X191990000Y-85168477D01*
X191973957Y-85129746D01*
X191819103Y-84897990D01*
X191622010Y-84700897D01*
X191390254Y-84546043D01*
X191132740Y-84439377D01*
X190859365Y-84385000D01*
X190580635Y-84385000D01*
X190307260Y-84439377D01*
X190049746Y-84546043D01*
X189817990Y-84700897D01*
X189620897Y-84897990D01*
X189466043Y-85129746D01*
X189450000Y-85168477D01*
X189433957Y-85129746D01*
X189279103Y-84897990D01*
X189082010Y-84700897D01*
X188850254Y-84546043D01*
X188592740Y-84439377D01*
X188319365Y-84385000D01*
X188040635Y-84385000D01*
X187767260Y-84439377D01*
X187509746Y-84546043D01*
X187277990Y-84700897D01*
X187080897Y-84897990D01*
X186926043Y-85129746D01*
X186910000Y-85168477D01*
X186893957Y-85129746D01*
X186739103Y-84897990D01*
X186542010Y-84700897D01*
X186310254Y-84546043D01*
X186052740Y-84439377D01*
X185779365Y-84385000D01*
X185500635Y-84385000D01*
X185227260Y-84439377D01*
X184969746Y-84546043D01*
X184737990Y-84700897D01*
X184540897Y-84897990D01*
X184386043Y-85129746D01*
X184370000Y-85168477D01*
X184353957Y-85129746D01*
X184199103Y-84897990D01*
X184002010Y-84700897D01*
X183770254Y-84546043D01*
X183512740Y-84439377D01*
X183239365Y-84385000D01*
X182960635Y-84385000D01*
X182687260Y-84439377D01*
X182429746Y-84546043D01*
X182197990Y-84700897D01*
X182000897Y-84897990D01*
X181846043Y-85129746D01*
X181830000Y-85168477D01*
X181813957Y-85129746D01*
X181659103Y-84897990D01*
X181462010Y-84700897D01*
X181230254Y-84546043D01*
X180972740Y-84439377D01*
X180699365Y-84385000D01*
X180420635Y-84385000D01*
X180147260Y-84439377D01*
X180035001Y-84485876D01*
X180035001Y-64741008D01*
X180039040Y-64700000D01*
X180035001Y-64658992D01*
X180035001Y-64658982D01*
X180022919Y-64536312D01*
X179975173Y-64378914D01*
X179897637Y-64233855D01*
X179793292Y-64106710D01*
X179761427Y-64080559D01*
X178855000Y-63174133D01*
X178855000Y-61543878D01*
X178922010Y-61499103D01*
X179119103Y-61302010D01*
X179273957Y-61070254D01*
X179290000Y-61031523D01*
X179306043Y-61070254D01*
X179460897Y-61302010D01*
X179657990Y-61499103D01*
X179889746Y-61653957D01*
X180147260Y-61760623D01*
X180420635Y-61815000D01*
X180699365Y-61815000D01*
X180972740Y-61760623D01*
X181230254Y-61653957D01*
X181462010Y-61499103D01*
X181659103Y-61302010D01*
X181813957Y-61070254D01*
X181830000Y-61031523D01*
X181846043Y-61070254D01*
X182000897Y-61302010D01*
X182197990Y-61499103D01*
X182429746Y-61653957D01*
X182687260Y-61760623D01*
X182960635Y-61815000D01*
X183239365Y-61815000D01*
X183512740Y-61760623D01*
X183770254Y-61653957D01*
X184002010Y-61499103D01*
X184199103Y-61302010D01*
X184353957Y-61070254D01*
X184370000Y-61031523D01*
X184386043Y-61070254D01*
X184540897Y-61302010D01*
X184737990Y-61499103D01*
X184969746Y-61653957D01*
X185227260Y-61760623D01*
X185500635Y-61815000D01*
X185779365Y-61815000D01*
X186052740Y-61760623D01*
X186310254Y-61653957D01*
X186542010Y-61499103D01*
X186662692Y-61378421D01*
X187381184Y-61378421D01*
X187450345Y-61620349D01*
X187702443Y-61739248D01*
X187972894Y-61806681D01*
X188251303Y-61820057D01*
X188526972Y-61778860D01*
X188789308Y-61684675D01*
X188909655Y-61620349D01*
X188978816Y-61378421D01*
X188180000Y-60579605D01*
X187381184Y-61378421D01*
X186662692Y-61378421D01*
X186739103Y-61302010D01*
X186893957Y-61070254D01*
X186908777Y-61034475D01*
X186959651Y-61129655D01*
X187201579Y-61198816D01*
X188000395Y-60400000D01*
X187201579Y-59601184D01*
X186959651Y-59670345D01*
X186911575Y-59772279D01*
X186893957Y-59729746D01*
X186739103Y-59497990D01*
X186662692Y-59421579D01*
X187381184Y-59421579D01*
X188180000Y-60220395D01*
X188978816Y-59421579D01*
X188909655Y-59179651D01*
X188657557Y-59060752D01*
X188387106Y-58993319D01*
X188108697Y-58979943D01*
X187833028Y-59021140D01*
X187570692Y-59115325D01*
X187450345Y-59179651D01*
X187381184Y-59421579D01*
X186662692Y-59421579D01*
X186542010Y-59300897D01*
X186310254Y-59146043D01*
X186052740Y-59039377D01*
X185779365Y-58985000D01*
X185500635Y-58985000D01*
X185227260Y-59039377D01*
X184969746Y-59146043D01*
X184737990Y-59300897D01*
X184540897Y-59497990D01*
X184386043Y-59729746D01*
X184370000Y-59768477D01*
X184353957Y-59729746D01*
X184199103Y-59497990D01*
X184002010Y-59300897D01*
X183770254Y-59146043D01*
X183512740Y-59039377D01*
X183239365Y-58985000D01*
X182960635Y-58985000D01*
X182687260Y-59039377D01*
X182429746Y-59146043D01*
X182197990Y-59300897D01*
X182000897Y-59497990D01*
X181846043Y-59729746D01*
X181830000Y-59768477D01*
X181813957Y-59729746D01*
X181659103Y-59497990D01*
X181462010Y-59300897D01*
X181230254Y-59146043D01*
X180972740Y-59039377D01*
X180699365Y-58985000D01*
X180420635Y-58985000D01*
X180147260Y-59039377D01*
X179889746Y-59146043D01*
X179657990Y-59300897D01*
X179460897Y-59497990D01*
X179306043Y-59729746D01*
X179290000Y-59768477D01*
X179273957Y-59729746D01*
X179119103Y-59497990D01*
X178922010Y-59300897D01*
X178690254Y-59146043D01*
X178432740Y-59039377D01*
X178159365Y-58985000D01*
X177880635Y-58985000D01*
X177607260Y-59039377D01*
X177349746Y-59146043D01*
X177117990Y-59300897D01*
X176920897Y-59497990D01*
X176766043Y-59729746D01*
X176750000Y-59768477D01*
X176733957Y-59729746D01*
X176579103Y-59497990D01*
X176382010Y-59300897D01*
X176150254Y-59146043D01*
X175892740Y-59039377D01*
X175619365Y-58985000D01*
X175340635Y-58985000D01*
X175067260Y-59039377D01*
X174809746Y-59146043D01*
X174577990Y-59300897D01*
X174380897Y-59497990D01*
X174226043Y-59729746D01*
X174211223Y-59765525D01*
X174160349Y-59670345D01*
X173918421Y-59601184D01*
X173119605Y-60400000D01*
X173918421Y-61198816D01*
X174160349Y-61129655D01*
X174208425Y-61027721D01*
X174226043Y-61070254D01*
X174380897Y-61302010D01*
X174577990Y-61499103D01*
X174645001Y-61543878D01*
X174645000Y-64938981D01*
X174640960Y-64980000D01*
X174645000Y-65021018D01*
X174657082Y-65143688D01*
X174704828Y-65301086D01*
X174782364Y-65446145D01*
X174886709Y-65573291D01*
X174918578Y-65599446D01*
X175965001Y-66645870D01*
X175965000Y-84469308D01*
X175892740Y-84439377D01*
X175619365Y-84385000D01*
X175340635Y-84385000D01*
X175067260Y-84439377D01*
X174809746Y-84546043D01*
X174577990Y-84700897D01*
X174380897Y-84897990D01*
X174350531Y-84943436D01*
X174345812Y-84895518D01*
X174309502Y-84775820D01*
X174250537Y-84665506D01*
X174171185Y-84568815D01*
X174074494Y-84489463D01*
X173964180Y-84430498D01*
X173844482Y-84394188D01*
X173720000Y-84381928D01*
X172160000Y-84381928D01*
X172035518Y-84394188D01*
X171915820Y-84430498D01*
X171805506Y-84489463D01*
X171708815Y-84568815D01*
X171629463Y-84665506D01*
X171570498Y-84775820D01*
X171534188Y-84895518D01*
X171521928Y-85020000D01*
X138000868Y-85020000D01*
X117835000Y-64854133D01*
X117835000Y-63668065D01*
X117946632Y-63593475D01*
X118153475Y-63386632D01*
X118270000Y-63212240D01*
X118386525Y-63386632D01*
X118593368Y-63593475D01*
X118836589Y-63755990D01*
X119106842Y-63867932D01*
X119393740Y-63925000D01*
X119686260Y-63925000D01*
X119973158Y-63867932D01*
X120243411Y-63755990D01*
X120486632Y-63593475D01*
X120693475Y-63386632D01*
X120768065Y-63275000D01*
X121994133Y-63275000D01*
X130330558Y-71611426D01*
X130356708Y-71643290D01*
X130483853Y-71747635D01*
X130628912Y-71825171D01*
X130786310Y-71872917D01*
X130908980Y-71884999D01*
X130908990Y-71884999D01*
X130949998Y-71889038D01*
X130991006Y-71884999D01*
X138028456Y-71884999D01*
X137975000Y-72153740D01*
X137975000Y-72446260D01*
X138032068Y-72733158D01*
X138144010Y-73003411D01*
X138306525Y-73246632D01*
X138513368Y-73453475D01*
X138687760Y-73570000D01*
X138513368Y-73686525D01*
X138306525Y-73893368D01*
X138144010Y-74136589D01*
X138032068Y-74406842D01*
X137975000Y-74693740D01*
X137975000Y-74986260D01*
X138032068Y-75273158D01*
X138144010Y-75543411D01*
X138306525Y-75786632D01*
X138513368Y-75993475D01*
X138687760Y-76110000D01*
X138513368Y-76226525D01*
X138306525Y-76433368D01*
X138144010Y-76676589D01*
X138032068Y-76946842D01*
X137975000Y-77233740D01*
X137975000Y-77526260D01*
X138032068Y-77813158D01*
X138144010Y-78083411D01*
X138306525Y-78326632D01*
X138513368Y-78533475D01*
X138756589Y-78695990D01*
X139026842Y-78807932D01*
X139313740Y-78865000D01*
X139606260Y-78865000D01*
X139893158Y-78807932D01*
X140163411Y-78695990D01*
X140406632Y-78533475D01*
X140613475Y-78326632D01*
X140730000Y-78152240D01*
X140846525Y-78326632D01*
X141053368Y-78533475D01*
X141296589Y-78695990D01*
X141566842Y-78807932D01*
X141853740Y-78865000D01*
X142146260Y-78865000D01*
X142433158Y-78807932D01*
X142703411Y-78695990D01*
X142946632Y-78533475D01*
X143153475Y-78326632D01*
X143315990Y-78083411D01*
X143427932Y-77813158D01*
X143485000Y-77526260D01*
X143485000Y-77233740D01*
X143427932Y-76946842D01*
X143315990Y-76676589D01*
X143153475Y-76433368D01*
X142946632Y-76226525D01*
X142772240Y-76110000D01*
X142946632Y-75993475D01*
X143153475Y-75786632D01*
X143315990Y-75543411D01*
X143427932Y-75273158D01*
X143485000Y-74986260D01*
X143485000Y-74693740D01*
X143427932Y-74406842D01*
X143315990Y-74136589D01*
X143153475Y-73893368D01*
X142946632Y-73686525D01*
X142772240Y-73570000D01*
X142946632Y-73453475D01*
X143153475Y-73246632D01*
X143315990Y-73003411D01*
X143427932Y-72733158D01*
X143485000Y-72446260D01*
X143485000Y-72153740D01*
X143427932Y-71866842D01*
X143315990Y-71596589D01*
X143153475Y-71353368D01*
X142946632Y-71146525D01*
X142772240Y-71030000D01*
X142946632Y-70913475D01*
X143153475Y-70706632D01*
X143315990Y-70463411D01*
X143427932Y-70193158D01*
X143485000Y-69906260D01*
X143485000Y-69613740D01*
X143427932Y-69326842D01*
X143315990Y-69056589D01*
X143153475Y-68813368D01*
X142946632Y-68606525D01*
X142764466Y-68484805D01*
X142881355Y-68415178D01*
X143097588Y-68220269D01*
X143271641Y-67986920D01*
X143396825Y-67724099D01*
X143441476Y-67576890D01*
X143320155Y-67347000D01*
X142127000Y-67347000D01*
X142127000Y-67367000D01*
X141873000Y-67367000D01*
X141873000Y-67347000D01*
X141853000Y-67347000D01*
X141853000Y-67093000D01*
X141873000Y-67093000D01*
X141873000Y-64807000D01*
X142127000Y-64807000D01*
X142127000Y-67093000D01*
X143320155Y-67093000D01*
X143441476Y-66863110D01*
X143396825Y-66715901D01*
X143271641Y-66453080D01*
X143097588Y-66219731D01*
X142881355Y-66024822D01*
X142755745Y-65950000D01*
X142881355Y-65875178D01*
X143097588Y-65680269D01*
X143271641Y-65446920D01*
X143396825Y-65184099D01*
X143441476Y-65036890D01*
X143320155Y-64807000D01*
X142127000Y-64807000D01*
X141873000Y-64807000D01*
X141853000Y-64807000D01*
X141853000Y-64553000D01*
X141873000Y-64553000D01*
X141873000Y-62267000D01*
X142127000Y-62267000D01*
X142127000Y-64553000D01*
X143320155Y-64553000D01*
X143441476Y-64323110D01*
X143396825Y-64175901D01*
X143271641Y-63913080D01*
X143097588Y-63679731D01*
X142881355Y-63484822D01*
X142755745Y-63410000D01*
X142881355Y-63335178D01*
X143097588Y-63140269D01*
X143271641Y-62906920D01*
X143396825Y-62644099D01*
X143441476Y-62496890D01*
X143320155Y-62267000D01*
X142127000Y-62267000D01*
X141873000Y-62267000D01*
X141853000Y-62267000D01*
X141853000Y-62013000D01*
X141873000Y-62013000D01*
X141873000Y-59727000D01*
X142127000Y-59727000D01*
X142127000Y-62013000D01*
X143320155Y-62013000D01*
X143441476Y-61783110D01*
X143396825Y-61635901D01*
X143274185Y-61378421D01*
X172141184Y-61378421D01*
X172210345Y-61620349D01*
X172462443Y-61739248D01*
X172732894Y-61806681D01*
X173011303Y-61820057D01*
X173286972Y-61778860D01*
X173549308Y-61684675D01*
X173669655Y-61620349D01*
X173738816Y-61378421D01*
X172940000Y-60579605D01*
X172141184Y-61378421D01*
X143274185Y-61378421D01*
X143271641Y-61373080D01*
X143097588Y-61139731D01*
X143013534Y-61063966D01*
X143094180Y-61039502D01*
X143204494Y-60980537D01*
X143301185Y-60901185D01*
X143380537Y-60804494D01*
X143439502Y-60694180D01*
X143475812Y-60574482D01*
X143485973Y-60471303D01*
X171519943Y-60471303D01*
X171561140Y-60746972D01*
X171655325Y-61009308D01*
X171719651Y-61129655D01*
X171961579Y-61198816D01*
X172760395Y-60400000D01*
X171961579Y-59601184D01*
X171719651Y-59670345D01*
X171600752Y-59922443D01*
X171533319Y-60192894D01*
X171519943Y-60471303D01*
X143485973Y-60471303D01*
X143488072Y-60450000D01*
X143485000Y-59885750D01*
X143326250Y-59727000D01*
X142127000Y-59727000D01*
X141873000Y-59727000D01*
X141853000Y-59727000D01*
X141853000Y-59473000D01*
X141873000Y-59473000D01*
X141873000Y-58273750D01*
X142127000Y-58273750D01*
X142127000Y-59473000D01*
X143326250Y-59473000D01*
X143377671Y-59421579D01*
X172141184Y-59421579D01*
X172940000Y-60220395D01*
X173738816Y-59421579D01*
X173669655Y-59179651D01*
X173417557Y-59060752D01*
X173147106Y-58993319D01*
X172868697Y-58979943D01*
X172593028Y-59021140D01*
X172330692Y-59115325D01*
X172210345Y-59179651D01*
X172141184Y-59421579D01*
X143377671Y-59421579D01*
X143485000Y-59314250D01*
X143488072Y-58750000D01*
X143475812Y-58625518D01*
X143439502Y-58505820D01*
X143380537Y-58395506D01*
X143301185Y-58298815D01*
X143204494Y-58219463D01*
X143094180Y-58160498D01*
X142974482Y-58124188D01*
X142850000Y-58111928D01*
X142285750Y-58115000D01*
X142127000Y-58273750D01*
X141873000Y-58273750D01*
X141714250Y-58115000D01*
X141150000Y-58111928D01*
X141025518Y-58124188D01*
X140905820Y-58160498D01*
X140795506Y-58219463D01*
X140698815Y-58298815D01*
X140619463Y-58395506D01*
X140560498Y-58505820D01*
X140538487Y-58578380D01*
X140406632Y-58446525D01*
X140163411Y-58284010D01*
X139893158Y-58172068D01*
X139606260Y-58115000D01*
X139313740Y-58115000D01*
X139026842Y-58172068D01*
X138756589Y-58284010D01*
X138513368Y-58446525D01*
X138306525Y-58653368D01*
X138144010Y-58896589D01*
X138032068Y-59166842D01*
X137975000Y-59453740D01*
X137975000Y-59746260D01*
X138032068Y-60033158D01*
X138144010Y-60303411D01*
X138306525Y-60546632D01*
X138513368Y-60753475D01*
X138687760Y-60870000D01*
X138513368Y-60986525D01*
X138306525Y-61193368D01*
X138144010Y-61436589D01*
X138032068Y-61706842D01*
X137975000Y-61993740D01*
X137975000Y-62286260D01*
X138032068Y-62573158D01*
X138144010Y-62843411D01*
X138306525Y-63086632D01*
X138513368Y-63293475D01*
X138687760Y-63410000D01*
X138513368Y-63526525D01*
X138306525Y-63733368D01*
X138144010Y-63976589D01*
X138032068Y-64246842D01*
X137975000Y-64533740D01*
X137975000Y-64826260D01*
X138032068Y-65113158D01*
X138144010Y-65383411D01*
X138306525Y-65626632D01*
X138513368Y-65833475D01*
X138687760Y-65950000D01*
X138513368Y-66066525D01*
X138306525Y-66273368D01*
X138144010Y-66516589D01*
X138032068Y-66786842D01*
X137975000Y-67073740D01*
X137975000Y-67366260D01*
X138032068Y-67653158D01*
X138041115Y-67674999D01*
X132055867Y-67674999D01*
X123719446Y-59338579D01*
X123693291Y-59306709D01*
X123566146Y-59202364D01*
X123421087Y-59124828D01*
X123263689Y-59077082D01*
X123141019Y-59065000D01*
X123141018Y-59065000D01*
X123100000Y-59060960D01*
X123058982Y-59065000D01*
X120768065Y-59065000D01*
X120693475Y-58953368D01*
X120486632Y-58746525D01*
X120243411Y-58584010D01*
X119973158Y-58472068D01*
X119686260Y-58415000D01*
X119393740Y-58415000D01*
X119106842Y-58472068D01*
X118836589Y-58584010D01*
X118593368Y-58746525D01*
X118461513Y-58878380D01*
X118439502Y-58805820D01*
X118380537Y-58695506D01*
X118301185Y-58598815D01*
X118204494Y-58519463D01*
X118094180Y-58460498D01*
X117974482Y-58424188D01*
X117850000Y-58411928D01*
X117835000Y-58411928D01*
X117835000Y-58241018D01*
X117839040Y-58200000D01*
X117822918Y-58036311D01*
X117775172Y-57878913D01*
X117697636Y-57733854D01*
X117640052Y-57663688D01*
X117593291Y-57606709D01*
X117561428Y-57580560D01*
X116219446Y-56238579D01*
X116193291Y-56206709D01*
X116066146Y-56102364D01*
X115921087Y-56024828D01*
X115763689Y-55977082D01*
X115641019Y-55965000D01*
X115641018Y-55965000D01*
X115600000Y-55960960D01*
X115558982Y-55965000D01*
X101741018Y-55965000D01*
X101700000Y-55960960D01*
X101658982Y-55965000D01*
X101658981Y-55965000D01*
X101536311Y-55977082D01*
X101378913Y-56024828D01*
X101233854Y-56102364D01*
X101106709Y-56206709D01*
X101080558Y-56238574D01*
X100718574Y-56600559D01*
X100686710Y-56626709D01*
X100645370Y-56677082D01*
X100582364Y-56753855D01*
X100504828Y-56898914D01*
X100457082Y-57056312D01*
X100440960Y-57220000D01*
X100445001Y-57261028D01*
X100445001Y-57884133D01*
X98499446Y-55938579D01*
X98473291Y-55906709D01*
X98346146Y-55802364D01*
X98201087Y-55724828D01*
X98043689Y-55677082D01*
X97921019Y-55665000D01*
X97921018Y-55665000D01*
X97880000Y-55660960D01*
X97838982Y-55665000D01*
X93941018Y-55665000D01*
X93900000Y-55660960D01*
X93858982Y-55665000D01*
X93858981Y-55665000D01*
X93736311Y-55677082D01*
X93578913Y-55724828D01*
X93433854Y-55802364D01*
X93306709Y-55906709D01*
X93280563Y-55938568D01*
X92338578Y-56880555D01*
X92306709Y-56906709D01*
X92202365Y-57033854D01*
X92202364Y-57033855D01*
X92124828Y-57178914D01*
X92077082Y-57336312D01*
X92060960Y-57500000D01*
X92065000Y-57541019D01*
X92065001Y-72758971D01*
X92060960Y-72800000D01*
X92077082Y-72963688D01*
X92124828Y-73121086D01*
X92202364Y-73266145D01*
X92202365Y-73266146D01*
X92306710Y-73393291D01*
X92338574Y-73419441D01*
X134980559Y-116061427D01*
X135006709Y-116093291D01*
X135061883Y-116138571D01*
X135133854Y-116197636D01*
X135278913Y-116275172D01*
X135436311Y-116322918D01*
X135599999Y-116339040D01*
X135641018Y-116335000D01*
X164058982Y-116335000D01*
X164100000Y-116339040D01*
X164141018Y-116335000D01*
X164141019Y-116335000D01*
X164263689Y-116322918D01*
X164421087Y-116275172D01*
X164566146Y-116197636D01*
X164693291Y-116093291D01*
X164719446Y-116061421D01*
X166241428Y-114539440D01*
X166273291Y-114513291D01*
X166377636Y-114386146D01*
X166455172Y-114241087D01*
X166502918Y-114083689D01*
X166515000Y-113961019D01*
X166515000Y-113961009D01*
X166519039Y-113920001D01*
X166515000Y-113878993D01*
X166515000Y-112971112D01*
X166699608Y-112819608D01*
X166878932Y-112601101D01*
X166947265Y-112473259D01*
X167097399Y-112702839D01*
X167295105Y-112904500D01*
X167528354Y-113063715D01*
X167788182Y-113174367D01*
X167870961Y-113191904D01*
X168093000Y-113069915D01*
X168093000Y-111527000D01*
X168347000Y-111527000D01*
X168347000Y-113069915D01*
X168569039Y-113191904D01*
X168651818Y-113174367D01*
X168911646Y-113063715D01*
X169144895Y-112904500D01*
X169342601Y-112702839D01*
X169490000Y-112477441D01*
X169637399Y-112702839D01*
X169835105Y-112904500D01*
X170068354Y-113063715D01*
X170328182Y-113174367D01*
X170410961Y-113191904D01*
X170633000Y-113069915D01*
X170633000Y-111527000D01*
X168347000Y-111527000D01*
X168093000Y-111527000D01*
X168073000Y-111527000D01*
X168073000Y-111273000D01*
X168093000Y-111273000D01*
X168093000Y-109730085D01*
X168347000Y-109730085D01*
X168347000Y-111273000D01*
X170633000Y-111273000D01*
X170633000Y-109730085D01*
X170887000Y-109730085D01*
X170887000Y-111273000D01*
X170907000Y-111273000D01*
X170907000Y-111527000D01*
X170887000Y-111527000D01*
X170887000Y-113069915D01*
X171109039Y-113191904D01*
X171191818Y-113174367D01*
X171451646Y-113063715D01*
X171684895Y-112904500D01*
X171882601Y-112702839D01*
X172032735Y-112473259D01*
X172101068Y-112601101D01*
X172280393Y-112819608D01*
X172498900Y-112998932D01*
X172748193Y-113132182D01*
X173018692Y-113214236D01*
X173300000Y-113241943D01*
X173581309Y-113214236D01*
X173851808Y-113132182D01*
X174101101Y-112998932D01*
X174319608Y-112819608D01*
X174498932Y-112601101D01*
X174570000Y-112468142D01*
X174641068Y-112601101D01*
X174820393Y-112819608D01*
X175038900Y-112998932D01*
X175288193Y-113132182D01*
X175558692Y-113214236D01*
X175840000Y-113241943D01*
X176121309Y-113214236D01*
X176391808Y-113132182D01*
X176641101Y-112998932D01*
X176859608Y-112819608D01*
X177038932Y-112601101D01*
X177110000Y-112468142D01*
X177181068Y-112601101D01*
X177360393Y-112819608D01*
X177578900Y-112998932D01*
X177828193Y-113132182D01*
X178098692Y-113214236D01*
X178380000Y-113241943D01*
X178661309Y-113214236D01*
X178931808Y-113132182D01*
X179181101Y-112998932D01*
X179399608Y-112819608D01*
X179578932Y-112601101D01*
X179650000Y-112468142D01*
X179721068Y-112601101D01*
X179900393Y-112819608D01*
X180118900Y-112998932D01*
X180368193Y-113132182D01*
X180638692Y-113214236D01*
X180920000Y-113241943D01*
X181201309Y-113214236D01*
X181471808Y-113132182D01*
X181721101Y-112998932D01*
X181939608Y-112819608D01*
X182118932Y-112601101D01*
X182190000Y-112468142D01*
X182261068Y-112601101D01*
X182440393Y-112819608D01*
X182658900Y-112998932D01*
X182908193Y-113132182D01*
X183178692Y-113214236D01*
X183460000Y-113241943D01*
X183741309Y-113214236D01*
X184011808Y-113132182D01*
X184261101Y-112998932D01*
X184479608Y-112819608D01*
X184658932Y-112601101D01*
X184730000Y-112468142D01*
X184801068Y-112601101D01*
X184980393Y-112819608D01*
X185198900Y-112998932D01*
X185448193Y-113132182D01*
X185718692Y-113214236D01*
X186000000Y-113241943D01*
X186281309Y-113214236D01*
X186551808Y-113132182D01*
X186801101Y-112998932D01*
X187019608Y-112819608D01*
X187198932Y-112601101D01*
X187270000Y-112468142D01*
X187341068Y-112601101D01*
X187520393Y-112819608D01*
X187738900Y-112998932D01*
X187988193Y-113132182D01*
X188258692Y-113214236D01*
X188540000Y-113241943D01*
X188821309Y-113214236D01*
X189091808Y-113132182D01*
X189341101Y-112998932D01*
X189559608Y-112819608D01*
X189738932Y-112601101D01*
X189810000Y-112468142D01*
X189881068Y-112601101D01*
X190060393Y-112819608D01*
X190278900Y-112998932D01*
X190528193Y-113132182D01*
X190798692Y-113214236D01*
X191080000Y-113241943D01*
X191361309Y-113214236D01*
X191631808Y-113132182D01*
X191881101Y-112998932D01*
X192099608Y-112819608D01*
X192278932Y-112601101D01*
X192347265Y-112473259D01*
X192497399Y-112702839D01*
X192695105Y-112904500D01*
X192928354Y-113063715D01*
X193188182Y-113174367D01*
X193270961Y-113191904D01*
X193493000Y-113069915D01*
X193493000Y-111527000D01*
X193473000Y-111527000D01*
X193473000Y-111273000D01*
X193493000Y-111273000D01*
X193493000Y-109730085D01*
X193747000Y-109730085D01*
X193747000Y-111273000D01*
X196033000Y-111273000D01*
X196033000Y-109730085D01*
X195810961Y-109608096D01*
X195728182Y-109625633D01*
X195468354Y-109736285D01*
X195235105Y-109895500D01*
X195037399Y-110097161D01*
X194890000Y-110322559D01*
X194742601Y-110097161D01*
X194544895Y-109895500D01*
X194311646Y-109736285D01*
X194051818Y-109625633D01*
X193969039Y-109608096D01*
X193747000Y-109730085D01*
X193493000Y-109730085D01*
X193270961Y-109608096D01*
X193188182Y-109625633D01*
X192928354Y-109736285D01*
X192695105Y-109895500D01*
X192497399Y-110097161D01*
X192347265Y-110326741D01*
X192278932Y-110198899D01*
X192099607Y-109980392D01*
X191881100Y-109801068D01*
X191631807Y-109667818D01*
X191361308Y-109585764D01*
X191080000Y-109558057D01*
X190798691Y-109585764D01*
X190528192Y-109667818D01*
X190278899Y-109801068D01*
X190060392Y-109980393D01*
X189881068Y-110198900D01*
X189810000Y-110331858D01*
X189738932Y-110198899D01*
X189559607Y-109980392D01*
X189341100Y-109801068D01*
X189091807Y-109667818D01*
X188821308Y-109585764D01*
X188540000Y-109558057D01*
X188258691Y-109585764D01*
X187988192Y-109667818D01*
X187738899Y-109801068D01*
X187520392Y-109980393D01*
X187341068Y-110198900D01*
X187270000Y-110331858D01*
X187198932Y-110198899D01*
X187019607Y-109980392D01*
X186801100Y-109801068D01*
X186551807Y-109667818D01*
X186281308Y-109585764D01*
X186000000Y-109558057D01*
X185718691Y-109585764D01*
X185448192Y-109667818D01*
X185198899Y-109801068D01*
X184980392Y-109980393D01*
X184801068Y-110198900D01*
X184730000Y-110331858D01*
X184658932Y-110198899D01*
X184479607Y-109980392D01*
X184261100Y-109801068D01*
X184011807Y-109667818D01*
X183741308Y-109585764D01*
X183460000Y-109558057D01*
X183178691Y-109585764D01*
X182908192Y-109667818D01*
X182658899Y-109801068D01*
X182440392Y-109980393D01*
X182261068Y-110198900D01*
X182190000Y-110331858D01*
X182118932Y-110198899D01*
X181939607Y-109980392D01*
X181721100Y-109801068D01*
X181471807Y-109667818D01*
X181201308Y-109585764D01*
X180920000Y-109558057D01*
X180638691Y-109585764D01*
X180368192Y-109667818D01*
X180118899Y-109801068D01*
X179900392Y-109980393D01*
X179721068Y-110198900D01*
X179650000Y-110331858D01*
X179578932Y-110198899D01*
X179399607Y-109980392D01*
X179181100Y-109801068D01*
X178931807Y-109667818D01*
X178661308Y-109585764D01*
X178380000Y-109558057D01*
X178098691Y-109585764D01*
X177828192Y-109667818D01*
X177578899Y-109801068D01*
X177360392Y-109980393D01*
X177181068Y-110198900D01*
X177110000Y-110331858D01*
X177038932Y-110198899D01*
X176859607Y-109980392D01*
X176641100Y-109801068D01*
X176391807Y-109667818D01*
X176121308Y-109585764D01*
X175840000Y-109558057D01*
X175558691Y-109585764D01*
X175288192Y-109667818D01*
X175038899Y-109801068D01*
X174820392Y-109980393D01*
X174641068Y-110198900D01*
X174570000Y-110331858D01*
X174498932Y-110198899D01*
X174319607Y-109980392D01*
X174101100Y-109801068D01*
X173851807Y-109667818D01*
X173581308Y-109585764D01*
X173300000Y-109558057D01*
X173018691Y-109585764D01*
X172748192Y-109667818D01*
X172498899Y-109801068D01*
X172280392Y-109980393D01*
X172101068Y-110198900D01*
X172032735Y-110326742D01*
X171882601Y-110097161D01*
X171684895Y-109895500D01*
X171451646Y-109736285D01*
X171191818Y-109625633D01*
X171109039Y-109608096D01*
X170887000Y-109730085D01*
X170633000Y-109730085D01*
X170410961Y-109608096D01*
X170328182Y-109625633D01*
X170068354Y-109736285D01*
X169835105Y-109895500D01*
X169637399Y-110097161D01*
X169490000Y-110322559D01*
X169342601Y-110097161D01*
X169144895Y-109895500D01*
X168911646Y-109736285D01*
X168651818Y-109625633D01*
X168569039Y-109608096D01*
X168347000Y-109730085D01*
X168093000Y-109730085D01*
X167870961Y-109608096D01*
X167788182Y-109625633D01*
X167528354Y-109736285D01*
X167295105Y-109895500D01*
X167097399Y-110097161D01*
X166947265Y-110326741D01*
X166878932Y-110198899D01*
X166699607Y-109980392D01*
X166481100Y-109801068D01*
X166231807Y-109667818D01*
X165961308Y-109585764D01*
X165680000Y-109558057D01*
X165398691Y-109585764D01*
X165128192Y-109667818D01*
X164878899Y-109801068D01*
X164660392Y-109980393D01*
X164481068Y-110198900D01*
X164410000Y-110331858D01*
X164338932Y-110198899D01*
X164159607Y-109980392D01*
X163941100Y-109801068D01*
X163691807Y-109667818D01*
X163421308Y-109585764D01*
X163140000Y-109558057D01*
X162858691Y-109585764D01*
X162588192Y-109667818D01*
X162338899Y-109801068D01*
X162120392Y-109980393D01*
X162027581Y-110093483D01*
X162025812Y-110075518D01*
X161989502Y-109955820D01*
X161930537Y-109845506D01*
X161851185Y-109748815D01*
X161754494Y-109669463D01*
X161644180Y-109610498D01*
X161524482Y-109574188D01*
X161400000Y-109561928D01*
X159800000Y-109561928D01*
X159675518Y-109574188D01*
X159555820Y-109610498D01*
X159445506Y-109669463D01*
X159348815Y-109748815D01*
X159269463Y-109845506D01*
X159210498Y-109955820D01*
X159174188Y-110075518D01*
X159161928Y-110200000D01*
X159161928Y-112600000D01*
X159174188Y-112724482D01*
X159210498Y-112844180D01*
X159269463Y-112954494D01*
X159348815Y-113051185D01*
X159445506Y-113130537D01*
X159555820Y-113189502D01*
X159675518Y-113225812D01*
X159800000Y-113238072D01*
X161400000Y-113238072D01*
X161524482Y-113225812D01*
X161644180Y-113189502D01*
X161754494Y-113130537D01*
X161851185Y-113051185D01*
X161930537Y-112954494D01*
X161989502Y-112844180D01*
X162025812Y-112724482D01*
X162027581Y-112706517D01*
X162120393Y-112819608D01*
X162338900Y-112998932D01*
X162588193Y-113132182D01*
X162858692Y-113214236D01*
X163140000Y-113241943D01*
X163421309Y-113214236D01*
X163691808Y-113132182D01*
X163941101Y-112998932D01*
X164159608Y-112819608D01*
X164338932Y-112601101D01*
X164410000Y-112468142D01*
X164481068Y-112601101D01*
X164660393Y-112819608D01*
X164845000Y-112971111D01*
X164845000Y-113574132D01*
X163754133Y-114665000D01*
X135945868Y-114665000D01*
X93735000Y-72454133D01*
X93735000Y-57845868D01*
X94245868Y-57335000D01*
X97534133Y-57335000D01*
X98614133Y-58415000D01*
X98593740Y-58415000D01*
X98306842Y-58472068D01*
X98036589Y-58584010D01*
X97793368Y-58746525D01*
X97661513Y-58878380D01*
X97639502Y-58805820D01*
X97580537Y-58695506D01*
X97501185Y-58598815D01*
X97404494Y-58519463D01*
X97294180Y-58460498D01*
X97174482Y-58424188D01*
X97050000Y-58411928D01*
X95350000Y-58411928D01*
X95225518Y-58424188D01*
X95105820Y-58460498D01*
X94995506Y-58519463D01*
X94898815Y-58598815D01*
X94819463Y-58695506D01*
X94760498Y-58805820D01*
X94724188Y-58925518D01*
X94711928Y-59050000D01*
X94711928Y-60750000D01*
X94724188Y-60874482D01*
X94760498Y-60994180D01*
X94819463Y-61104494D01*
X94898815Y-61201185D01*
X94995506Y-61280537D01*
X95105820Y-61339502D01*
X95225518Y-61375812D01*
X95350000Y-61388072D01*
X95365000Y-61388072D01*
X95365001Y-72358971D01*
X95360960Y-72400000D01*
X95377082Y-72563688D01*
X95424828Y-72721086D01*
X95424829Y-72721087D01*
X95502365Y-72866146D01*
X95606710Y-72993291D01*
X95638574Y-73019441D01*
X128980559Y-106361427D01*
X129006709Y-106393291D01*
X129133854Y-106497636D01*
X129278913Y-106575172D01*
X129436311Y-106622918D01*
X129600000Y-106639040D01*
X129641018Y-106635000D01*
X216554133Y-106635000D01*
X216965000Y-107045868D01*
X216965000Y-109647553D01*
X216761308Y-109585764D01*
X216480000Y-109558057D01*
X216198691Y-109585764D01*
X215928192Y-109667818D01*
X215678899Y-109801068D01*
X215460392Y-109980393D01*
X215281068Y-110198900D01*
X215210000Y-110331858D01*
X215138932Y-110198899D01*
X214959607Y-109980392D01*
X214741100Y-109801068D01*
X214491807Y-109667818D01*
X214221308Y-109585764D01*
X213940000Y-109558057D01*
X213658691Y-109585764D01*
X213388192Y-109667818D01*
X213138899Y-109801068D01*
X212920392Y-109980393D01*
X212741068Y-110198900D01*
X212670000Y-110331858D01*
X212598932Y-110198899D01*
X212419607Y-109980392D01*
X212201100Y-109801068D01*
X211951807Y-109667818D01*
X211681308Y-109585764D01*
X211400000Y-109558057D01*
X211118691Y-109585764D01*
X210848192Y-109667818D01*
X210598899Y-109801068D01*
X210380392Y-109980393D01*
X210201068Y-110198900D01*
X210130000Y-110331858D01*
X210058932Y-110198899D01*
X209879607Y-109980392D01*
X209661100Y-109801068D01*
X209411807Y-109667818D01*
X209141308Y-109585764D01*
X208860000Y-109558057D01*
X208578691Y-109585764D01*
X208308192Y-109667818D01*
X208058899Y-109801068D01*
X207840392Y-109980393D01*
X207661068Y-110198900D01*
X207590000Y-110331858D01*
X207518932Y-110198899D01*
X207339607Y-109980392D01*
X207121100Y-109801068D01*
X206871807Y-109667818D01*
X206601308Y-109585764D01*
X206320000Y-109558057D01*
X206038691Y-109585764D01*
X205768192Y-109667818D01*
X205518899Y-109801068D01*
X205300392Y-109980393D01*
X205121068Y-110198900D01*
X205050000Y-110331858D01*
X204978932Y-110198899D01*
X204799607Y-109980392D01*
X204581100Y-109801068D01*
X204331807Y-109667818D01*
X204061308Y-109585764D01*
X203780000Y-109558057D01*
X203498691Y-109585764D01*
X203228192Y-109667818D01*
X202978899Y-109801068D01*
X202760392Y-109980393D01*
X202581068Y-110198900D01*
X202510000Y-110331858D01*
X202438932Y-110198899D01*
X202259607Y-109980392D01*
X202041100Y-109801068D01*
X201791807Y-109667818D01*
X201521308Y-109585764D01*
X201240000Y-109558057D01*
X200958691Y-109585764D01*
X200688192Y-109667818D01*
X200438899Y-109801068D01*
X200220392Y-109980393D01*
X200041068Y-110198900D01*
X199970000Y-110331858D01*
X199898932Y-110198899D01*
X199719607Y-109980392D01*
X199501100Y-109801068D01*
X199251807Y-109667818D01*
X198981308Y-109585764D01*
X198700000Y-109558057D01*
X198418691Y-109585764D01*
X198148192Y-109667818D01*
X197898899Y-109801068D01*
X197680392Y-109980393D01*
X197501068Y-110198900D01*
X197432735Y-110326742D01*
X197282601Y-110097161D01*
X197084895Y-109895500D01*
X196851646Y-109736285D01*
X196591818Y-109625633D01*
X196509039Y-109608096D01*
X196287000Y-109730085D01*
X196287000Y-111273000D01*
X196307000Y-111273000D01*
X196307000Y-111527000D01*
X196287000Y-111527000D01*
X196287000Y-111547000D01*
X196033000Y-111547000D01*
X196033000Y-111527000D01*
X193747000Y-111527000D01*
X193747000Y-113069915D01*
X193969039Y-113191904D01*
X194051818Y-113174367D01*
X194311646Y-113063715D01*
X194544895Y-112904500D01*
X194742601Y-112702839D01*
X194890000Y-112477441D01*
X195037399Y-112702839D01*
X195235105Y-112904500D01*
X195468354Y-113063715D01*
X195728182Y-113174367D01*
X195741866Y-113177266D01*
X193854133Y-115065000D01*
X180941018Y-115065000D01*
X180900000Y-115060960D01*
X180858982Y-115065000D01*
X180858981Y-115065000D01*
X180736311Y-115077082D01*
X180578913Y-115124828D01*
X180433854Y-115202364D01*
X180306709Y-115306709D01*
X180280563Y-115338568D01*
X172248579Y-123370554D01*
X172216709Y-123396709D01*
X172145192Y-123483854D01*
X172112364Y-123523855D01*
X172034828Y-123668914D01*
X171987082Y-123826312D01*
X171970960Y-123990000D01*
X171975000Y-124031019D01*
X171975000Y-124173000D01*
X168281043Y-124173000D01*
X168235948Y-124118052D01*
X168135450Y-124035575D01*
X168020793Y-123974290D01*
X167896383Y-123936550D01*
X167767000Y-123923807D01*
X167734581Y-123927000D01*
X74320000Y-123927000D01*
X74320000Y-59150000D01*
X83711928Y-59150000D01*
X83711928Y-60850000D01*
X83724188Y-60974482D01*
X83760498Y-61094180D01*
X83819463Y-61204494D01*
X83898815Y-61301185D01*
X83995506Y-61380537D01*
X84105820Y-61439502D01*
X84225518Y-61475812D01*
X84350000Y-61488072D01*
X86050000Y-61488072D01*
X86174482Y-61475812D01*
X86294180Y-61439502D01*
X86404494Y-61380537D01*
X86501185Y-61301185D01*
X86580537Y-61204494D01*
X86639502Y-61094180D01*
X86661513Y-61021620D01*
X86793368Y-61153475D01*
X87036589Y-61315990D01*
X87306842Y-61427932D01*
X87593740Y-61485000D01*
X87886260Y-61485000D01*
X88173158Y-61427932D01*
X88443411Y-61315990D01*
X88686632Y-61153475D01*
X88893475Y-60946632D01*
X89055990Y-60703411D01*
X89167932Y-60433158D01*
X89225000Y-60146260D01*
X89225000Y-59853740D01*
X89167932Y-59566842D01*
X89055990Y-59296589D01*
X88893475Y-59053368D01*
X88686632Y-58846525D01*
X88443411Y-58684010D01*
X88173158Y-58572068D01*
X87886260Y-58515000D01*
X87593740Y-58515000D01*
X87306842Y-58572068D01*
X87036589Y-58684010D01*
X86793368Y-58846525D01*
X86661513Y-58978380D01*
X86639502Y-58905820D01*
X86580537Y-58795506D01*
X86501185Y-58698815D01*
X86404494Y-58619463D01*
X86294180Y-58560498D01*
X86174482Y-58524188D01*
X86050000Y-58511928D01*
X84350000Y-58511928D01*
X84225518Y-58524188D01*
X84105820Y-58560498D01*
X83995506Y-58619463D01*
X83898815Y-58698815D01*
X83819463Y-58795506D01*
X83760498Y-58905820D01*
X83724188Y-59025518D01*
X83711928Y-59150000D01*
X74320000Y-59150000D01*
X74320000Y-55397000D01*
X240640001Y-55397000D01*
X240640000Y-123927000D01*
G04 #@! TA.AperFunction,Conductor*
D24*
G36*
X240640000Y-123927000D02*
G01*
X233585419Y-123927000D01*
X233553000Y-123923807D01*
X233520581Y-123927000D01*
X233423617Y-123936550D01*
X233299207Y-123974290D01*
X233184550Y-124035575D01*
X233084052Y-124118052D01*
X233038957Y-124173000D01*
X195062868Y-124173000D01*
X195500868Y-123735000D01*
X207458982Y-123735000D01*
X207500000Y-123739040D01*
X207541018Y-123735000D01*
X207541019Y-123735000D01*
X207663689Y-123722918D01*
X207821087Y-123675172D01*
X207966146Y-123597636D01*
X208093291Y-123493291D01*
X208119446Y-123461421D01*
X210759598Y-120821269D01*
X229258336Y-120821269D01*
X229317797Y-121055037D01*
X229556242Y-121165934D01*
X229811740Y-121228183D01*
X230074473Y-121239390D01*
X230334344Y-121199125D01*
X230581366Y-121108935D01*
X230682203Y-121055037D01*
X230741664Y-120821269D01*
X230000000Y-120079605D01*
X229258336Y-120821269D01*
X210759598Y-120821269D01*
X211606394Y-119974473D01*
X228660610Y-119974473D01*
X228700875Y-120234344D01*
X228791065Y-120481366D01*
X228844963Y-120582203D01*
X229078731Y-120641664D01*
X229820395Y-119900000D01*
X230179605Y-119900000D01*
X230921269Y-120641664D01*
X231155037Y-120582203D01*
X231251592Y-120374596D01*
X231316939Y-120532359D01*
X231463038Y-120751013D01*
X231648987Y-120936962D01*
X231867641Y-121083061D01*
X232110595Y-121183696D01*
X232368514Y-121235000D01*
X232631486Y-121235000D01*
X232889405Y-121183696D01*
X233132359Y-121083061D01*
X233351013Y-120936962D01*
X233536962Y-120751013D01*
X233683061Y-120532359D01*
X233783696Y-120289405D01*
X233835000Y-120031486D01*
X233835000Y-119768514D01*
X233783696Y-119510595D01*
X233683061Y-119267641D01*
X233536962Y-119048987D01*
X233351013Y-118863038D01*
X233132359Y-118716939D01*
X232889405Y-118616304D01*
X232631486Y-118565000D01*
X232368514Y-118565000D01*
X232110595Y-118616304D01*
X231867641Y-118716939D01*
X231648987Y-118863038D01*
X231463038Y-119048987D01*
X231316939Y-119267641D01*
X231249639Y-119430118D01*
X231208935Y-119318634D01*
X231155037Y-119217797D01*
X230921269Y-119158336D01*
X230179605Y-119900000D01*
X229820395Y-119900000D01*
X229078731Y-119158336D01*
X228844963Y-119217797D01*
X228734066Y-119456242D01*
X228671817Y-119711740D01*
X228660610Y-119974473D01*
X211606394Y-119974473D01*
X212602136Y-118978731D01*
X229258336Y-118978731D01*
X230000000Y-119720395D01*
X230741664Y-118978731D01*
X230682203Y-118744963D01*
X230443758Y-118634066D01*
X230188260Y-118571817D01*
X229925527Y-118560610D01*
X229665656Y-118600875D01*
X229418634Y-118691065D01*
X229317797Y-118744963D01*
X229258336Y-118978731D01*
X212602136Y-118978731D01*
X217091751Y-114489117D01*
X232865000Y-114489117D01*
X232865000Y-114830883D01*
X232931675Y-115166081D01*
X233062463Y-115481831D01*
X233252337Y-115765998D01*
X233494002Y-116007663D01*
X233778169Y-116197537D01*
X234093919Y-116328325D01*
X234429117Y-116395000D01*
X234770883Y-116395000D01*
X235106081Y-116328325D01*
X235421831Y-116197537D01*
X235705998Y-116007663D01*
X235947663Y-115765998D01*
X236137537Y-115481831D01*
X236268325Y-115166081D01*
X236335000Y-114830883D01*
X236335000Y-114489117D01*
X236268325Y-114153919D01*
X236137537Y-113838169D01*
X235947663Y-113554002D01*
X235705998Y-113312337D01*
X235421831Y-113122463D01*
X235106081Y-112991675D01*
X234770883Y-112925000D01*
X234429117Y-112925000D01*
X234093919Y-112991675D01*
X233778169Y-113122463D01*
X233494002Y-113312337D01*
X233252337Y-113554002D01*
X233062463Y-113838169D01*
X232931675Y-114153919D01*
X232865000Y-114489117D01*
X217091751Y-114489117D01*
X218361432Y-113219437D01*
X218393291Y-113193291D01*
X218424575Y-113155172D01*
X218455273Y-113117766D01*
X218588182Y-113174367D01*
X218670961Y-113191904D01*
X218893000Y-113069915D01*
X218893000Y-111527000D01*
X219147000Y-111527000D01*
X219147000Y-113069915D01*
X219369039Y-113191904D01*
X219451818Y-113174367D01*
X219711646Y-113063715D01*
X219944895Y-112904500D01*
X220142601Y-112702839D01*
X220297166Y-112466483D01*
X220402650Y-112204514D01*
X220455000Y-111927000D01*
X220455000Y-111527000D01*
X219147000Y-111527000D01*
X218893000Y-111527000D01*
X218873000Y-111527000D01*
X218873000Y-111273000D01*
X218893000Y-111273000D01*
X218893000Y-109730085D01*
X219147000Y-109730085D01*
X219147000Y-111273000D01*
X220455000Y-111273000D01*
X220455000Y-110873000D01*
X220402650Y-110595486D01*
X220297166Y-110333517D01*
X220142601Y-110097161D01*
X219944895Y-109895500D01*
X219711646Y-109736285D01*
X219451818Y-109625633D01*
X219369039Y-109608096D01*
X219147000Y-109730085D01*
X218893000Y-109730085D01*
X218670961Y-109608096D01*
X218635000Y-109615714D01*
X218635000Y-106741015D01*
X218639040Y-106699999D01*
X218626745Y-106575172D01*
X218622918Y-106536311D01*
X218575172Y-106378913D01*
X218497636Y-106233854D01*
X218393291Y-106106709D01*
X218361427Y-106080560D01*
X217519446Y-105238579D01*
X217493291Y-105206709D01*
X217366146Y-105102364D01*
X217221087Y-105024828D01*
X217063689Y-104977082D01*
X216941019Y-104965000D01*
X216941018Y-104965000D01*
X216900000Y-104960960D01*
X216858982Y-104965000D01*
X129945868Y-104965000D01*
X128380868Y-103400000D01*
X232861928Y-103400000D01*
X232861928Y-105600000D01*
X232874188Y-105724482D01*
X232910498Y-105844180D01*
X232969463Y-105954494D01*
X233048815Y-106051185D01*
X233145506Y-106130537D01*
X233255820Y-106189502D01*
X233375518Y-106225812D01*
X233500000Y-106238072D01*
X235700000Y-106238072D01*
X235824482Y-106225812D01*
X235944180Y-106189502D01*
X236054494Y-106130537D01*
X236151185Y-106051185D01*
X236230537Y-105954494D01*
X236289502Y-105844180D01*
X236325812Y-105724482D01*
X236338072Y-105600000D01*
X236338072Y-103400000D01*
X236325812Y-103275518D01*
X236289502Y-103155820D01*
X236230537Y-103045506D01*
X236151185Y-102948815D01*
X236054494Y-102869463D01*
X235944180Y-102810498D01*
X235824482Y-102774188D01*
X235700000Y-102761928D01*
X233500000Y-102761928D01*
X233375518Y-102774188D01*
X233255820Y-102810498D01*
X233145506Y-102869463D01*
X233048815Y-102948815D01*
X232969463Y-103045506D01*
X232910498Y-103155820D01*
X232874188Y-103275518D01*
X232861928Y-103400000D01*
X128380868Y-103400000D01*
X124202137Y-99221269D01*
X153658336Y-99221269D01*
X153717797Y-99455037D01*
X153956242Y-99565934D01*
X154211740Y-99628183D01*
X154474473Y-99639390D01*
X154734344Y-99599125D01*
X154981366Y-99508935D01*
X155082203Y-99455037D01*
X155141664Y-99221269D01*
X154400000Y-98479605D01*
X153658336Y-99221269D01*
X124202137Y-99221269D01*
X123355341Y-98374473D01*
X153060610Y-98374473D01*
X153100875Y-98634344D01*
X153191065Y-98881366D01*
X153244963Y-98982203D01*
X153478731Y-99041664D01*
X154220395Y-98300000D01*
X154579605Y-98300000D01*
X155321269Y-99041664D01*
X155555037Y-98982203D01*
X155665934Y-98743758D01*
X155728183Y-98488260D01*
X155739390Y-98225527D01*
X155699125Y-97965656D01*
X155608935Y-97718634D01*
X155555037Y-97617797D01*
X155321269Y-97558336D01*
X154579605Y-98300000D01*
X154220395Y-98300000D01*
X153478731Y-97558336D01*
X153244963Y-97617797D01*
X153134066Y-97856242D01*
X153071817Y-98111740D01*
X153060610Y-98374473D01*
X123355341Y-98374473D01*
X120649382Y-95668514D01*
X153065000Y-95668514D01*
X153065000Y-95931486D01*
X153116304Y-96189405D01*
X153216939Y-96432359D01*
X153363038Y-96651013D01*
X153548987Y-96836962D01*
X153767641Y-96983061D01*
X153930118Y-97050361D01*
X153818634Y-97091065D01*
X153717797Y-97144963D01*
X153658336Y-97378731D01*
X154400000Y-98120395D01*
X155141664Y-97378731D01*
X155082203Y-97144963D01*
X154874596Y-97048408D01*
X155032359Y-96983061D01*
X155251013Y-96836962D01*
X155436962Y-96651013D01*
X155583061Y-96432359D01*
X155683696Y-96189405D01*
X155735000Y-95931486D01*
X155735000Y-95689509D01*
X159165000Y-95689509D01*
X159165000Y-96630492D01*
X159185764Y-96841309D01*
X159267818Y-97111808D01*
X159401068Y-97361101D01*
X159580393Y-97579608D01*
X159798900Y-97758932D01*
X160048193Y-97892182D01*
X160318692Y-97974236D01*
X160600000Y-98001943D01*
X160881309Y-97974236D01*
X161151808Y-97892182D01*
X161401101Y-97758932D01*
X161619608Y-97579608D01*
X161798932Y-97361101D01*
X161867265Y-97233259D01*
X162017399Y-97462839D01*
X162215105Y-97664500D01*
X162448354Y-97823715D01*
X162708182Y-97934367D01*
X162790961Y-97951904D01*
X163013000Y-97829915D01*
X163013000Y-96287000D01*
X162993000Y-96287000D01*
X162993000Y-96033000D01*
X163013000Y-96033000D01*
X163013000Y-94490085D01*
X162790961Y-94368096D01*
X162708182Y-94385633D01*
X162448354Y-94496285D01*
X162215105Y-94655500D01*
X162017399Y-94857161D01*
X161867265Y-95086741D01*
X161798932Y-94958899D01*
X161619607Y-94740392D01*
X161401100Y-94561068D01*
X161151807Y-94427818D01*
X160881308Y-94345764D01*
X160600000Y-94318057D01*
X160318691Y-94345764D01*
X160048192Y-94427818D01*
X159798899Y-94561068D01*
X159580392Y-94740393D01*
X159401068Y-94958900D01*
X159267818Y-95208193D01*
X159185764Y-95478692D01*
X159165000Y-95689509D01*
X155735000Y-95689509D01*
X155735000Y-95668514D01*
X155683696Y-95410595D01*
X155583061Y-95167641D01*
X155436962Y-94948987D01*
X155251013Y-94763038D01*
X155032359Y-94616939D01*
X154789405Y-94516304D01*
X154531486Y-94465000D01*
X154268514Y-94465000D01*
X154010595Y-94516304D01*
X153767641Y-94616939D01*
X153548987Y-94763038D01*
X153363038Y-94948987D01*
X153216939Y-95167641D01*
X153116304Y-95410595D01*
X153065000Y-95668514D01*
X120649382Y-95668514D01*
X97035000Y-72054133D01*
X97035000Y-61388072D01*
X97050000Y-61388072D01*
X97174482Y-61375812D01*
X97294180Y-61339502D01*
X97404494Y-61280537D01*
X97501185Y-61201185D01*
X97580537Y-61104494D01*
X97639502Y-60994180D01*
X97661513Y-60921620D01*
X97793368Y-61053475D01*
X98036589Y-61215990D01*
X98306842Y-61327932D01*
X98593740Y-61385000D01*
X98886260Y-61385000D01*
X99173158Y-61327932D01*
X99443411Y-61215990D01*
X99686632Y-61053475D01*
X99893475Y-60846632D01*
X100010000Y-60672240D01*
X100126525Y-60846632D01*
X100333368Y-61053475D01*
X100576589Y-61215990D01*
X100846842Y-61327932D01*
X101133740Y-61385000D01*
X101426260Y-61385000D01*
X101713158Y-61327932D01*
X101983411Y-61215990D01*
X102226632Y-61053475D01*
X102433475Y-60846632D01*
X102550000Y-60672240D01*
X102666525Y-60846632D01*
X102873368Y-61053475D01*
X103116589Y-61215990D01*
X103386842Y-61327932D01*
X103673740Y-61385000D01*
X103966260Y-61385000D01*
X104253158Y-61327932D01*
X104523411Y-61215990D01*
X104766632Y-61053475D01*
X104973475Y-60846632D01*
X105090000Y-60672240D01*
X105206525Y-60846632D01*
X105413368Y-61053475D01*
X105656589Y-61215990D01*
X105926842Y-61327932D01*
X106213740Y-61385000D01*
X106506260Y-61385000D01*
X106793158Y-61327932D01*
X107063411Y-61215990D01*
X107306632Y-61053475D01*
X107513475Y-60846632D01*
X107675990Y-60603411D01*
X107787932Y-60333158D01*
X107845000Y-60046260D01*
X107845000Y-59753740D01*
X107787932Y-59466842D01*
X107675990Y-59196589D01*
X107513475Y-58953368D01*
X107495107Y-58935000D01*
X110654133Y-58935000D01*
X114720563Y-63001432D01*
X114746709Y-63033291D01*
X114778568Y-63059437D01*
X114778570Y-63059439D01*
X114873854Y-63137636D01*
X115018913Y-63215172D01*
X115176311Y-63262918D01*
X115340000Y-63279040D01*
X115381018Y-63275000D01*
X115771935Y-63275000D01*
X115846525Y-63386632D01*
X116053368Y-63593475D01*
X116165000Y-63668065D01*
X116165001Y-65158972D01*
X116160960Y-65200000D01*
X116177082Y-65363688D01*
X116224828Y-65521086D01*
X116302364Y-65666145D01*
X116313955Y-65680269D01*
X116406710Y-65793291D01*
X116438574Y-65819441D01*
X141780559Y-91161427D01*
X141806709Y-91193291D01*
X141933854Y-91297636D01*
X142078913Y-91375172D01*
X142236311Y-91422918D01*
X142358981Y-91435000D01*
X142358991Y-91435000D01*
X142399999Y-91439039D01*
X142441007Y-91435000D01*
X165754133Y-91435000D01*
X167385000Y-93065869D01*
X167385001Y-94588888D01*
X167200392Y-94740393D01*
X167021068Y-94958900D01*
X166950000Y-95091858D01*
X166878932Y-94958899D01*
X166699607Y-94740392D01*
X166481100Y-94561068D01*
X166231807Y-94427818D01*
X165961308Y-94345764D01*
X165680000Y-94318057D01*
X165398691Y-94345764D01*
X165128192Y-94427818D01*
X164878899Y-94561068D01*
X164660392Y-94740393D01*
X164481068Y-94958900D01*
X164412735Y-95086742D01*
X164262601Y-94857161D01*
X164064895Y-94655500D01*
X163831646Y-94496285D01*
X163571818Y-94385633D01*
X163489039Y-94368096D01*
X163267000Y-94490085D01*
X163267000Y-96033000D01*
X163287000Y-96033000D01*
X163287000Y-96287000D01*
X163267000Y-96287000D01*
X163267000Y-97829915D01*
X163489039Y-97951904D01*
X163571818Y-97934367D01*
X163831646Y-97823715D01*
X164064895Y-97664500D01*
X164262601Y-97462839D01*
X164412735Y-97233259D01*
X164481068Y-97361101D01*
X164660393Y-97579608D01*
X164878900Y-97758932D01*
X165128193Y-97892182D01*
X165398692Y-97974236D01*
X165680000Y-98001943D01*
X165961309Y-97974236D01*
X166231808Y-97892182D01*
X166481101Y-97758932D01*
X166699608Y-97579608D01*
X166878932Y-97361101D01*
X166950000Y-97228142D01*
X167021068Y-97361101D01*
X167200393Y-97579608D01*
X167418900Y-97758932D01*
X167668193Y-97892182D01*
X167938692Y-97974236D01*
X168220000Y-98001943D01*
X168501309Y-97974236D01*
X168771808Y-97892182D01*
X169021101Y-97758932D01*
X169239608Y-97579608D01*
X169418932Y-97361101D01*
X169487265Y-97233259D01*
X169637399Y-97462839D01*
X169835105Y-97664500D01*
X170068354Y-97823715D01*
X170328182Y-97934367D01*
X170410961Y-97951904D01*
X170633000Y-97829915D01*
X170633000Y-96287000D01*
X170887000Y-96287000D01*
X170887000Y-97829915D01*
X171109039Y-97951904D01*
X171191818Y-97934367D01*
X171451646Y-97823715D01*
X171684895Y-97664500D01*
X171882601Y-97462839D01*
X172030000Y-97237441D01*
X172177399Y-97462839D01*
X172375105Y-97664500D01*
X172608354Y-97823715D01*
X172868182Y-97934367D01*
X172950961Y-97951904D01*
X173173000Y-97829915D01*
X173173000Y-96287000D01*
X170887000Y-96287000D01*
X170633000Y-96287000D01*
X170613000Y-96287000D01*
X170613000Y-96033000D01*
X170633000Y-96033000D01*
X170633000Y-94490085D01*
X170887000Y-94490085D01*
X170887000Y-96033000D01*
X173173000Y-96033000D01*
X173173000Y-94490085D01*
X172950961Y-94368096D01*
X172868182Y-94385633D01*
X172608354Y-94496285D01*
X172375105Y-94655500D01*
X172177399Y-94857161D01*
X172030000Y-95082559D01*
X171882601Y-94857161D01*
X171684895Y-94655500D01*
X171451646Y-94496285D01*
X171191818Y-94385633D01*
X171109039Y-94368096D01*
X170887000Y-94490085D01*
X170633000Y-94490085D01*
X170410961Y-94368096D01*
X170328182Y-94385633D01*
X170068354Y-94496285D01*
X169835105Y-94655500D01*
X169637399Y-94857161D01*
X169487265Y-95086741D01*
X169418932Y-94958899D01*
X169239607Y-94740392D01*
X169055000Y-94588889D01*
X169055000Y-92761018D01*
X169059040Y-92720000D01*
X169042918Y-92556312D01*
X169042532Y-92555037D01*
X168995172Y-92398913D01*
X168917636Y-92253854D01*
X168813291Y-92126709D01*
X168781433Y-92100564D01*
X166719446Y-90038579D01*
X166693291Y-90006709D01*
X166566146Y-89902364D01*
X166421087Y-89824828D01*
X166263689Y-89777082D01*
X166141019Y-89765000D01*
X166141018Y-89765000D01*
X166100000Y-89760960D01*
X166058982Y-89765000D01*
X142745868Y-89765000D01*
X138000868Y-85020000D01*
X171521928Y-85020000D01*
X171521928Y-86580000D01*
X171534188Y-86704482D01*
X171570498Y-86824180D01*
X171629463Y-86934494D01*
X171708815Y-87031185D01*
X171805506Y-87110537D01*
X171915820Y-87169502D01*
X172035518Y-87205812D01*
X172160000Y-87218072D01*
X173720000Y-87218072D01*
X173844482Y-87205812D01*
X173964180Y-87169502D01*
X174074494Y-87110537D01*
X174171185Y-87031185D01*
X174250537Y-86934494D01*
X174309502Y-86824180D01*
X174345812Y-86704482D01*
X174350531Y-86656564D01*
X174380897Y-86702010D01*
X174577990Y-86899103D01*
X174809746Y-87053957D01*
X175067260Y-87160623D01*
X175340635Y-87215000D01*
X175619365Y-87215000D01*
X175892740Y-87160623D01*
X175965000Y-87130692D01*
X175965000Y-88454131D01*
X174038574Y-90380559D01*
X174006710Y-90406709D01*
X173980562Y-90438571D01*
X173902364Y-90533855D01*
X173824828Y-90678914D01*
X173777082Y-90836312D01*
X173760960Y-91000000D01*
X173765001Y-91041028D01*
X173765001Y-94399764D01*
X173731818Y-94385633D01*
X173649039Y-94368096D01*
X173427000Y-94490085D01*
X173427000Y-96033000D01*
X173447000Y-96033000D01*
X173447000Y-96287000D01*
X173427000Y-96287000D01*
X173427000Y-97829915D01*
X173649039Y-97951904D01*
X173731818Y-97934367D01*
X173765000Y-97920236D01*
X173765000Y-98158981D01*
X173760960Y-98200000D01*
X173765000Y-98241018D01*
X173777082Y-98363688D01*
X173824828Y-98521086D01*
X173902364Y-98666145D01*
X174006709Y-98793291D01*
X174038579Y-98819446D01*
X175180558Y-99961426D01*
X175206709Y-99993291D01*
X175333854Y-100097636D01*
X175478913Y-100175172D01*
X175636311Y-100222918D01*
X175758981Y-100235000D01*
X175758991Y-100235000D01*
X175799999Y-100239039D01*
X175841007Y-100235000D01*
X179258982Y-100235000D01*
X179300000Y-100239040D01*
X179341018Y-100235000D01*
X179341019Y-100235000D01*
X179463689Y-100222918D01*
X179621087Y-100175172D01*
X179766146Y-100097636D01*
X179893291Y-99993291D01*
X179919446Y-99961421D01*
X181481426Y-98399441D01*
X181513291Y-98373291D01*
X181617636Y-98246146D01*
X181695172Y-98101087D01*
X181742918Y-97943689D01*
X181755000Y-97821019D01*
X181759040Y-97780000D01*
X181755000Y-97738982D01*
X181755000Y-97731112D01*
X181939608Y-97579608D01*
X182118932Y-97361101D01*
X182190000Y-97228142D01*
X182261068Y-97361101D01*
X182440393Y-97579608D01*
X182658900Y-97758932D01*
X182908193Y-97892182D01*
X183178692Y-97974236D01*
X183460000Y-98001943D01*
X183741309Y-97974236D01*
X184011808Y-97892182D01*
X184261101Y-97758932D01*
X184479608Y-97579608D01*
X184658932Y-97361101D01*
X184730000Y-97228142D01*
X184801068Y-97361101D01*
X184980393Y-97579608D01*
X185198900Y-97758932D01*
X185448193Y-97892182D01*
X185718692Y-97974236D01*
X186000000Y-98001943D01*
X186281309Y-97974236D01*
X186551808Y-97892182D01*
X186801101Y-97758932D01*
X187019608Y-97579608D01*
X187198932Y-97361101D01*
X187270000Y-97228142D01*
X187341068Y-97361101D01*
X187520393Y-97579608D01*
X187738900Y-97758932D01*
X187988193Y-97892182D01*
X188258692Y-97974236D01*
X188540000Y-98001943D01*
X188821309Y-97974236D01*
X189091808Y-97892182D01*
X189341101Y-97758932D01*
X189559608Y-97579608D01*
X189738932Y-97361101D01*
X189810000Y-97228142D01*
X189881068Y-97361101D01*
X190060393Y-97579608D01*
X190278900Y-97758932D01*
X190528193Y-97892182D01*
X190798692Y-97974236D01*
X191080000Y-98001943D01*
X191361309Y-97974236D01*
X191631808Y-97892182D01*
X191881101Y-97758932D01*
X192099608Y-97579608D01*
X192278932Y-97361101D01*
X192350000Y-97228142D01*
X192421068Y-97361101D01*
X192600393Y-97579608D01*
X192818900Y-97758932D01*
X193068193Y-97892182D01*
X193338692Y-97974236D01*
X193620000Y-98001943D01*
X193901309Y-97974236D01*
X194171808Y-97892182D01*
X194421101Y-97758932D01*
X194639608Y-97579608D01*
X194818932Y-97361101D01*
X194887265Y-97233259D01*
X195037399Y-97462839D01*
X195235105Y-97664500D01*
X195468354Y-97823715D01*
X195728182Y-97934367D01*
X195810961Y-97951904D01*
X196033000Y-97829915D01*
X196033000Y-96287000D01*
X196287000Y-96287000D01*
X196287000Y-97829915D01*
X196509039Y-97951904D01*
X196591818Y-97934367D01*
X196851646Y-97823715D01*
X197084895Y-97664500D01*
X197282601Y-97462839D01*
X197430000Y-97237441D01*
X197577399Y-97462839D01*
X197775105Y-97664500D01*
X198008354Y-97823715D01*
X198268182Y-97934367D01*
X198350961Y-97951904D01*
X198573000Y-97829915D01*
X198573000Y-96287000D01*
X196287000Y-96287000D01*
X196033000Y-96287000D01*
X196013000Y-96287000D01*
X196013000Y-96033000D01*
X196033000Y-96033000D01*
X196033000Y-94490085D01*
X196287000Y-94490085D01*
X196287000Y-96033000D01*
X198573000Y-96033000D01*
X198573000Y-94490085D01*
X198350961Y-94368096D01*
X198268182Y-94385633D01*
X198008354Y-94496285D01*
X197775105Y-94655500D01*
X197577399Y-94857161D01*
X197430000Y-95082559D01*
X197282601Y-94857161D01*
X197084895Y-94655500D01*
X196851646Y-94496285D01*
X196591818Y-94385633D01*
X196509039Y-94368096D01*
X196287000Y-94490085D01*
X196033000Y-94490085D01*
X195810961Y-94368096D01*
X195728182Y-94385633D01*
X195468354Y-94496285D01*
X195235105Y-94655500D01*
X195037399Y-94857161D01*
X194887265Y-95086741D01*
X194818932Y-94958899D01*
X194639607Y-94740392D01*
X194421100Y-94561068D01*
X194171807Y-94427818D01*
X193901308Y-94345764D01*
X193620000Y-94318057D01*
X193338691Y-94345764D01*
X193068192Y-94427818D01*
X192818899Y-94561068D01*
X192600392Y-94740393D01*
X192421068Y-94958900D01*
X192350000Y-95091858D01*
X192278932Y-94958899D01*
X192099607Y-94740392D01*
X191881100Y-94561068D01*
X191631807Y-94427818D01*
X191361308Y-94345764D01*
X191080000Y-94318057D01*
X190798691Y-94345764D01*
X190528192Y-94427818D01*
X190278899Y-94561068D01*
X190060392Y-94740393D01*
X189881068Y-94958900D01*
X189810000Y-95091858D01*
X189738932Y-94958899D01*
X189559607Y-94740392D01*
X189341100Y-94561068D01*
X189091807Y-94427818D01*
X188821308Y-94345764D01*
X188540000Y-94318057D01*
X188258691Y-94345764D01*
X187988192Y-94427818D01*
X187738899Y-94561068D01*
X187520392Y-94740393D01*
X187341068Y-94958900D01*
X187270000Y-95091858D01*
X187198932Y-94958899D01*
X187019607Y-94740392D01*
X186801100Y-94561068D01*
X186551807Y-94427818D01*
X186281308Y-94345764D01*
X186000000Y-94318057D01*
X185718691Y-94345764D01*
X185448192Y-94427818D01*
X185198899Y-94561068D01*
X184980392Y-94740393D01*
X184801068Y-94958900D01*
X184730000Y-95091858D01*
X184658932Y-94958899D01*
X184479607Y-94740392D01*
X184261100Y-94561068D01*
X184011807Y-94427818D01*
X183741308Y-94345764D01*
X183460000Y-94318057D01*
X183178691Y-94345764D01*
X182908192Y-94427818D01*
X182658899Y-94561068D01*
X182440392Y-94740393D01*
X182261068Y-94958900D01*
X182190000Y-95091858D01*
X182118932Y-94958899D01*
X181939607Y-94740392D01*
X181721100Y-94561068D01*
X181471807Y-94427818D01*
X181201308Y-94345764D01*
X180920000Y-94318057D01*
X180638691Y-94345764D01*
X180368192Y-94427818D01*
X180118899Y-94561068D01*
X180035001Y-94629922D01*
X180035001Y-87114124D01*
X180147260Y-87160623D01*
X180420635Y-87215000D01*
X180699365Y-87215000D01*
X180972740Y-87160623D01*
X181230254Y-87053957D01*
X181462010Y-86899103D01*
X181659103Y-86702010D01*
X181813957Y-86470254D01*
X181830000Y-86431523D01*
X181846043Y-86470254D01*
X182000897Y-86702010D01*
X182197990Y-86899103D01*
X182429746Y-87053957D01*
X182687260Y-87160623D01*
X182960635Y-87215000D01*
X183239365Y-87215000D01*
X183512740Y-87160623D01*
X183770254Y-87053957D01*
X184002010Y-86899103D01*
X184199103Y-86702010D01*
X184353957Y-86470254D01*
X184370000Y-86431523D01*
X184386043Y-86470254D01*
X184540897Y-86702010D01*
X184737990Y-86899103D01*
X184969746Y-87053957D01*
X185227260Y-87160623D01*
X185500635Y-87215000D01*
X185779365Y-87215000D01*
X186052740Y-87160623D01*
X186310254Y-87053957D01*
X186542010Y-86899103D01*
X186739103Y-86702010D01*
X186893957Y-86470254D01*
X186910000Y-86431523D01*
X186926043Y-86470254D01*
X187080897Y-86702010D01*
X187277990Y-86899103D01*
X187509746Y-87053957D01*
X187767260Y-87160623D01*
X188040635Y-87215000D01*
X188319365Y-87215000D01*
X188592740Y-87160623D01*
X188850254Y-87053957D01*
X189082010Y-86899103D01*
X189279103Y-86702010D01*
X189433957Y-86470254D01*
X189450000Y-86431523D01*
X189466043Y-86470254D01*
X189620897Y-86702010D01*
X189817990Y-86899103D01*
X190049746Y-87053957D01*
X190307260Y-87160623D01*
X190580635Y-87215000D01*
X190859365Y-87215000D01*
X191132740Y-87160623D01*
X191390254Y-87053957D01*
X191622010Y-86899103D01*
X191819103Y-86702010D01*
X191973957Y-86470254D01*
X191990000Y-86431523D01*
X192006043Y-86470254D01*
X192160897Y-86702010D01*
X192357990Y-86899103D01*
X192589746Y-87053957D01*
X192847260Y-87160623D01*
X193120635Y-87215000D01*
X193399365Y-87215000D01*
X193672740Y-87160623D01*
X193930254Y-87053957D01*
X194162010Y-86899103D01*
X194359103Y-86702010D01*
X194513957Y-86470254D01*
X194530000Y-86431523D01*
X194546043Y-86470254D01*
X194700897Y-86702010D01*
X194897990Y-86899103D01*
X195129746Y-87053957D01*
X195387260Y-87160623D01*
X195660635Y-87215000D01*
X195939365Y-87215000D01*
X196212740Y-87160623D01*
X196470254Y-87053957D01*
X196702010Y-86899103D01*
X196899103Y-86702010D01*
X197053957Y-86470254D01*
X197070000Y-86431523D01*
X197086043Y-86470254D01*
X197240897Y-86702010D01*
X197437990Y-86899103D01*
X197669746Y-87053957D01*
X197927260Y-87160623D01*
X198200635Y-87215000D01*
X198479365Y-87215000D01*
X198752740Y-87160623D01*
X199010254Y-87053957D01*
X199242010Y-86899103D01*
X199439103Y-86702010D01*
X199593957Y-86470254D01*
X199610000Y-86431523D01*
X199626043Y-86470254D01*
X199780897Y-86702010D01*
X199977990Y-86899103D01*
X200209746Y-87053957D01*
X200467260Y-87160623D01*
X200740635Y-87215000D01*
X201019365Y-87215000D01*
X201292740Y-87160623D01*
X201550254Y-87053957D01*
X201782010Y-86899103D01*
X201979103Y-86702010D01*
X202133957Y-86470254D01*
X202150000Y-86431523D01*
X202166043Y-86470254D01*
X202320897Y-86702010D01*
X202517990Y-86899103D01*
X202585001Y-86943878D01*
X202585000Y-91234131D01*
X200678574Y-93140559D01*
X200646710Y-93166709D01*
X200620562Y-93198571D01*
X200542364Y-93293855D01*
X200464828Y-93438914D01*
X200417082Y-93596312D01*
X200400960Y-93760000D01*
X200405001Y-93801028D01*
X200405001Y-94588888D01*
X200220392Y-94740393D01*
X200041068Y-94958900D01*
X199972735Y-95086742D01*
X199822601Y-94857161D01*
X199624895Y-94655500D01*
X199391646Y-94496285D01*
X199131818Y-94385633D01*
X199049039Y-94368096D01*
X198827000Y-94490085D01*
X198827000Y-96033000D01*
X198847000Y-96033000D01*
X198847000Y-96287000D01*
X198827000Y-96287000D01*
X198827000Y-97829915D01*
X199049039Y-97951904D01*
X199131818Y-97934367D01*
X199391646Y-97823715D01*
X199624895Y-97664500D01*
X199822601Y-97462839D01*
X199972735Y-97233259D01*
X200041068Y-97361101D01*
X200220393Y-97579608D01*
X200438900Y-97758932D01*
X200688193Y-97892182D01*
X200958692Y-97974236D01*
X201240000Y-98001943D01*
X201521309Y-97974236D01*
X201791808Y-97892182D01*
X202041101Y-97758932D01*
X202259608Y-97579608D01*
X202438932Y-97361101D01*
X202510000Y-97228142D01*
X202581068Y-97361101D01*
X202760393Y-97579608D01*
X202978900Y-97758932D01*
X203228193Y-97892182D01*
X203498692Y-97974236D01*
X203780000Y-98001943D01*
X204061309Y-97974236D01*
X204331808Y-97892182D01*
X204581101Y-97758932D01*
X204799608Y-97579608D01*
X204978932Y-97361101D01*
X205050000Y-97228142D01*
X205121068Y-97361101D01*
X205300393Y-97579608D01*
X205518900Y-97758932D01*
X205768193Y-97892182D01*
X206038692Y-97974236D01*
X206320000Y-98001943D01*
X206601309Y-97974236D01*
X206871808Y-97892182D01*
X207121101Y-97758932D01*
X207339608Y-97579608D01*
X207518932Y-97361101D01*
X207590000Y-97228142D01*
X207661068Y-97361101D01*
X207840393Y-97579608D01*
X208058900Y-97758932D01*
X208308193Y-97892182D01*
X208578692Y-97974236D01*
X208860000Y-98001943D01*
X209141309Y-97974236D01*
X209411808Y-97892182D01*
X209661101Y-97758932D01*
X209879608Y-97579608D01*
X210058932Y-97361101D01*
X210130000Y-97228142D01*
X210201068Y-97361101D01*
X210380393Y-97579608D01*
X210563895Y-97730204D01*
X210560960Y-97760000D01*
X210577082Y-97923688D01*
X210624828Y-98081086D01*
X210702364Y-98226145D01*
X210725907Y-98254832D01*
X210806710Y-98353291D01*
X210838574Y-98379441D01*
X212520573Y-100061442D01*
X212546719Y-100093301D01*
X212673864Y-100197646D01*
X212818923Y-100275182D01*
X212976321Y-100322928D01*
X213098991Y-100335010D01*
X213098992Y-100335010D01*
X213140010Y-100339050D01*
X213181028Y-100335010D01*
X223458972Y-100335010D01*
X223499990Y-100339050D01*
X223541008Y-100335010D01*
X223541009Y-100335010D01*
X223663679Y-100322928D01*
X223821077Y-100275182D01*
X223966136Y-100197646D01*
X224093281Y-100093301D01*
X224119436Y-100061431D01*
X229161428Y-95019440D01*
X229193291Y-94993291D01*
X229297636Y-94866146D01*
X229375172Y-94721087D01*
X229422918Y-94563689D01*
X229435000Y-94441019D01*
X229435000Y-94441009D01*
X229439039Y-94400001D01*
X229435000Y-94358993D01*
X229435000Y-92321269D01*
X231158336Y-92321269D01*
X231217797Y-92555037D01*
X231456242Y-92665934D01*
X231711740Y-92728183D01*
X231974473Y-92739390D01*
X232234344Y-92699125D01*
X232481366Y-92608935D01*
X232582203Y-92555037D01*
X232641664Y-92321269D01*
X231900000Y-91579605D01*
X231158336Y-92321269D01*
X229435000Y-92321269D01*
X229435000Y-91474473D01*
X230560610Y-91474473D01*
X230600875Y-91734344D01*
X230691065Y-91981366D01*
X230744963Y-92082203D01*
X230978731Y-92141664D01*
X231720395Y-91400000D01*
X232079605Y-91400000D01*
X232821269Y-92141664D01*
X233055037Y-92082203D01*
X233151592Y-91874596D01*
X233216939Y-92032359D01*
X233363038Y-92251013D01*
X233548987Y-92436962D01*
X233767641Y-92583061D01*
X234010595Y-92683696D01*
X234268514Y-92735000D01*
X234531486Y-92735000D01*
X234789405Y-92683696D01*
X235032359Y-92583061D01*
X235251013Y-92436962D01*
X235436962Y-92251013D01*
X235583061Y-92032359D01*
X235683696Y-91789405D01*
X235735000Y-91531486D01*
X235735000Y-91268514D01*
X235683696Y-91010595D01*
X235583061Y-90767641D01*
X235436962Y-90548987D01*
X235251013Y-90363038D01*
X235032359Y-90216939D01*
X234789405Y-90116304D01*
X234531486Y-90065000D01*
X234268514Y-90065000D01*
X234010595Y-90116304D01*
X233767641Y-90216939D01*
X233548987Y-90363038D01*
X233363038Y-90548987D01*
X233216939Y-90767641D01*
X233149639Y-90930118D01*
X233108935Y-90818634D01*
X233055037Y-90717797D01*
X232821269Y-90658336D01*
X232079605Y-91400000D01*
X231720395Y-91400000D01*
X230978731Y-90658336D01*
X230744963Y-90717797D01*
X230634066Y-90956242D01*
X230571817Y-91211740D01*
X230560610Y-91474473D01*
X229435000Y-91474473D01*
X229435000Y-90478731D01*
X231158336Y-90478731D01*
X231900000Y-91220395D01*
X232641664Y-90478731D01*
X232582203Y-90244963D01*
X232343758Y-90134066D01*
X232088260Y-90071817D01*
X231825527Y-90060610D01*
X231565656Y-90100875D01*
X231318634Y-90191065D01*
X231217797Y-90244963D01*
X231158336Y-90478731D01*
X229435000Y-90478731D01*
X229435000Y-68241007D01*
X229439039Y-68199999D01*
X229435000Y-68158991D01*
X229435000Y-68158981D01*
X229422918Y-68036311D01*
X229375172Y-67878913D01*
X229297636Y-67733854D01*
X229193291Y-67606709D01*
X229161427Y-67580559D01*
X224319446Y-62738579D01*
X224293291Y-62706709D01*
X224166146Y-62602364D01*
X224021087Y-62524828D01*
X223863689Y-62477082D01*
X223741019Y-62465000D01*
X223741018Y-62465000D01*
X223700000Y-62460960D01*
X223658982Y-62465000D01*
X202345868Y-62465000D01*
X201715000Y-61834133D01*
X201715000Y-61543878D01*
X201782010Y-61499103D01*
X201979103Y-61302010D01*
X202133957Y-61070254D01*
X202150000Y-61031523D01*
X202166043Y-61070254D01*
X202320897Y-61302010D01*
X202517990Y-61499103D01*
X202749746Y-61653957D01*
X203007260Y-61760623D01*
X203280635Y-61815000D01*
X203559365Y-61815000D01*
X203832740Y-61760623D01*
X204090254Y-61653957D01*
X204322010Y-61499103D01*
X204519103Y-61302010D01*
X204673957Y-61070254D01*
X204690000Y-61031523D01*
X204706043Y-61070254D01*
X204860897Y-61302010D01*
X205057990Y-61499103D01*
X205289746Y-61653957D01*
X205547260Y-61760623D01*
X205820635Y-61815000D01*
X206099365Y-61815000D01*
X206372740Y-61760623D01*
X206630254Y-61653957D01*
X206862010Y-61499103D01*
X207059103Y-61302010D01*
X207213957Y-61070254D01*
X207230000Y-61031523D01*
X207246043Y-61070254D01*
X207400897Y-61302010D01*
X207597990Y-61499103D01*
X207829746Y-61653957D01*
X208087260Y-61760623D01*
X208360635Y-61815000D01*
X208639365Y-61815000D01*
X208912740Y-61760623D01*
X209170254Y-61653957D01*
X209402010Y-61499103D01*
X209599103Y-61302010D01*
X209753957Y-61070254D01*
X209770000Y-61031523D01*
X209786043Y-61070254D01*
X209940897Y-61302010D01*
X210137990Y-61499103D01*
X210369746Y-61653957D01*
X210627260Y-61760623D01*
X210900635Y-61815000D01*
X211179365Y-61815000D01*
X211452740Y-61760623D01*
X211710254Y-61653957D01*
X211942010Y-61499103D01*
X212139103Y-61302010D01*
X212293957Y-61070254D01*
X212310000Y-61031523D01*
X212326043Y-61070254D01*
X212480897Y-61302010D01*
X212677990Y-61499103D01*
X212909746Y-61653957D01*
X213167260Y-61760623D01*
X213440635Y-61815000D01*
X213719365Y-61815000D01*
X213992740Y-61760623D01*
X214250254Y-61653957D01*
X214482010Y-61499103D01*
X214679103Y-61302010D01*
X214833957Y-61070254D01*
X214850000Y-61031523D01*
X214866043Y-61070254D01*
X215020897Y-61302010D01*
X215217990Y-61499103D01*
X215449746Y-61653957D01*
X215707260Y-61760623D01*
X215980635Y-61815000D01*
X216259365Y-61815000D01*
X216532740Y-61760623D01*
X216790254Y-61653957D01*
X217022010Y-61499103D01*
X217219103Y-61302010D01*
X217373957Y-61070254D01*
X217390000Y-61031523D01*
X217406043Y-61070254D01*
X217560897Y-61302010D01*
X217757990Y-61499103D01*
X217989746Y-61653957D01*
X218247260Y-61760623D01*
X218520635Y-61815000D01*
X218799365Y-61815000D01*
X219072740Y-61760623D01*
X219330254Y-61653957D01*
X219562010Y-61499103D01*
X219759103Y-61302010D01*
X219913957Y-61070254D01*
X220020623Y-60812740D01*
X220075000Y-60539365D01*
X220075000Y-60260635D01*
X220020623Y-59987260D01*
X219913957Y-59729746D01*
X219759103Y-59497990D01*
X219562010Y-59300897D01*
X219330254Y-59146043D01*
X219072740Y-59039377D01*
X218799365Y-58985000D01*
X218520635Y-58985000D01*
X218247260Y-59039377D01*
X217989746Y-59146043D01*
X217757990Y-59300897D01*
X217560897Y-59497990D01*
X217406043Y-59729746D01*
X217390000Y-59768477D01*
X217373957Y-59729746D01*
X217219103Y-59497990D01*
X217022010Y-59300897D01*
X216790254Y-59146043D01*
X216532740Y-59039377D01*
X216259365Y-58985000D01*
X215980635Y-58985000D01*
X215707260Y-59039377D01*
X215449746Y-59146043D01*
X215217990Y-59300897D01*
X215020897Y-59497990D01*
X214866043Y-59729746D01*
X214850000Y-59768477D01*
X214833957Y-59729746D01*
X214679103Y-59497990D01*
X214482010Y-59300897D01*
X214250254Y-59146043D01*
X213992740Y-59039377D01*
X213719365Y-58985000D01*
X213440635Y-58985000D01*
X213167260Y-59039377D01*
X212909746Y-59146043D01*
X212677990Y-59300897D01*
X212480897Y-59497990D01*
X212326043Y-59729746D01*
X212310000Y-59768477D01*
X212293957Y-59729746D01*
X212139103Y-59497990D01*
X211942010Y-59300897D01*
X211710254Y-59146043D01*
X211452740Y-59039377D01*
X211179365Y-58985000D01*
X210900635Y-58985000D01*
X210627260Y-59039377D01*
X210369746Y-59146043D01*
X210137990Y-59300897D01*
X209940897Y-59497990D01*
X209786043Y-59729746D01*
X209770000Y-59768477D01*
X209753957Y-59729746D01*
X209599103Y-59497990D01*
X209402010Y-59300897D01*
X209170254Y-59146043D01*
X208912740Y-59039377D01*
X208639365Y-58985000D01*
X208360635Y-58985000D01*
X208087260Y-59039377D01*
X207829746Y-59146043D01*
X207597990Y-59300897D01*
X207400897Y-59497990D01*
X207246043Y-59729746D01*
X207230000Y-59768477D01*
X207213957Y-59729746D01*
X207059103Y-59497990D01*
X206862010Y-59300897D01*
X206630254Y-59146043D01*
X206372740Y-59039377D01*
X206099365Y-58985000D01*
X205820635Y-58985000D01*
X205547260Y-59039377D01*
X205289746Y-59146043D01*
X205057990Y-59300897D01*
X204860897Y-59497990D01*
X204706043Y-59729746D01*
X204690000Y-59768477D01*
X204673957Y-59729746D01*
X204519103Y-59497990D01*
X204322010Y-59300897D01*
X204090254Y-59146043D01*
X203832740Y-59039377D01*
X203559365Y-58985000D01*
X203280635Y-58985000D01*
X203007260Y-59039377D01*
X202749746Y-59146043D01*
X202517990Y-59300897D01*
X202320897Y-59497990D01*
X202166043Y-59729746D01*
X202150000Y-59768477D01*
X202133957Y-59729746D01*
X201979103Y-59497990D01*
X201782010Y-59300897D01*
X201550254Y-59146043D01*
X201292740Y-59039377D01*
X201019365Y-58985000D01*
X200740635Y-58985000D01*
X200467260Y-59039377D01*
X200209746Y-59146043D01*
X199977990Y-59300897D01*
X199780897Y-59497990D01*
X199626043Y-59729746D01*
X199610000Y-59768477D01*
X199593957Y-59729746D01*
X199439103Y-59497990D01*
X199242010Y-59300897D01*
X199010254Y-59146043D01*
X198752740Y-59039377D01*
X198479365Y-58985000D01*
X198200635Y-58985000D01*
X197927260Y-59039377D01*
X197669746Y-59146043D01*
X197437990Y-59300897D01*
X197240897Y-59497990D01*
X197086043Y-59729746D01*
X197070000Y-59768477D01*
X197053957Y-59729746D01*
X196899103Y-59497990D01*
X196702010Y-59300897D01*
X196470254Y-59146043D01*
X196212740Y-59039377D01*
X195939365Y-58985000D01*
X195660635Y-58985000D01*
X195387260Y-59039377D01*
X195129746Y-59146043D01*
X194897990Y-59300897D01*
X194700897Y-59497990D01*
X194546043Y-59729746D01*
X194530000Y-59768477D01*
X194513957Y-59729746D01*
X194359103Y-59497990D01*
X194162010Y-59300897D01*
X193930254Y-59146043D01*
X193672740Y-59039377D01*
X193399365Y-58985000D01*
X193120635Y-58985000D01*
X192847260Y-59039377D01*
X192589746Y-59146043D01*
X192357990Y-59300897D01*
X192160897Y-59497990D01*
X192006043Y-59729746D01*
X191990000Y-59768477D01*
X191973957Y-59729746D01*
X191819103Y-59497990D01*
X191622010Y-59300897D01*
X191390254Y-59146043D01*
X191132740Y-59039377D01*
X190859365Y-58985000D01*
X190580635Y-58985000D01*
X190307260Y-59039377D01*
X190049746Y-59146043D01*
X189817990Y-59300897D01*
X189620897Y-59497990D01*
X189466043Y-59729746D01*
X189451223Y-59765525D01*
X189400349Y-59670345D01*
X189158421Y-59601184D01*
X188359605Y-60400000D01*
X189158421Y-61198816D01*
X189400349Y-61129655D01*
X189448425Y-61027721D01*
X189466043Y-61070254D01*
X189620897Y-61302010D01*
X189817990Y-61499103D01*
X189885001Y-61543878D01*
X189885000Y-63778981D01*
X189880960Y-63820000D01*
X189888179Y-63893291D01*
X189897082Y-63983688D01*
X189944828Y-64141086D01*
X190022364Y-64286145D01*
X190126709Y-64413291D01*
X190158579Y-64439446D01*
X192980559Y-67261427D01*
X193006709Y-67293291D01*
X193072154Y-67347000D01*
X193133854Y-67397636D01*
X193278913Y-67475172D01*
X193436311Y-67522918D01*
X193599999Y-67539040D01*
X193641018Y-67535000D01*
X221754133Y-67535000D01*
X224465001Y-70245869D01*
X224465000Y-92754132D01*
X221894133Y-95325000D01*
X220387615Y-95325000D01*
X220352182Y-95208192D01*
X220218932Y-94958899D01*
X220039607Y-94740392D01*
X219821100Y-94561068D01*
X219571807Y-94427818D01*
X219301308Y-94345764D01*
X219020000Y-94318057D01*
X218738691Y-94345764D01*
X218468192Y-94427818D01*
X218218899Y-94561068D01*
X218000392Y-94740393D01*
X217821068Y-94958900D01*
X217750000Y-95091858D01*
X217678932Y-94958899D01*
X217499607Y-94740392D01*
X217281100Y-94561068D01*
X217031807Y-94427818D01*
X216761308Y-94345764D01*
X216480000Y-94318057D01*
X216198691Y-94345764D01*
X215928192Y-94427818D01*
X215678899Y-94561068D01*
X215460392Y-94740393D01*
X215281068Y-94958900D01*
X215210000Y-95091858D01*
X215138932Y-94958899D01*
X214959607Y-94740392D01*
X214741100Y-94561068D01*
X214491807Y-94427818D01*
X214221308Y-94345764D01*
X213940000Y-94318057D01*
X213658691Y-94345764D01*
X213388192Y-94427818D01*
X213138899Y-94561068D01*
X212920392Y-94740393D01*
X212741068Y-94958900D01*
X212670000Y-95091858D01*
X212598932Y-94958899D01*
X212419607Y-94740392D01*
X212201100Y-94561068D01*
X211951807Y-94427818D01*
X211681308Y-94345764D01*
X211400000Y-94318057D01*
X211118691Y-94345764D01*
X210848192Y-94427818D01*
X210598899Y-94561068D01*
X210380392Y-94740393D01*
X210201068Y-94958900D01*
X210130000Y-95091858D01*
X210058932Y-94958899D01*
X209879607Y-94740392D01*
X209661100Y-94561068D01*
X209411807Y-94427818D01*
X209141308Y-94345764D01*
X208860000Y-94318057D01*
X208578691Y-94345764D01*
X208308192Y-94427818D01*
X208058899Y-94561068D01*
X208035000Y-94580682D01*
X208035000Y-87138976D01*
X208087260Y-87160623D01*
X208360635Y-87215000D01*
X208639365Y-87215000D01*
X208912740Y-87160623D01*
X209170254Y-87053957D01*
X209402010Y-86899103D01*
X209599103Y-86702010D01*
X209753957Y-86470254D01*
X209770000Y-86431523D01*
X209786043Y-86470254D01*
X209940897Y-86702010D01*
X210137990Y-86899103D01*
X210369746Y-87053957D01*
X210627260Y-87160623D01*
X210900635Y-87215000D01*
X211179365Y-87215000D01*
X211452740Y-87160623D01*
X211710254Y-87053957D01*
X211942010Y-86899103D01*
X212139103Y-86702010D01*
X212293957Y-86470254D01*
X212310000Y-86431523D01*
X212326043Y-86470254D01*
X212480897Y-86702010D01*
X212677990Y-86899103D01*
X212909746Y-87053957D01*
X213167260Y-87160623D01*
X213440635Y-87215000D01*
X213719365Y-87215000D01*
X213992740Y-87160623D01*
X214250254Y-87053957D01*
X214482010Y-86899103D01*
X214679103Y-86702010D01*
X214833957Y-86470254D01*
X214850000Y-86431523D01*
X214866043Y-86470254D01*
X215020897Y-86702010D01*
X215217990Y-86899103D01*
X215449746Y-87053957D01*
X215707260Y-87160623D01*
X215980635Y-87215000D01*
X216259365Y-87215000D01*
X216532740Y-87160623D01*
X216790254Y-87053957D01*
X217022010Y-86899103D01*
X217219103Y-86702010D01*
X217373957Y-86470254D01*
X217390000Y-86431523D01*
X217406043Y-86470254D01*
X217560897Y-86702010D01*
X217757990Y-86899103D01*
X217989746Y-87053957D01*
X218247260Y-87160623D01*
X218520635Y-87215000D01*
X218799365Y-87215000D01*
X219072740Y-87160623D01*
X219330254Y-87053957D01*
X219562010Y-86899103D01*
X219759103Y-86702010D01*
X219913957Y-86470254D01*
X220020623Y-86212740D01*
X220075000Y-85939365D01*
X220075000Y-85660635D01*
X220020623Y-85387260D01*
X219913957Y-85129746D01*
X219759103Y-84897990D01*
X219562010Y-84700897D01*
X219330254Y-84546043D01*
X219072740Y-84439377D01*
X218799365Y-84385000D01*
X218520635Y-84385000D01*
X218247260Y-84439377D01*
X217989746Y-84546043D01*
X217757990Y-84700897D01*
X217560897Y-84897990D01*
X217406043Y-85129746D01*
X217390000Y-85168477D01*
X217373957Y-85129746D01*
X217219103Y-84897990D01*
X217022010Y-84700897D01*
X216790254Y-84546043D01*
X216532740Y-84439377D01*
X216259365Y-84385000D01*
X215980635Y-84385000D01*
X215707260Y-84439377D01*
X215449746Y-84546043D01*
X215217990Y-84700897D01*
X215020897Y-84897990D01*
X214866043Y-85129746D01*
X214850000Y-85168477D01*
X214833957Y-85129746D01*
X214679103Y-84897990D01*
X214482010Y-84700897D01*
X214250254Y-84546043D01*
X213992740Y-84439377D01*
X213719365Y-84385000D01*
X213440635Y-84385000D01*
X213167260Y-84439377D01*
X212909746Y-84546043D01*
X212677990Y-84700897D01*
X212480897Y-84897990D01*
X212326043Y-85129746D01*
X212310000Y-85168477D01*
X212293957Y-85129746D01*
X212139103Y-84897990D01*
X211942010Y-84700897D01*
X211710254Y-84546043D01*
X211452740Y-84439377D01*
X211179365Y-84385000D01*
X210900635Y-84385000D01*
X210627260Y-84439377D01*
X210369746Y-84546043D01*
X210137990Y-84700897D01*
X209940897Y-84897990D01*
X209786043Y-85129746D01*
X209770000Y-85168477D01*
X209753957Y-85129746D01*
X209599103Y-84897990D01*
X209402010Y-84700897D01*
X209170254Y-84546043D01*
X208912740Y-84439377D01*
X208639365Y-84385000D01*
X208360635Y-84385000D01*
X208087260Y-84439377D01*
X207934426Y-84502683D01*
X207897636Y-84433854D01*
X207793291Y-84306709D01*
X207761426Y-84280559D01*
X206319446Y-82838579D01*
X206293291Y-82806709D01*
X206166146Y-82702364D01*
X206021087Y-82624828D01*
X205863689Y-82577082D01*
X205741019Y-82565000D01*
X205741018Y-82565000D01*
X205700000Y-82560960D01*
X205658982Y-82565000D01*
X203321018Y-82565000D01*
X203280000Y-82560960D01*
X203238982Y-82565000D01*
X203238981Y-82565000D01*
X203116311Y-82577082D01*
X202958913Y-82624828D01*
X202813854Y-82702364D01*
X202686709Y-82806709D01*
X202660563Y-82838568D01*
X201098410Y-84400723D01*
X201019365Y-84385000D01*
X200740635Y-84385000D01*
X200467260Y-84439377D01*
X200209746Y-84546043D01*
X199977990Y-84700897D01*
X199780897Y-84897990D01*
X199626043Y-85129746D01*
X199610000Y-85168477D01*
X199593957Y-85129746D01*
X199439103Y-84897990D01*
X199242010Y-84700897D01*
X199010254Y-84546043D01*
X198752740Y-84439377D01*
X198479365Y-84385000D01*
X198200635Y-84385000D01*
X197927260Y-84439377D01*
X197669746Y-84546043D01*
X197437990Y-84700897D01*
X197240897Y-84897990D01*
X197086043Y-85129746D01*
X197070000Y-85168477D01*
X197053957Y-85129746D01*
X196899103Y-84897990D01*
X196702010Y-84700897D01*
X196470254Y-84546043D01*
X196212740Y-84439377D01*
X195939365Y-84385000D01*
X195660635Y-84385000D01*
X195387260Y-84439377D01*
X195129746Y-84546043D01*
X194897990Y-84700897D01*
X194700897Y-84897990D01*
X194546043Y-85129746D01*
X194530000Y-85168477D01*
X194513957Y-85129746D01*
X194359103Y-84897990D01*
X194162010Y-84700897D01*
X193930254Y-84546043D01*
X193672740Y-84439377D01*
X193399365Y-84385000D01*
X193120635Y-84385000D01*
X192847260Y-84439377D01*
X192589746Y-84546043D01*
X192357990Y-84700897D01*
X192160897Y-84897990D01*
X192006043Y-85129746D01*
X191990000Y-85168477D01*
X191973957Y-85129746D01*
X191819103Y-84897990D01*
X191622010Y-84700897D01*
X191390254Y-84546043D01*
X191132740Y-84439377D01*
X190859365Y-84385000D01*
X190580635Y-84385000D01*
X190307260Y-84439377D01*
X190049746Y-84546043D01*
X189817990Y-84700897D01*
X189620897Y-84897990D01*
X189466043Y-85129746D01*
X189450000Y-85168477D01*
X189433957Y-85129746D01*
X189279103Y-84897990D01*
X189082010Y-84700897D01*
X188850254Y-84546043D01*
X188592740Y-84439377D01*
X188319365Y-84385000D01*
X188040635Y-84385000D01*
X187767260Y-84439377D01*
X187509746Y-84546043D01*
X187277990Y-84700897D01*
X187080897Y-84897990D01*
X186926043Y-85129746D01*
X186910000Y-85168477D01*
X186893957Y-85129746D01*
X186739103Y-84897990D01*
X186542010Y-84700897D01*
X186310254Y-84546043D01*
X186052740Y-84439377D01*
X185779365Y-84385000D01*
X185500635Y-84385000D01*
X185227260Y-84439377D01*
X184969746Y-84546043D01*
X184737990Y-84700897D01*
X184540897Y-84897990D01*
X184386043Y-85129746D01*
X184370000Y-85168477D01*
X184353957Y-85129746D01*
X184199103Y-84897990D01*
X184002010Y-84700897D01*
X183770254Y-84546043D01*
X183512740Y-84439377D01*
X183239365Y-84385000D01*
X182960635Y-84385000D01*
X182687260Y-84439377D01*
X182429746Y-84546043D01*
X182197990Y-84700897D01*
X182000897Y-84897990D01*
X181846043Y-85129746D01*
X181830000Y-85168477D01*
X181813957Y-85129746D01*
X181659103Y-84897990D01*
X181462010Y-84700897D01*
X181230254Y-84546043D01*
X180972740Y-84439377D01*
X180699365Y-84385000D01*
X180420635Y-84385000D01*
X180147260Y-84439377D01*
X180035001Y-84485876D01*
X180035001Y-64741008D01*
X180039040Y-64700000D01*
X180035001Y-64658992D01*
X180035001Y-64658982D01*
X180022919Y-64536312D01*
X179975173Y-64378914D01*
X179897637Y-64233855D01*
X179793292Y-64106710D01*
X179761427Y-64080559D01*
X178855000Y-63174133D01*
X178855000Y-61543878D01*
X178922010Y-61499103D01*
X179119103Y-61302010D01*
X179273957Y-61070254D01*
X179290000Y-61031523D01*
X179306043Y-61070254D01*
X179460897Y-61302010D01*
X179657990Y-61499103D01*
X179889746Y-61653957D01*
X180147260Y-61760623D01*
X180420635Y-61815000D01*
X180699365Y-61815000D01*
X180972740Y-61760623D01*
X181230254Y-61653957D01*
X181462010Y-61499103D01*
X181659103Y-61302010D01*
X181813957Y-61070254D01*
X181830000Y-61031523D01*
X181846043Y-61070254D01*
X182000897Y-61302010D01*
X182197990Y-61499103D01*
X182429746Y-61653957D01*
X182687260Y-61760623D01*
X182960635Y-61815000D01*
X183239365Y-61815000D01*
X183512740Y-61760623D01*
X183770254Y-61653957D01*
X184002010Y-61499103D01*
X184199103Y-61302010D01*
X184353957Y-61070254D01*
X184370000Y-61031523D01*
X184386043Y-61070254D01*
X184540897Y-61302010D01*
X184737990Y-61499103D01*
X184969746Y-61653957D01*
X185227260Y-61760623D01*
X185500635Y-61815000D01*
X185779365Y-61815000D01*
X186052740Y-61760623D01*
X186310254Y-61653957D01*
X186542010Y-61499103D01*
X186662692Y-61378421D01*
X187381184Y-61378421D01*
X187450345Y-61620349D01*
X187702443Y-61739248D01*
X187972894Y-61806681D01*
X188251303Y-61820057D01*
X188526972Y-61778860D01*
X188789308Y-61684675D01*
X188909655Y-61620349D01*
X188978816Y-61378421D01*
X188180000Y-60579605D01*
X187381184Y-61378421D01*
X186662692Y-61378421D01*
X186739103Y-61302010D01*
X186893957Y-61070254D01*
X186908777Y-61034475D01*
X186959651Y-61129655D01*
X187201579Y-61198816D01*
X188000395Y-60400000D01*
X187201579Y-59601184D01*
X186959651Y-59670345D01*
X186911575Y-59772279D01*
X186893957Y-59729746D01*
X186739103Y-59497990D01*
X186662692Y-59421579D01*
X187381184Y-59421579D01*
X188180000Y-60220395D01*
X188978816Y-59421579D01*
X188909655Y-59179651D01*
X188657557Y-59060752D01*
X188387106Y-58993319D01*
X188108697Y-58979943D01*
X187833028Y-59021140D01*
X187570692Y-59115325D01*
X187450345Y-59179651D01*
X187381184Y-59421579D01*
X186662692Y-59421579D01*
X186542010Y-59300897D01*
X186310254Y-59146043D01*
X186052740Y-59039377D01*
X185779365Y-58985000D01*
X185500635Y-58985000D01*
X185227260Y-59039377D01*
X184969746Y-59146043D01*
X184737990Y-59300897D01*
X184540897Y-59497990D01*
X184386043Y-59729746D01*
X184370000Y-59768477D01*
X184353957Y-59729746D01*
X184199103Y-59497990D01*
X184002010Y-59300897D01*
X183770254Y-59146043D01*
X183512740Y-59039377D01*
X183239365Y-58985000D01*
X182960635Y-58985000D01*
X182687260Y-59039377D01*
X182429746Y-59146043D01*
X182197990Y-59300897D01*
X182000897Y-59497990D01*
X181846043Y-59729746D01*
X181830000Y-59768477D01*
X181813957Y-59729746D01*
X181659103Y-59497990D01*
X181462010Y-59300897D01*
X181230254Y-59146043D01*
X180972740Y-59039377D01*
X180699365Y-58985000D01*
X180420635Y-58985000D01*
X180147260Y-59039377D01*
X179889746Y-59146043D01*
X179657990Y-59300897D01*
X179460897Y-59497990D01*
X179306043Y-59729746D01*
X179290000Y-59768477D01*
X179273957Y-59729746D01*
X179119103Y-59497990D01*
X178922010Y-59300897D01*
X178690254Y-59146043D01*
X178432740Y-59039377D01*
X178159365Y-58985000D01*
X177880635Y-58985000D01*
X177607260Y-59039377D01*
X177349746Y-59146043D01*
X177117990Y-59300897D01*
X176920897Y-59497990D01*
X176766043Y-59729746D01*
X176750000Y-59768477D01*
X176733957Y-59729746D01*
X176579103Y-59497990D01*
X176382010Y-59300897D01*
X176150254Y-59146043D01*
X175892740Y-59039377D01*
X175619365Y-58985000D01*
X175340635Y-58985000D01*
X175067260Y-59039377D01*
X174809746Y-59146043D01*
X174577990Y-59300897D01*
X174380897Y-59497990D01*
X174226043Y-59729746D01*
X174211223Y-59765525D01*
X174160349Y-59670345D01*
X173918421Y-59601184D01*
X173119605Y-60400000D01*
X173918421Y-61198816D01*
X174160349Y-61129655D01*
X174208425Y-61027721D01*
X174226043Y-61070254D01*
X174380897Y-61302010D01*
X174577990Y-61499103D01*
X174645001Y-61543878D01*
X174645000Y-64938981D01*
X174640960Y-64980000D01*
X174645000Y-65021018D01*
X174657082Y-65143688D01*
X174704828Y-65301086D01*
X174782364Y-65446145D01*
X174886709Y-65573291D01*
X174918578Y-65599446D01*
X175965001Y-66645870D01*
X175965000Y-84469308D01*
X175892740Y-84439377D01*
X175619365Y-84385000D01*
X175340635Y-84385000D01*
X175067260Y-84439377D01*
X174809746Y-84546043D01*
X174577990Y-84700897D01*
X174380897Y-84897990D01*
X174350531Y-84943436D01*
X174345812Y-84895518D01*
X174309502Y-84775820D01*
X174250537Y-84665506D01*
X174171185Y-84568815D01*
X174074494Y-84489463D01*
X173964180Y-84430498D01*
X173844482Y-84394188D01*
X173720000Y-84381928D01*
X172160000Y-84381928D01*
X172035518Y-84394188D01*
X171915820Y-84430498D01*
X171805506Y-84489463D01*
X171708815Y-84568815D01*
X171629463Y-84665506D01*
X171570498Y-84775820D01*
X171534188Y-84895518D01*
X171521928Y-85020000D01*
X138000868Y-85020000D01*
X117835000Y-64854133D01*
X117835000Y-63668065D01*
X117946632Y-63593475D01*
X118153475Y-63386632D01*
X118270000Y-63212240D01*
X118386525Y-63386632D01*
X118593368Y-63593475D01*
X118836589Y-63755990D01*
X119106842Y-63867932D01*
X119393740Y-63925000D01*
X119686260Y-63925000D01*
X119973158Y-63867932D01*
X120243411Y-63755990D01*
X120486632Y-63593475D01*
X120693475Y-63386632D01*
X120768065Y-63275000D01*
X121994133Y-63275000D01*
X130330558Y-71611426D01*
X130356708Y-71643290D01*
X130483853Y-71747635D01*
X130628912Y-71825171D01*
X130786310Y-71872917D01*
X130908980Y-71884999D01*
X130908990Y-71884999D01*
X130949998Y-71889038D01*
X130991006Y-71884999D01*
X138028456Y-71884999D01*
X137975000Y-72153740D01*
X137975000Y-72446260D01*
X138032068Y-72733158D01*
X138144010Y-73003411D01*
X138306525Y-73246632D01*
X138513368Y-73453475D01*
X138687760Y-73570000D01*
X138513368Y-73686525D01*
X138306525Y-73893368D01*
X138144010Y-74136589D01*
X138032068Y-74406842D01*
X137975000Y-74693740D01*
X137975000Y-74986260D01*
X138032068Y-75273158D01*
X138144010Y-75543411D01*
X138306525Y-75786632D01*
X138513368Y-75993475D01*
X138687760Y-76110000D01*
X138513368Y-76226525D01*
X138306525Y-76433368D01*
X138144010Y-76676589D01*
X138032068Y-76946842D01*
X137975000Y-77233740D01*
X137975000Y-77526260D01*
X138032068Y-77813158D01*
X138144010Y-78083411D01*
X138306525Y-78326632D01*
X138513368Y-78533475D01*
X138756589Y-78695990D01*
X139026842Y-78807932D01*
X139313740Y-78865000D01*
X139606260Y-78865000D01*
X139893158Y-78807932D01*
X140163411Y-78695990D01*
X140406632Y-78533475D01*
X140613475Y-78326632D01*
X140730000Y-78152240D01*
X140846525Y-78326632D01*
X141053368Y-78533475D01*
X141296589Y-78695990D01*
X141566842Y-78807932D01*
X141853740Y-78865000D01*
X142146260Y-78865000D01*
X142433158Y-78807932D01*
X142703411Y-78695990D01*
X142946632Y-78533475D01*
X143153475Y-78326632D01*
X143315990Y-78083411D01*
X143427932Y-77813158D01*
X143485000Y-77526260D01*
X143485000Y-77233740D01*
X143427932Y-76946842D01*
X143315990Y-76676589D01*
X143153475Y-76433368D01*
X142946632Y-76226525D01*
X142772240Y-76110000D01*
X142946632Y-75993475D01*
X143153475Y-75786632D01*
X143315990Y-75543411D01*
X143427932Y-75273158D01*
X143485000Y-74986260D01*
X143485000Y-74693740D01*
X143427932Y-74406842D01*
X143315990Y-74136589D01*
X143153475Y-73893368D01*
X142946632Y-73686525D01*
X142772240Y-73570000D01*
X142946632Y-73453475D01*
X143153475Y-73246632D01*
X143315990Y-73003411D01*
X143427932Y-72733158D01*
X143485000Y-72446260D01*
X143485000Y-72153740D01*
X143427932Y-71866842D01*
X143315990Y-71596589D01*
X143153475Y-71353368D01*
X142946632Y-71146525D01*
X142772240Y-71030000D01*
X142946632Y-70913475D01*
X143153475Y-70706632D01*
X143315990Y-70463411D01*
X143427932Y-70193158D01*
X143485000Y-69906260D01*
X143485000Y-69613740D01*
X143427932Y-69326842D01*
X143315990Y-69056589D01*
X143153475Y-68813368D01*
X142946632Y-68606525D01*
X142764466Y-68484805D01*
X142881355Y-68415178D01*
X143097588Y-68220269D01*
X143271641Y-67986920D01*
X143396825Y-67724099D01*
X143441476Y-67576890D01*
X143320155Y-67347000D01*
X142127000Y-67347000D01*
X142127000Y-67367000D01*
X141873000Y-67367000D01*
X141873000Y-67347000D01*
X141853000Y-67347000D01*
X141853000Y-67093000D01*
X141873000Y-67093000D01*
X141873000Y-64807000D01*
X142127000Y-64807000D01*
X142127000Y-67093000D01*
X143320155Y-67093000D01*
X143441476Y-66863110D01*
X143396825Y-66715901D01*
X143271641Y-66453080D01*
X143097588Y-66219731D01*
X142881355Y-66024822D01*
X142755745Y-65950000D01*
X142881355Y-65875178D01*
X143097588Y-65680269D01*
X143271641Y-65446920D01*
X143396825Y-65184099D01*
X143441476Y-65036890D01*
X143320155Y-64807000D01*
X142127000Y-64807000D01*
X141873000Y-64807000D01*
X141853000Y-64807000D01*
X141853000Y-64553000D01*
X141873000Y-64553000D01*
X141873000Y-62267000D01*
X142127000Y-62267000D01*
X142127000Y-64553000D01*
X143320155Y-64553000D01*
X143441476Y-64323110D01*
X143396825Y-64175901D01*
X143271641Y-63913080D01*
X143097588Y-63679731D01*
X142881355Y-63484822D01*
X142755745Y-63410000D01*
X142881355Y-63335178D01*
X143097588Y-63140269D01*
X143271641Y-62906920D01*
X143396825Y-62644099D01*
X143441476Y-62496890D01*
X143320155Y-62267000D01*
X142127000Y-62267000D01*
X141873000Y-62267000D01*
X141853000Y-62267000D01*
X141853000Y-62013000D01*
X141873000Y-62013000D01*
X141873000Y-59727000D01*
X142127000Y-59727000D01*
X142127000Y-62013000D01*
X143320155Y-62013000D01*
X143441476Y-61783110D01*
X143396825Y-61635901D01*
X143274185Y-61378421D01*
X172141184Y-61378421D01*
X172210345Y-61620349D01*
X172462443Y-61739248D01*
X172732894Y-61806681D01*
X173011303Y-61820057D01*
X173286972Y-61778860D01*
X173549308Y-61684675D01*
X173669655Y-61620349D01*
X173738816Y-61378421D01*
X172940000Y-60579605D01*
X172141184Y-61378421D01*
X143274185Y-61378421D01*
X143271641Y-61373080D01*
X143097588Y-61139731D01*
X143013534Y-61063966D01*
X143094180Y-61039502D01*
X143204494Y-60980537D01*
X143301185Y-60901185D01*
X143380537Y-60804494D01*
X143439502Y-60694180D01*
X143475812Y-60574482D01*
X143485973Y-60471303D01*
X171519943Y-60471303D01*
X171561140Y-60746972D01*
X171655325Y-61009308D01*
X171719651Y-61129655D01*
X171961579Y-61198816D01*
X172760395Y-60400000D01*
X171961579Y-59601184D01*
X171719651Y-59670345D01*
X171600752Y-59922443D01*
X171533319Y-60192894D01*
X171519943Y-60471303D01*
X143485973Y-60471303D01*
X143488072Y-60450000D01*
X143485000Y-59885750D01*
X143326250Y-59727000D01*
X142127000Y-59727000D01*
X141873000Y-59727000D01*
X141853000Y-59727000D01*
X141853000Y-59473000D01*
X141873000Y-59473000D01*
X141873000Y-58273750D01*
X142127000Y-58273750D01*
X142127000Y-59473000D01*
X143326250Y-59473000D01*
X143377671Y-59421579D01*
X172141184Y-59421579D01*
X172940000Y-60220395D01*
X173738816Y-59421579D01*
X173669655Y-59179651D01*
X173417557Y-59060752D01*
X173147106Y-58993319D01*
X172868697Y-58979943D01*
X172593028Y-59021140D01*
X172330692Y-59115325D01*
X172210345Y-59179651D01*
X172141184Y-59421579D01*
X143377671Y-59421579D01*
X143485000Y-59314250D01*
X143488072Y-58750000D01*
X143475812Y-58625518D01*
X143439502Y-58505820D01*
X143380537Y-58395506D01*
X143301185Y-58298815D01*
X143204494Y-58219463D01*
X143094180Y-58160498D01*
X142974482Y-58124188D01*
X142850000Y-58111928D01*
X142285750Y-58115000D01*
X142127000Y-58273750D01*
X141873000Y-58273750D01*
X141714250Y-58115000D01*
X141150000Y-58111928D01*
X141025518Y-58124188D01*
X140905820Y-58160498D01*
X140795506Y-58219463D01*
X140698815Y-58298815D01*
X140619463Y-58395506D01*
X140560498Y-58505820D01*
X140538487Y-58578380D01*
X140406632Y-58446525D01*
X140163411Y-58284010D01*
X139893158Y-58172068D01*
X139606260Y-58115000D01*
X139313740Y-58115000D01*
X139026842Y-58172068D01*
X138756589Y-58284010D01*
X138513368Y-58446525D01*
X138306525Y-58653368D01*
X138144010Y-58896589D01*
X138032068Y-59166842D01*
X137975000Y-59453740D01*
X137975000Y-59746260D01*
X138032068Y-60033158D01*
X138144010Y-60303411D01*
X138306525Y-60546632D01*
X138513368Y-60753475D01*
X138687760Y-60870000D01*
X138513368Y-60986525D01*
X138306525Y-61193368D01*
X138144010Y-61436589D01*
X138032068Y-61706842D01*
X137975000Y-61993740D01*
X137975000Y-62286260D01*
X138032068Y-62573158D01*
X138144010Y-62843411D01*
X138306525Y-63086632D01*
X138513368Y-63293475D01*
X138687760Y-63410000D01*
X138513368Y-63526525D01*
X138306525Y-63733368D01*
X138144010Y-63976589D01*
X138032068Y-64246842D01*
X137975000Y-64533740D01*
X137975000Y-64826260D01*
X138032068Y-65113158D01*
X138144010Y-65383411D01*
X138306525Y-65626632D01*
X138513368Y-65833475D01*
X138687760Y-65950000D01*
X138513368Y-66066525D01*
X138306525Y-66273368D01*
X138144010Y-66516589D01*
X138032068Y-66786842D01*
X137975000Y-67073740D01*
X137975000Y-67366260D01*
X138032068Y-67653158D01*
X138041115Y-67674999D01*
X132055867Y-67674999D01*
X123719446Y-59338579D01*
X123693291Y-59306709D01*
X123566146Y-59202364D01*
X123421087Y-59124828D01*
X123263689Y-59077082D01*
X123141019Y-59065000D01*
X123141018Y-59065000D01*
X123100000Y-59060960D01*
X123058982Y-59065000D01*
X120768065Y-59065000D01*
X120693475Y-58953368D01*
X120486632Y-58746525D01*
X120243411Y-58584010D01*
X119973158Y-58472068D01*
X119686260Y-58415000D01*
X119393740Y-58415000D01*
X119106842Y-58472068D01*
X118836589Y-58584010D01*
X118593368Y-58746525D01*
X118461513Y-58878380D01*
X118439502Y-58805820D01*
X118380537Y-58695506D01*
X118301185Y-58598815D01*
X118204494Y-58519463D01*
X118094180Y-58460498D01*
X117974482Y-58424188D01*
X117850000Y-58411928D01*
X117835000Y-58411928D01*
X117835000Y-58241018D01*
X117839040Y-58200000D01*
X117822918Y-58036311D01*
X117775172Y-57878913D01*
X117697636Y-57733854D01*
X117640052Y-57663688D01*
X117593291Y-57606709D01*
X117561428Y-57580560D01*
X116219446Y-56238579D01*
X116193291Y-56206709D01*
X116066146Y-56102364D01*
X115921087Y-56024828D01*
X115763689Y-55977082D01*
X115641019Y-55965000D01*
X115641018Y-55965000D01*
X115600000Y-55960960D01*
X115558982Y-55965000D01*
X101741018Y-55965000D01*
X101700000Y-55960960D01*
X101658982Y-55965000D01*
X101658981Y-55965000D01*
X101536311Y-55977082D01*
X101378913Y-56024828D01*
X101233854Y-56102364D01*
X101106709Y-56206709D01*
X101080558Y-56238574D01*
X100718574Y-56600559D01*
X100686710Y-56626709D01*
X100645370Y-56677082D01*
X100582364Y-56753855D01*
X100504828Y-56898914D01*
X100457082Y-57056312D01*
X100440960Y-57220000D01*
X100445001Y-57261028D01*
X100445001Y-57884133D01*
X98499446Y-55938579D01*
X98473291Y-55906709D01*
X98346146Y-55802364D01*
X98201087Y-55724828D01*
X98043689Y-55677082D01*
X97921019Y-55665000D01*
X97921018Y-55665000D01*
X97880000Y-55660960D01*
X97838982Y-55665000D01*
X93941018Y-55665000D01*
X93900000Y-55660960D01*
X93858982Y-55665000D01*
X93858981Y-55665000D01*
X93736311Y-55677082D01*
X93578913Y-55724828D01*
X93433854Y-55802364D01*
X93306709Y-55906709D01*
X93280563Y-55938568D01*
X92338578Y-56880555D01*
X92306709Y-56906709D01*
X92202365Y-57033854D01*
X92202364Y-57033855D01*
X92124828Y-57178914D01*
X92077082Y-57336312D01*
X92060960Y-57500000D01*
X92065000Y-57541019D01*
X92065001Y-72758971D01*
X92060960Y-72800000D01*
X92077082Y-72963688D01*
X92124828Y-73121086D01*
X92202364Y-73266145D01*
X92202365Y-73266146D01*
X92306710Y-73393291D01*
X92338574Y-73419441D01*
X134980559Y-116061427D01*
X135006709Y-116093291D01*
X135061883Y-116138571D01*
X135133854Y-116197636D01*
X135278913Y-116275172D01*
X135436311Y-116322918D01*
X135599999Y-116339040D01*
X135641018Y-116335000D01*
X164058982Y-116335000D01*
X164100000Y-116339040D01*
X164141018Y-116335000D01*
X164141019Y-116335000D01*
X164263689Y-116322918D01*
X164421087Y-116275172D01*
X164566146Y-116197636D01*
X164693291Y-116093291D01*
X164719446Y-116061421D01*
X166241428Y-114539440D01*
X166273291Y-114513291D01*
X166377636Y-114386146D01*
X166455172Y-114241087D01*
X166502918Y-114083689D01*
X166515000Y-113961019D01*
X166515000Y-113961009D01*
X166519039Y-113920001D01*
X166515000Y-113878993D01*
X166515000Y-112971112D01*
X166699608Y-112819608D01*
X166878932Y-112601101D01*
X166947265Y-112473259D01*
X167097399Y-112702839D01*
X167295105Y-112904500D01*
X167528354Y-113063715D01*
X167788182Y-113174367D01*
X167870961Y-113191904D01*
X168093000Y-113069915D01*
X168093000Y-111527000D01*
X168347000Y-111527000D01*
X168347000Y-113069915D01*
X168569039Y-113191904D01*
X168651818Y-113174367D01*
X168911646Y-113063715D01*
X169144895Y-112904500D01*
X169342601Y-112702839D01*
X169490000Y-112477441D01*
X169637399Y-112702839D01*
X169835105Y-112904500D01*
X170068354Y-113063715D01*
X170328182Y-113174367D01*
X170410961Y-113191904D01*
X170633000Y-113069915D01*
X170633000Y-111527000D01*
X168347000Y-111527000D01*
X168093000Y-111527000D01*
X168073000Y-111527000D01*
X168073000Y-111273000D01*
X168093000Y-111273000D01*
X168093000Y-109730085D01*
X168347000Y-109730085D01*
X168347000Y-111273000D01*
X170633000Y-111273000D01*
X170633000Y-109730085D01*
X170887000Y-109730085D01*
X170887000Y-111273000D01*
X170907000Y-111273000D01*
X170907000Y-111527000D01*
X170887000Y-111527000D01*
X170887000Y-113069915D01*
X171109039Y-113191904D01*
X171191818Y-113174367D01*
X171451646Y-113063715D01*
X171684895Y-112904500D01*
X171882601Y-112702839D01*
X172032735Y-112473259D01*
X172101068Y-112601101D01*
X172280393Y-112819608D01*
X172498900Y-112998932D01*
X172748193Y-113132182D01*
X173018692Y-113214236D01*
X173300000Y-113241943D01*
X173581309Y-113214236D01*
X173851808Y-113132182D01*
X174101101Y-112998932D01*
X174319608Y-112819608D01*
X174498932Y-112601101D01*
X174570000Y-112468142D01*
X174641068Y-112601101D01*
X174820393Y-112819608D01*
X175038900Y-112998932D01*
X175288193Y-113132182D01*
X175558692Y-113214236D01*
X175840000Y-113241943D01*
X176121309Y-113214236D01*
X176391808Y-113132182D01*
X176641101Y-112998932D01*
X176859608Y-112819608D01*
X177038932Y-112601101D01*
X177110000Y-112468142D01*
X177181068Y-112601101D01*
X177360393Y-112819608D01*
X177578900Y-112998932D01*
X177828193Y-113132182D01*
X178098692Y-113214236D01*
X178380000Y-113241943D01*
X178661309Y-113214236D01*
X178931808Y-113132182D01*
X179181101Y-112998932D01*
X179399608Y-112819608D01*
X179578932Y-112601101D01*
X179650000Y-112468142D01*
X179721068Y-112601101D01*
X179900393Y-112819608D01*
X180118900Y-112998932D01*
X180368193Y-113132182D01*
X180638692Y-113214236D01*
X180920000Y-113241943D01*
X181201309Y-113214236D01*
X181471808Y-113132182D01*
X181721101Y-112998932D01*
X181939608Y-112819608D01*
X182118932Y-112601101D01*
X182190000Y-112468142D01*
X182261068Y-112601101D01*
X182440393Y-112819608D01*
X182658900Y-112998932D01*
X182908193Y-113132182D01*
X183178692Y-113214236D01*
X183460000Y-113241943D01*
X183741309Y-113214236D01*
X184011808Y-113132182D01*
X184261101Y-112998932D01*
X184479608Y-112819608D01*
X184658932Y-112601101D01*
X184730000Y-112468142D01*
X184801068Y-112601101D01*
X184980393Y-112819608D01*
X185198900Y-112998932D01*
X185448193Y-113132182D01*
X185718692Y-113214236D01*
X186000000Y-113241943D01*
X186281309Y-113214236D01*
X186551808Y-113132182D01*
X186801101Y-112998932D01*
X187019608Y-112819608D01*
X187198932Y-112601101D01*
X187270000Y-112468142D01*
X187341068Y-112601101D01*
X187520393Y-112819608D01*
X187738900Y-112998932D01*
X187988193Y-113132182D01*
X188258692Y-113214236D01*
X188540000Y-113241943D01*
X188821309Y-113214236D01*
X189091808Y-113132182D01*
X189341101Y-112998932D01*
X189559608Y-112819608D01*
X189738932Y-112601101D01*
X189810000Y-112468142D01*
X189881068Y-112601101D01*
X190060393Y-112819608D01*
X190278900Y-112998932D01*
X190528193Y-113132182D01*
X190798692Y-113214236D01*
X191080000Y-113241943D01*
X191361309Y-113214236D01*
X191631808Y-113132182D01*
X191881101Y-112998932D01*
X192099608Y-112819608D01*
X192278932Y-112601101D01*
X192347265Y-112473259D01*
X192497399Y-112702839D01*
X192695105Y-112904500D01*
X192928354Y-113063715D01*
X193188182Y-113174367D01*
X193270961Y-113191904D01*
X193493000Y-113069915D01*
X193493000Y-111527000D01*
X193473000Y-111527000D01*
X193473000Y-111273000D01*
X193493000Y-111273000D01*
X193493000Y-109730085D01*
X193747000Y-109730085D01*
X193747000Y-111273000D01*
X196033000Y-111273000D01*
X196033000Y-109730085D01*
X195810961Y-109608096D01*
X195728182Y-109625633D01*
X195468354Y-109736285D01*
X195235105Y-109895500D01*
X195037399Y-110097161D01*
X194890000Y-110322559D01*
X194742601Y-110097161D01*
X194544895Y-109895500D01*
X194311646Y-109736285D01*
X194051818Y-109625633D01*
X193969039Y-109608096D01*
X193747000Y-109730085D01*
X193493000Y-109730085D01*
X193270961Y-109608096D01*
X193188182Y-109625633D01*
X192928354Y-109736285D01*
X192695105Y-109895500D01*
X192497399Y-110097161D01*
X192347265Y-110326741D01*
X192278932Y-110198899D01*
X192099607Y-109980392D01*
X191881100Y-109801068D01*
X191631807Y-109667818D01*
X191361308Y-109585764D01*
X191080000Y-109558057D01*
X190798691Y-109585764D01*
X190528192Y-109667818D01*
X190278899Y-109801068D01*
X190060392Y-109980393D01*
X189881068Y-110198900D01*
X189810000Y-110331858D01*
X189738932Y-110198899D01*
X189559607Y-109980392D01*
X189341100Y-109801068D01*
X189091807Y-109667818D01*
X188821308Y-109585764D01*
X188540000Y-109558057D01*
X188258691Y-109585764D01*
X187988192Y-109667818D01*
X187738899Y-109801068D01*
X187520392Y-109980393D01*
X187341068Y-110198900D01*
X187270000Y-110331858D01*
X187198932Y-110198899D01*
X187019607Y-109980392D01*
X186801100Y-109801068D01*
X186551807Y-109667818D01*
X186281308Y-109585764D01*
X186000000Y-109558057D01*
X185718691Y-109585764D01*
X185448192Y-109667818D01*
X185198899Y-109801068D01*
X184980392Y-109980393D01*
X184801068Y-110198900D01*
X184730000Y-110331858D01*
X184658932Y-110198899D01*
X184479607Y-109980392D01*
X184261100Y-109801068D01*
X184011807Y-109667818D01*
X183741308Y-109585764D01*
X183460000Y-109558057D01*
X183178691Y-109585764D01*
X182908192Y-109667818D01*
X182658899Y-109801068D01*
X182440392Y-109980393D01*
X182261068Y-110198900D01*
X182190000Y-110331858D01*
X182118932Y-110198899D01*
X181939607Y-109980392D01*
X181721100Y-109801068D01*
X181471807Y-109667818D01*
X181201308Y-109585764D01*
X180920000Y-109558057D01*
X180638691Y-109585764D01*
X180368192Y-109667818D01*
X180118899Y-109801068D01*
X179900392Y-109980393D01*
X179721068Y-110198900D01*
X179650000Y-110331858D01*
X179578932Y-110198899D01*
X179399607Y-109980392D01*
X179181100Y-109801068D01*
X178931807Y-109667818D01*
X178661308Y-109585764D01*
X178380000Y-109558057D01*
X178098691Y-109585764D01*
X177828192Y-109667818D01*
X177578899Y-109801068D01*
X177360392Y-109980393D01*
X177181068Y-110198900D01*
X177110000Y-110331858D01*
X177038932Y-110198899D01*
X176859607Y-109980392D01*
X176641100Y-109801068D01*
X176391807Y-109667818D01*
X176121308Y-109585764D01*
X175840000Y-109558057D01*
X175558691Y-109585764D01*
X175288192Y-109667818D01*
X175038899Y-109801068D01*
X174820392Y-109980393D01*
X174641068Y-110198900D01*
X174570000Y-110331858D01*
X174498932Y-110198899D01*
X174319607Y-109980392D01*
X174101100Y-109801068D01*
X173851807Y-109667818D01*
X173581308Y-109585764D01*
X173300000Y-109558057D01*
X173018691Y-109585764D01*
X172748192Y-109667818D01*
X172498899Y-109801068D01*
X172280392Y-109980393D01*
X172101068Y-110198900D01*
X172032735Y-110326742D01*
X171882601Y-110097161D01*
X171684895Y-109895500D01*
X171451646Y-109736285D01*
X171191818Y-109625633D01*
X171109039Y-109608096D01*
X170887000Y-109730085D01*
X170633000Y-109730085D01*
X170410961Y-109608096D01*
X170328182Y-109625633D01*
X170068354Y-109736285D01*
X169835105Y-109895500D01*
X169637399Y-110097161D01*
X169490000Y-110322559D01*
X169342601Y-110097161D01*
X169144895Y-109895500D01*
X168911646Y-109736285D01*
X168651818Y-109625633D01*
X168569039Y-109608096D01*
X168347000Y-109730085D01*
X168093000Y-109730085D01*
X167870961Y-109608096D01*
X167788182Y-109625633D01*
X167528354Y-109736285D01*
X167295105Y-109895500D01*
X167097399Y-110097161D01*
X166947265Y-110326741D01*
X166878932Y-110198899D01*
X166699607Y-109980392D01*
X166481100Y-109801068D01*
X166231807Y-109667818D01*
X165961308Y-109585764D01*
X165680000Y-109558057D01*
X165398691Y-109585764D01*
X165128192Y-109667818D01*
X164878899Y-109801068D01*
X164660392Y-109980393D01*
X164481068Y-110198900D01*
X164410000Y-110331858D01*
X164338932Y-110198899D01*
X164159607Y-109980392D01*
X163941100Y-109801068D01*
X163691807Y-109667818D01*
X163421308Y-109585764D01*
X163140000Y-109558057D01*
X162858691Y-109585764D01*
X162588192Y-109667818D01*
X162338899Y-109801068D01*
X162120392Y-109980393D01*
X162027581Y-110093483D01*
X162025812Y-110075518D01*
X161989502Y-109955820D01*
X161930537Y-109845506D01*
X161851185Y-109748815D01*
X161754494Y-109669463D01*
X161644180Y-109610498D01*
X161524482Y-109574188D01*
X161400000Y-109561928D01*
X159800000Y-109561928D01*
X159675518Y-109574188D01*
X159555820Y-109610498D01*
X159445506Y-109669463D01*
X159348815Y-109748815D01*
X159269463Y-109845506D01*
X159210498Y-109955820D01*
X159174188Y-110075518D01*
X159161928Y-110200000D01*
X159161928Y-112600000D01*
X159174188Y-112724482D01*
X159210498Y-112844180D01*
X159269463Y-112954494D01*
X159348815Y-113051185D01*
X159445506Y-113130537D01*
X159555820Y-113189502D01*
X159675518Y-113225812D01*
X159800000Y-113238072D01*
X161400000Y-113238072D01*
X161524482Y-113225812D01*
X161644180Y-113189502D01*
X161754494Y-113130537D01*
X161851185Y-113051185D01*
X161930537Y-112954494D01*
X161989502Y-112844180D01*
X162025812Y-112724482D01*
X162027581Y-112706517D01*
X162120393Y-112819608D01*
X162338900Y-112998932D01*
X162588193Y-113132182D01*
X162858692Y-113214236D01*
X163140000Y-113241943D01*
X163421309Y-113214236D01*
X163691808Y-113132182D01*
X163941101Y-112998932D01*
X164159608Y-112819608D01*
X164338932Y-112601101D01*
X164410000Y-112468142D01*
X164481068Y-112601101D01*
X164660393Y-112819608D01*
X164845000Y-112971111D01*
X164845000Y-113574132D01*
X163754133Y-114665000D01*
X135945868Y-114665000D01*
X93735000Y-72454133D01*
X93735000Y-57845868D01*
X94245868Y-57335000D01*
X97534133Y-57335000D01*
X98614133Y-58415000D01*
X98593740Y-58415000D01*
X98306842Y-58472068D01*
X98036589Y-58584010D01*
X97793368Y-58746525D01*
X97661513Y-58878380D01*
X97639502Y-58805820D01*
X97580537Y-58695506D01*
X97501185Y-58598815D01*
X97404494Y-58519463D01*
X97294180Y-58460498D01*
X97174482Y-58424188D01*
X97050000Y-58411928D01*
X95350000Y-58411928D01*
X95225518Y-58424188D01*
X95105820Y-58460498D01*
X94995506Y-58519463D01*
X94898815Y-58598815D01*
X94819463Y-58695506D01*
X94760498Y-58805820D01*
X94724188Y-58925518D01*
X94711928Y-59050000D01*
X94711928Y-60750000D01*
X94724188Y-60874482D01*
X94760498Y-60994180D01*
X94819463Y-61104494D01*
X94898815Y-61201185D01*
X94995506Y-61280537D01*
X95105820Y-61339502D01*
X95225518Y-61375812D01*
X95350000Y-61388072D01*
X95365000Y-61388072D01*
X95365001Y-72358971D01*
X95360960Y-72400000D01*
X95377082Y-72563688D01*
X95424828Y-72721086D01*
X95424829Y-72721087D01*
X95502365Y-72866146D01*
X95606710Y-72993291D01*
X95638574Y-73019441D01*
X128980559Y-106361427D01*
X129006709Y-106393291D01*
X129133854Y-106497636D01*
X129278913Y-106575172D01*
X129436311Y-106622918D01*
X129600000Y-106639040D01*
X129641018Y-106635000D01*
X216554133Y-106635000D01*
X216965000Y-107045868D01*
X216965000Y-109647553D01*
X216761308Y-109585764D01*
X216480000Y-109558057D01*
X216198691Y-109585764D01*
X215928192Y-109667818D01*
X215678899Y-109801068D01*
X215460392Y-109980393D01*
X215281068Y-110198900D01*
X215210000Y-110331858D01*
X215138932Y-110198899D01*
X214959607Y-109980392D01*
X214741100Y-109801068D01*
X214491807Y-109667818D01*
X214221308Y-109585764D01*
X213940000Y-109558057D01*
X213658691Y-109585764D01*
X213388192Y-109667818D01*
X213138899Y-109801068D01*
X212920392Y-109980393D01*
X212741068Y-110198900D01*
X212670000Y-110331858D01*
X212598932Y-110198899D01*
X212419607Y-109980392D01*
X212201100Y-109801068D01*
X211951807Y-109667818D01*
X211681308Y-109585764D01*
X211400000Y-109558057D01*
X211118691Y-109585764D01*
X210848192Y-109667818D01*
X210598899Y-109801068D01*
X210380392Y-109980393D01*
X210201068Y-110198900D01*
X210130000Y-110331858D01*
X210058932Y-110198899D01*
X209879607Y-109980392D01*
X209661100Y-109801068D01*
X209411807Y-109667818D01*
X209141308Y-109585764D01*
X208860000Y-109558057D01*
X208578691Y-109585764D01*
X208308192Y-109667818D01*
X208058899Y-109801068D01*
X207840392Y-109980393D01*
X207661068Y-110198900D01*
X207590000Y-110331858D01*
X207518932Y-110198899D01*
X207339607Y-109980392D01*
X207121100Y-109801068D01*
X206871807Y-109667818D01*
X206601308Y-109585764D01*
X206320000Y-109558057D01*
X206038691Y-109585764D01*
X205768192Y-109667818D01*
X205518899Y-109801068D01*
X205300392Y-109980393D01*
X205121068Y-110198900D01*
X205050000Y-110331858D01*
X204978932Y-110198899D01*
X204799607Y-109980392D01*
X204581100Y-109801068D01*
X204331807Y-109667818D01*
X204061308Y-109585764D01*
X203780000Y-109558057D01*
X203498691Y-109585764D01*
X203228192Y-109667818D01*
X202978899Y-109801068D01*
X202760392Y-109980393D01*
X202581068Y-110198900D01*
X202510000Y-110331858D01*
X202438932Y-110198899D01*
X202259607Y-109980392D01*
X202041100Y-109801068D01*
X201791807Y-109667818D01*
X201521308Y-109585764D01*
X201240000Y-109558057D01*
X200958691Y-109585764D01*
X200688192Y-109667818D01*
X200438899Y-109801068D01*
X200220392Y-109980393D01*
X200041068Y-110198900D01*
X199970000Y-110331858D01*
X199898932Y-110198899D01*
X199719607Y-109980392D01*
X199501100Y-109801068D01*
X199251807Y-109667818D01*
X198981308Y-109585764D01*
X198700000Y-109558057D01*
X198418691Y-109585764D01*
X198148192Y-109667818D01*
X197898899Y-109801068D01*
X197680392Y-109980393D01*
X197501068Y-110198900D01*
X197432735Y-110326742D01*
X197282601Y-110097161D01*
X197084895Y-109895500D01*
X196851646Y-109736285D01*
X196591818Y-109625633D01*
X196509039Y-109608096D01*
X196287000Y-109730085D01*
X196287000Y-111273000D01*
X196307000Y-111273000D01*
X196307000Y-111527000D01*
X196287000Y-111527000D01*
X196287000Y-111547000D01*
X196033000Y-111547000D01*
X196033000Y-111527000D01*
X193747000Y-111527000D01*
X193747000Y-113069915D01*
X193969039Y-113191904D01*
X194051818Y-113174367D01*
X194311646Y-113063715D01*
X194544895Y-112904500D01*
X194742601Y-112702839D01*
X194890000Y-112477441D01*
X195037399Y-112702839D01*
X195235105Y-112904500D01*
X195468354Y-113063715D01*
X195728182Y-113174367D01*
X195741866Y-113177266D01*
X193854133Y-115065000D01*
X180941018Y-115065000D01*
X180900000Y-115060960D01*
X180858982Y-115065000D01*
X180858981Y-115065000D01*
X180736311Y-115077082D01*
X180578913Y-115124828D01*
X180433854Y-115202364D01*
X180306709Y-115306709D01*
X180280563Y-115338568D01*
X172248579Y-123370554D01*
X172216709Y-123396709D01*
X172145192Y-123483854D01*
X172112364Y-123523855D01*
X172034828Y-123668914D01*
X171987082Y-123826312D01*
X171970960Y-123990000D01*
X171975000Y-124031019D01*
X171975000Y-124173000D01*
X168281043Y-124173000D01*
X168235948Y-124118052D01*
X168135450Y-124035575D01*
X168020793Y-123974290D01*
X167896383Y-123936550D01*
X167767000Y-123923807D01*
X167734581Y-123927000D01*
X74320000Y-123927000D01*
X74320000Y-59150000D01*
X83711928Y-59150000D01*
X83711928Y-60850000D01*
X83724188Y-60974482D01*
X83760498Y-61094180D01*
X83819463Y-61204494D01*
X83898815Y-61301185D01*
X83995506Y-61380537D01*
X84105820Y-61439502D01*
X84225518Y-61475812D01*
X84350000Y-61488072D01*
X86050000Y-61488072D01*
X86174482Y-61475812D01*
X86294180Y-61439502D01*
X86404494Y-61380537D01*
X86501185Y-61301185D01*
X86580537Y-61204494D01*
X86639502Y-61094180D01*
X86661513Y-61021620D01*
X86793368Y-61153475D01*
X87036589Y-61315990D01*
X87306842Y-61427932D01*
X87593740Y-61485000D01*
X87886260Y-61485000D01*
X88173158Y-61427932D01*
X88443411Y-61315990D01*
X88686632Y-61153475D01*
X88893475Y-60946632D01*
X89055990Y-60703411D01*
X89167932Y-60433158D01*
X89225000Y-60146260D01*
X89225000Y-59853740D01*
X89167932Y-59566842D01*
X89055990Y-59296589D01*
X88893475Y-59053368D01*
X88686632Y-58846525D01*
X88443411Y-58684010D01*
X88173158Y-58572068D01*
X87886260Y-58515000D01*
X87593740Y-58515000D01*
X87306842Y-58572068D01*
X87036589Y-58684010D01*
X86793368Y-58846525D01*
X86661513Y-58978380D01*
X86639502Y-58905820D01*
X86580537Y-58795506D01*
X86501185Y-58698815D01*
X86404494Y-58619463D01*
X86294180Y-58560498D01*
X86174482Y-58524188D01*
X86050000Y-58511928D01*
X84350000Y-58511928D01*
X84225518Y-58524188D01*
X84105820Y-58560498D01*
X83995506Y-58619463D01*
X83898815Y-58698815D01*
X83819463Y-58795506D01*
X83760498Y-58905820D01*
X83724188Y-59025518D01*
X83711928Y-59150000D01*
X74320000Y-59150000D01*
X74320000Y-55397000D01*
X240640001Y-55397000D01*
X240640000Y-123927000D01*
G37*
G04 #@! TD.AperFunction*
D23*
X205559493Y-84440360D02*
X205350692Y-84515325D01*
X205230345Y-84579651D01*
X205161184Y-84821579D01*
X205960000Y-85620395D01*
X205974143Y-85606253D01*
X206153748Y-85785858D01*
X206139605Y-85800000D01*
X206153748Y-85814143D01*
X205974143Y-85993748D01*
X205960000Y-85979605D01*
X205161184Y-86778421D01*
X205230345Y-87020349D01*
X205482443Y-87139248D01*
X205752894Y-87206681D01*
X206031303Y-87220057D01*
X206306972Y-87178860D01*
X206365001Y-87158026D01*
X206365000Y-94322489D01*
X206320000Y-94318057D01*
X206038691Y-94345764D01*
X205768192Y-94427818D01*
X205518899Y-94561068D01*
X205300392Y-94740393D01*
X205121068Y-94958900D01*
X205050000Y-95091858D01*
X204978932Y-94958899D01*
X204799607Y-94740392D01*
X204581100Y-94561068D01*
X204331807Y-94427818D01*
X204061308Y-94345764D01*
X203780000Y-94318057D01*
X203498691Y-94345764D01*
X203228192Y-94427818D01*
X202978899Y-94561068D01*
X202760392Y-94740393D01*
X202581068Y-94958900D01*
X202510000Y-95091858D01*
X202438932Y-94958899D01*
X202259607Y-94740392D01*
X202075000Y-94588889D01*
X202075000Y-94105867D01*
X203981433Y-92199436D01*
X204013291Y-92173291D01*
X204117636Y-92046146D01*
X204195172Y-91901087D01*
X204242918Y-91743689D01*
X204255000Y-91621019D01*
X204255000Y-91621018D01*
X204259040Y-91580000D01*
X204255000Y-91538982D01*
X204255000Y-86943878D01*
X204322010Y-86899103D01*
X204519103Y-86702010D01*
X204673957Y-86470254D01*
X204688777Y-86434475D01*
X204739651Y-86529655D01*
X204981579Y-86598816D01*
X205780395Y-85800000D01*
X204981579Y-85001184D01*
X204739651Y-85070345D01*
X204691575Y-85172279D01*
X204673957Y-85129746D01*
X204519103Y-84897990D01*
X204322010Y-84700897D01*
X204090254Y-84546043D01*
X203832740Y-84439377D01*
X203559365Y-84385000D01*
X203475869Y-84385000D01*
X203625869Y-84235000D01*
X205354133Y-84235000D01*
X205559493Y-84440360D01*
G04 #@! TA.AperFunction,Conductor*
D24*
G36*
X205559493Y-84440360D02*
G01*
X205350692Y-84515325D01*
X205230345Y-84579651D01*
X205161184Y-84821579D01*
X205960000Y-85620395D01*
X205974143Y-85606253D01*
X206153748Y-85785858D01*
X206139605Y-85800000D01*
X206153748Y-85814143D01*
X205974143Y-85993748D01*
X205960000Y-85979605D01*
X205161184Y-86778421D01*
X205230345Y-87020349D01*
X205482443Y-87139248D01*
X205752894Y-87206681D01*
X206031303Y-87220057D01*
X206306972Y-87178860D01*
X206365001Y-87158026D01*
X206365000Y-94322489D01*
X206320000Y-94318057D01*
X206038691Y-94345764D01*
X205768192Y-94427818D01*
X205518899Y-94561068D01*
X205300392Y-94740393D01*
X205121068Y-94958900D01*
X205050000Y-95091858D01*
X204978932Y-94958899D01*
X204799607Y-94740392D01*
X204581100Y-94561068D01*
X204331807Y-94427818D01*
X204061308Y-94345764D01*
X203780000Y-94318057D01*
X203498691Y-94345764D01*
X203228192Y-94427818D01*
X202978899Y-94561068D01*
X202760392Y-94740393D01*
X202581068Y-94958900D01*
X202510000Y-95091858D01*
X202438932Y-94958899D01*
X202259607Y-94740392D01*
X202075000Y-94588889D01*
X202075000Y-94105867D01*
X203981433Y-92199436D01*
X204013291Y-92173291D01*
X204117636Y-92046146D01*
X204195172Y-91901087D01*
X204242918Y-91743689D01*
X204255000Y-91621019D01*
X204255000Y-91621018D01*
X204259040Y-91580000D01*
X204255000Y-91538982D01*
X204255000Y-86943878D01*
X204322010Y-86899103D01*
X204519103Y-86702010D01*
X204673957Y-86470254D01*
X204688777Y-86434475D01*
X204739651Y-86529655D01*
X204981579Y-86598816D01*
X205780395Y-85800000D01*
X204981579Y-85001184D01*
X204739651Y-85070345D01*
X204691575Y-85172279D01*
X204673957Y-85129746D01*
X204519103Y-84897990D01*
X204322010Y-84700897D01*
X204090254Y-84546043D01*
X203832740Y-84439377D01*
X203559365Y-84385000D01*
X203475869Y-84385000D01*
X203625869Y-84235000D01*
X205354133Y-84235000D01*
X205559493Y-84440360D01*
G37*
G04 #@! TD.AperFunction*
M02*
